<svg viewBox="0 0 24 24" xmlns="http://www.w3.org/2000/svg">
<path d="M8.25 0.75C8.25 0.551088 8.32902 0.360322 8.46967 0.21967C8.61032 0.0790176 8.80109 0 9 0L15 0C15.1989 0 15.3897 0.0790176 15.5303 0.21967C15.671 0.360322 15.75 0.551088 15.75 0.75C15.75 0.948912 15.671 1.13968 15.5303 1.28033C15.3897 1.42098 15.1989 1.5 15 1.5H9C8.80109 1.5 8.61032 1.42098 8.46967 1.28033C8.32902 1.13968 8.25 0.948912 8.25 0.75ZM18.75 5.25V21C18.75 21.5967 18.5129 22.169 18.091 22.591C17.669 23.0129 17.0967 23.25 16.5 23.25H7.5C6.90326 23.25 6.33097 23.0129 5.90901 22.591C5.48705 22.169 5.25 21.5967 5.25 21V5.25C5.25 4.65326 5.48705 4.08097 5.90901 3.65901C6.33097 3.23705 6.90326 3 7.5 3H16.5C17.0967 3 17.669 3.23705 18.091 3.65901C18.5129 4.08097 18.75 4.65326 18.75 5.25ZM17.25 5.25C17.25 5.05109 17.171 4.86032 17.0303 4.71967C16.8897 4.57902 16.6989 4.5 16.5 4.5H7.5C7.30109 4.5 7.11032 4.57902 6.96967 4.71967C6.82902 4.86032 6.75 5.05109 6.75 5.25V21C6.75 21.1989 6.82902 21.3897 6.96967 21.5303C7.11032 21.671 7.30109 21.75 7.5 21.75H16.5C16.6989 21.75 16.8897 21.671 17.0303 21.5303C17.171 21.3897 17.25 21.1989 17.25 21V5.25ZM15 6.75H9C8.80109 6.75 8.61032 6.82902 8.46967 6.96967C8.32902 7.11032 8.25 7.30109 8.25 7.5C8.25 7.69891 8.32902 7.88968 8.46967 8.03033C8.61032 8.17098 8.80109 8.25 9 8.25H15C15.1989 8.25 15.3897 8.17098 15.5303 8.03033C15.671 7.88968 15.75 7.69891 15.75 7.5C15.75 7.30109 15.671 7.11032 15.5303 6.96967C15.3897 6.82902 15.1989 6.75 15 6.75ZM15 10.5H9C8.80109 10.5 8.61032 10.579 8.46967 10.7197C8.32902 10.8603 8.25 11.0511 8.25 11.25C8.25 11.4489 8.32902 11.6397 8.46967 11.7803C8.61032 11.921 8.80109 12 9 12H15C15.1989 12 15.3897 11.921 15.5303 11.7803C15.671 11.6397 15.75 11.4489 15.75 11.25C15.75 11.0511 15.671 10.8603 15.5303 10.7197C15.3897 10.579 15.1989 10.5 15 10.5ZM15 14.25H9C8.80109 14.25 8.61032 14.329 8.46967 14.4697C8.32902 14.6103 8.25 14.8011 8.25 15C8.25 15.1989 8.32902 15.3897 8.46967 15.5303C8.61032 15.671 8.80109 15.75 9 15.75H15C15.1989 15.75 15.3897 15.671 15.5303 15.5303C15.671 15.3897 15.75 15.1989 15.75 15C15.75 14.8011 15.671 14.6103 15.5303 14.4697C15.3897 14.329 15.1989 14.25 15 14.25ZM15 18H9C8.80109 18 8.61032 18.079 8.46967 18.2197C8.32902 18.3603 8.25 18.5511 8.25 18.75C8.25 18.9489 8.32902 19.1397 8.46967 19.2803C8.61032 19.421 8.80109 19.5 9 19.5H15C15.1989 19.5 15.3897 19.421 15.5303 19.2803C15.671 19.1397 15.75 18.9489 15.75 18.75C15.75 18.5511 15.671 18.3603 15.5303 18.2197C15.3897 18.079 15.1989 18 15 18Z" fill="currentColor"/>
</svg>
