<svg viewBox="0 0 24 24"  xmlns="http://www.w3.org/2000/svg">
<path d="M12 2.25C10.0716 2.25 8.18657 2.82183 6.58319 3.89317C4.97982 4.96451 3.73013 6.48726 2.99218 8.26884C2.25422 10.0504 2.06114 12.0108 2.43735 13.9021C2.81355 15.7934 3.74215 17.5307 5.10571 18.8943C6.46928 20.2579 8.20656 21.1865 10.0979 21.5627C11.9892 21.9389 13.9496 21.7458 15.7312 21.0078C17.5127 20.2699 19.0355 19.0202 20.1068 17.4168C21.1782 15.8134 21.75 13.9284 21.75 12C21.7473 9.41498 20.7192 6.93661 18.8913 5.10872C17.0634 3.28084 14.585 2.25273 12 2.25ZM12 3.75C13.3731 3.75057 14.7243 4.09383 15.9311 4.74866C17.138 5.40349 18.1623 6.34918 18.9113 7.5H12C11.0527 7.50106 10.1299 7.80054 9.36245 8.3559C8.59505 8.91126 8.02211 9.69427 7.725 10.5938L5.56125 6.84375C6.33355 5.87796 7.31332 5.0984 8.42793 4.56284C9.54254 4.02728 10.7634 3.74947 12 3.75ZM15 12C15 12.5933 14.8241 13.1734 14.4944 13.6667C14.1648 14.1601 13.6962 14.5446 13.1481 14.7716C12.5999 14.9987 11.9967 15.0581 11.4147 14.9424C10.8328 14.8266 10.2982 14.5409 9.87868 14.1213C9.45913 13.7018 9.1734 13.1672 9.05765 12.5853C8.94189 12.0033 9.0013 11.4001 9.22837 10.8519C9.45543 10.3038 9.83995 9.83524 10.3333 9.50559C10.8266 9.17595 11.4067 9 12 9C12.7957 9 13.5587 9.31607 14.1213 9.87868C14.6839 10.4413 15 11.2044 15 12ZM3.75 12C3.74845 10.701 4.05564 9.42014 4.64625 8.26312L8.10282 14.25C8.10844 14.2594 8.115 14.2678 8.12063 14.2762C8.59703 15.0891 9.31654 15.7319 10.1777 16.114C11.0389 16.4962 11.9983 16.5984 12.9206 16.4062L10.755 20.1562C8.80632 19.856 7.0292 18.8689 5.74458 17.3732C4.45996 15.8775 3.75252 13.9717 3.75 12ZM12.4397 20.2378L15.8972 14.25C15.9047 14.2369 15.9103 14.2238 15.9178 14.2106C16.3817 13.3926 16.5769 12.4496 16.476 11.5147C16.375 10.5798 15.9831 9.70015 15.3553 9H19.6875C20.162 10.2159 20.3413 11.527 20.2106 12.8256C20.08 14.1242 19.643 15.3733 18.9358 16.4702C18.2285 17.5671 17.271 18.4806 16.1421 19.1356C15.0131 19.7905 13.7449 20.1683 12.4416 20.2378H12.4397Z" fill="currentColor"/>
</svg>
