<svg  viewBox="0 0 16 16"  xmlns="http://www.w3.org/2000/svg">
<path d="M11.5306 8.53255L6.5306 13.5326C6.3897 13.6734 6.19861 13.7526 5.99935 13.7526C5.80009 13.7526 5.60899 13.6734 5.4681 13.5326C5.3272 13.3917 5.24805 13.2006 5.24805 13.0013C5.24805 12.802 5.3272 12.6109 5.4681 12.4701L9.93747 8.00193L5.46935 3.53255C5.39958 3.46279 5.34424 3.37996 5.30649 3.28881C5.26873 3.19766 5.2493 3.09996 5.2493 3.0013C5.2493 2.90264 5.26873 2.80494 5.30649 2.71379C5.34424 2.62264 5.39958 2.53982 5.46935 2.47005C5.53911 2.40029 5.62194 2.34495 5.71309 2.30719C5.80424 2.26943 5.90194 2.25 6.0006 2.25C6.09926 2.25 6.19696 2.26943 6.28811 2.30719C6.37926 2.34495 6.46208 2.40029 6.53185 2.47005L11.5318 7.47005C11.6017 7.53981 11.6571 7.62267 11.6948 7.71388C11.7326 7.80509 11.7519 7.90285 11.7518 8.00156C11.7517 8.10027 11.7321 8.19799 11.6941 8.28911C11.6562 8.38023 11.6006 8.46296 11.5306 8.53255Z" fill="currentColor"/>
</svg>
