<svg  viewBox="0 0 24 24"  xmlns="http://www.w3.org/2000/svg">
<path d="M11.2275 20.4345C11.187 20.5968 11.0933 20.7408 10.9615 20.8438C10.8297 20.9467 10.6673 21.0026 10.5 21.0027C10.4368 21.003 10.3738 20.9954 10.3125 20.9802L7.31251 20.2302C7.22899 20.2092 7.14971 20.174 7.07814 20.1261L4.82814 18.6261C4.66267 18.5157 4.54783 18.3441 4.50889 18.149C4.46994 17.954 4.51009 17.7514 4.62048 17.5859C4.73088 17.4205 4.90249 17.3056 5.09755 17.2667C5.29262 17.2278 5.49517 17.2679 5.66064 17.3783L7.80189 18.8061L10.6763 19.5252C10.7723 19.5484 10.8628 19.5905 10.9425 19.6488C11.0223 19.7072 11.0897 19.7808 11.1409 19.8653C11.1921 19.9498 11.2262 20.0436 11.241 20.1413C11.2559 20.239 11.2513 20.3386 11.2275 20.4345ZM23.6672 11.3914C23.6057 11.5783 23.5077 11.7512 23.379 11.9001C23.2502 12.0489 23.0933 12.1708 22.9172 12.2586L20.6972 13.3686L15.5335 18.5333C15.4418 18.6248 15.328 18.6911 15.2031 18.7256C15.0783 18.7601 14.9466 18.7617 14.8209 18.7302L8.82095 17.2302C8.72971 17.2073 8.64354 17.1675 8.56689 17.113L3.36189 13.3967L1.08564 12.2586C0.72989 12.0808 0.459333 11.7689 0.333457 11.3916C0.207581 11.0144 0.236691 10.6025 0.414388 10.2467L2.74408 5.58829C2.92191 5.23254 3.23375 4.96199 3.61103 4.83611C3.98831 4.71023 4.40013 4.73935 4.75595 4.91704L6.82408 5.94829L11.7928 4.52892C11.9276 4.49036 12.0705 4.49036 12.2053 4.52892L17.1741 5.94829L19.2422 4.91704C19.598 4.73935 20.0098 4.71023 20.3871 4.83611C20.7644 4.96199 21.0762 5.23254 21.2541 5.58829L23.5838 10.2467C23.6726 10.4226 23.7257 10.6142 23.7401 10.8107C23.7544 11.0072 23.7296 11.2046 23.6672 11.3914ZM19.3378 12.6045L16.7869 7.50267H13.8038L9.75001 11.4402C10.9369 12.1986 12.7978 12.4077 14.4675 10.7249C14.5979 10.5934 14.7723 10.5149 14.9572 10.5043C15.142 10.4937 15.3242 10.5519 15.4688 10.6677L18.6947 13.2524L19.3378 12.6045ZM1.75595 10.917L3.41439 11.7467L5.74408 7.08829L4.08564 6.2586L1.75595 10.917ZM17.625 14.3145L15.0272 12.2342C13.1953 13.7342 10.8694 13.932 8.94189 12.703C8.75229 12.5824 8.5922 12.4207 8.47347 12.2299C8.35473 12.0391 8.28038 11.8241 8.2559 11.6007C8.23142 11.3774 8.25744 11.1514 8.33204 10.9394C8.40664 10.7274 8.52791 10.5349 8.68689 10.3761C8.68915 10.3734 8.69166 10.3709 8.69439 10.3686L12.9 6.28954L12 6.03267L7.27314 7.3836L4.7072 12.5145L9.3197 15.8099L14.7703 17.172L17.625 14.3145ZM22.2413 10.917L19.9144 6.2586L18.256 7.08829L20.5856 11.7467L22.2413 10.917Z" fill="currentColor"/>
</svg>
