<svg  viewBox="0 0 24 24"  xmlns="http://www.w3.org/2000/svg">
<path d="M16.5001 21.7524C16.5001 21.9513 16.4211 22.1421 16.2805 22.2827C16.1398 22.4234 15.949 22.5024 15.7501 22.5024H8.25012C8.05121 22.5024 7.86044 22.4234 7.71979 22.2827C7.57914 22.1421 7.50012 21.9513 7.50012 21.7524C7.50012 21.5535 7.57914 21.3627 7.71979 21.2221C7.86044 21.0814 8.05121 21.0024 8.25012 21.0024H15.7501C15.949 21.0024 16.1398 21.0814 16.2805 21.2221C16.4211 21.3627 16.5001 21.5535 16.5001 21.7524ZM20.2501 9.75239C20.2534 11.0027 19.9709 12.2372 19.4243 13.3617C18.8778 14.4862 18.0815 15.471 17.0964 16.2408C16.9122 16.382 16.7627 16.5635 16.6593 16.7713C16.556 16.9791 16.5015 17.2078 16.5001 17.4399V18.0024C16.5001 18.4002 16.3421 18.7817 16.0608 19.0631C15.7795 19.3444 15.3979 19.5024 15.0001 19.5024H9.00012C8.6023 19.5024 8.22077 19.3444 7.93946 19.0631C7.65816 18.7817 7.50012 18.4002 7.50012 18.0024V17.4399C7.49997 17.2106 7.44724 16.9843 7.34599 16.7786C7.24474 16.5728 7.09766 16.393 6.91606 16.253C5.9335 15.4878 5.13787 14.5091 4.58937 13.391C4.04087 12.2729 3.75389 11.0447 3.75012 9.79927C3.72575 5.33021 7.337 1.61021 11.8014 1.50239C12.9014 1.47589 13.9956 1.66969 15.0196 2.07241C16.0436 2.47513 16.9767 3.07862 17.7639 3.84735C18.5512 4.61609 19.1767 5.53455 19.6037 6.54866C20.0306 7.56278 20.2504 8.65206 20.2501 9.75239ZM18.7501 9.75239C18.7504 8.85208 18.5705 7.9608 18.2212 7.13104C17.8718 6.30127 17.3599 5.54979 16.7158 4.92081C16.0716 4.29184 15.3081 3.79808 14.4702 3.46862C13.6324 3.13916 12.7371 2.98064 11.837 3.00239C8.18075 3.08864 5.23044 6.13271 5.25012 9.78896C5.25348 10.8076 5.48852 11.8122 5.93745 12.7267C6.38639 13.6411 7.03745 14.4414 7.84137 15.0671C8.20273 15.348 8.49501 15.7079 8.69586 16.1191C8.8967 16.5304 9.00078 16.9822 9.00012 17.4399V18.0024H11.2501V13.8127L8.4695 11.033C8.32877 10.8923 8.24971 10.7014 8.24971 10.5024C8.24971 10.3034 8.32877 10.1125 8.4695 9.97177C8.61023 9.83104 8.8011 9.75198 9.00012 9.75198C9.19915 9.75198 9.39002 9.83104 9.53075 9.97177L12.0001 12.4421L14.4695 9.97177C14.5392 9.90209 14.6219 9.84681 14.7129 9.8091C14.804 9.77139 14.9016 9.75198 15.0001 9.75198C15.0987 9.75198 15.1962 9.77139 15.2873 9.8091C15.3783 9.84681 15.4611 9.90209 15.5307 9.97177C15.6004 10.0415 15.6557 10.1242 15.6934 10.2152C15.7311 10.3063 15.7505 10.4038 15.7505 10.5024C15.7505 10.6009 15.7311 10.6985 15.6934 10.7896C15.6557 10.8806 15.6004 10.9633 15.5307 11.033L12.7501 13.8127V18.0024H15.0001V17.4399C15.001 16.9809 15.1067 16.5281 15.3093 16.1162C15.512 15.7043 15.8061 15.3442 16.1692 15.0633C16.9755 14.4332 17.6272 13.6271 18.0745 12.7067C18.5218 11.7862 18.7529 10.7758 18.7501 9.75239Z" fill="currentColor"/>
</svg>
