<svg  viewBox="0 0 16 16"  xmlns="http://www.w3.org/2000/svg">
<path d="M10.3539 5.6465C10.4004 5.69294 10.4373 5.74808 10.4625 5.80878C10.4876 5.86948 10.5006 5.93455 10.5006 6.00025C10.5006 6.06596 10.4876 6.13102 10.4625 6.19172C10.4373 6.25242 10.4004 6.30757 10.3539 6.354L6.35393 10.354C6.30747 10.4005 6.25232 10.4373 6.19163 10.4624C6.13093 10.4876 6.06588 10.5005 6.00018 10.5005C5.93448 10.5005 5.86943 10.4876 5.80873 10.4624C5.74803 10.4373 5.69288 10.4005 5.64643 10.354C5.59997 10.3075 5.56312 10.2524 5.53798 10.1917C5.51284 10.131 5.4999 10.066 5.4999 10.0003C5.4999 9.93456 5.51284 9.8695 5.53798 9.8088C5.56312 9.74811 5.59997 9.69296 5.64643 9.6465L9.64643 5.6465C9.69286 5.60001 9.74801 5.56313 9.80871 5.53797C9.86941 5.51281 9.93447 5.49986 10.0002 5.49986C10.0659 5.49986 10.1309 5.51281 10.1916 5.53797C10.2523 5.56313 10.3075 5.60001 10.3539 5.6465ZM13.4752 2.52525C13.1502 2.20021 12.7643 1.94237 12.3397 1.76646C11.915 1.59054 11.4598 1.5 11.0002 1.5C10.5405 1.5 10.0854 1.59054 9.6607 1.76646C9.23604 1.94237 8.85019 2.20021 8.52518 2.52525L6.64643 4.40338C6.55261 4.4972 6.4999 4.62445 6.4999 4.75713C6.4999 4.88981 6.55261 5.01706 6.64643 5.11088C6.74025 5.2047 6.8675 5.25741 7.00018 5.25741C7.13286 5.25741 7.26011 5.2047 7.35393 5.11088L9.23268 3.23588C9.70323 2.77566 10.3363 2.51957 10.9945 2.5232C11.6527 2.52682 12.2829 2.78987 12.7483 3.25524C13.2138 3.72061 13.4769 4.35077 13.4807 5.00895C13.4844 5.66714 13.2284 6.30024 12.7683 6.77088L10.8889 8.64963C10.7951 8.74337 10.7424 8.87053 10.7423 9.00316C10.7423 9.13578 10.7949 9.26299 10.8886 9.35682C10.9824 9.45064 11.1095 9.50338 11.2421 9.50344C11.3748 9.50349 11.502 9.45087 11.5958 9.35713L13.4752 7.47525C13.8002 7.15024 14.0581 6.76439 14.234 6.33973C14.4099 5.91506 14.5004 5.45991 14.5004 5.00025C14.5004 4.5406 14.4099 4.08544 14.234 3.66078C14.0581 3.23612 13.8002 2.85026 13.4752 2.52525ZM8.64643 10.889L6.76768 12.7678C6.53648 13.0041 6.26068 13.1923 5.95625 13.3214C5.65182 13.4505 5.32482 13.5179 4.99416 13.5197C4.66351 13.5215 4.33578 13.4577 4.02995 13.332C3.72412 13.2063 3.44626 13.0212 3.21247 12.7873C2.97868 12.5535 2.7936 12.2756 2.66794 11.9698C2.54229 11.6639 2.47855 11.3362 2.48043 11.0055C2.48231 10.6749 2.54977 10.3479 2.67889 10.0435C2.80802 9.73905 2.99625 9.46329 3.23268 9.23213L5.1108 7.354C5.20462 7.26018 5.25733 7.13293 5.25733 7.00025C5.25733 6.86757 5.20462 6.74032 5.1108 6.6465C5.01698 6.55268 4.88974 6.49997 4.75705 6.49997C4.62437 6.49997 4.49712 6.55268 4.4033 6.6465L2.52518 8.52525C1.86877 9.18166 1.5 10.0719 1.5 11.0003C1.5 11.9286 1.86877 12.8188 2.52518 13.4753C3.18159 14.1317 4.07187 14.5004 5.00018 14.5004C5.92848 14.5004 6.81877 14.1317 7.47518 13.4753L9.35393 11.5959C9.44767 11.5021 9.50029 11.3748 9.50024 11.2422C9.50018 11.1096 9.44744 10.9824 9.35362 10.8887C9.2598 10.795 9.13258 10.7423 8.99996 10.7424C8.86733 10.7424 8.74017 10.7952 8.64643 10.889Z" fill="currentColor"/>
</svg>
