<svg  viewBox="0 0 112 60"  xmlns="http://www.w3.org/2000/svg">
<path d="M23.444 13.2752L22.6255 12.4445L22.5765 12.3953L20.6158 14.3369L21.1207 14.8431L21.4344 15.1528C25.1628 18.8327 28.8798 22.5176 32.5854 26.2073C35.8106 29.4252 39.0293 32.6529 42.2414 35.8905C42.4718 36.1166 42.7904 36.495 43.1776 36.8735V0.0087547H41.8101C37.7908 -0.0207371 33.7716 0.0333314 29.7523 0.0382467C25.0174 0.0382467 20.2793 0.0382467 15.5379 0.0382467H0.00490071V2.87929C2.58311 2.85471 7.21015 2.87929 9.80797 2.87929H13.3812C12.63 3.59505 11.929 4.36202 11.2833 5.17474C10.4461 6.30531 9.73284 7.52316 9.15606 8.80714C8.40733 10.7679 8.17438 12.8889 8.47965 14.966C8.66697 17.087 9.4524 19.1106 10.7442 20.8005C12.2142 22.5526 13.775 24.2262 15.4202 25.8141C19.7695 30.2051 24.14 34.5748 28.5318 38.9232C31.2228 41.5873 32.3599 44.7626 31.7717 48.4933C31.3306 51.0587 29.91 53.3509 27.8113 54.8832C25.1449 56.9869 22.2039 57.3949 19.0179 56.7166C16.9103 56.2595 15.2536 54.9962 13.7586 53.4921C10.2785 49.9924 6.77882 46.5124 3.30853 42.998L2.93112 42.5851V30.0118L6.22985 33.3148C11.102 38.2105 15.9169 43.0504 20.6747 47.8346C21.4001 47.1858 22.0422 46.5567 22.5274 46.1241C14.9791 38.4956 7.46013 30.8916 0 23.3908V24.192C0 27.5983 0 50.6953 0 58.8056V59.8722H0.980306C8.3326 59.8378 15.6457 59.8427 22.9833 59.8427C29.0661 59.8427 37.1046 59.8427 43.1874 59.882V56.982C39.7024 57.0115 34.0215 56.982 30.5316 57.0066H29.7278C30.0562 56.7264 30.2621 56.5642 30.4483 56.3922C31.9644 55.0595 33.141 53.3828 33.8801 51.5019C34.6193 49.6209 34.8997 47.5901 34.6979 45.5785C34.4578 42.8702 33.6392 40.4174 31.7864 38.4169C29.9337 36.4164 28.0858 34.5633 26.1742 32.6365C22.2775 28.7043 18.3317 24.8015 14.4546 20.8693C12.6873 19.2141 11.5605 16.9856 11.2735 14.5777C11.0315 12.6934 11.3113 10.7786 12.0823 9.04308C13.045 6.94632 14.6623 5.22091 16.6897 4.12778C19.0915 2.79081 21.6207 2.65319 24.2185 3.27251C26.2281 3.73455 27.8407 4.91914 29.2719 6.33966L30.9434 8.0207L40.2563 17.3598V30.169M2.8821 56.9525V46.6304L13.2292 56.9525H2.8821ZM40.2465 13.2948L30.3748 3.50845L29.7082 2.84488H40.2465V13.2948Z" fill="currentColor"/>
<path d="M112 39.1984V40.9827H108.696V47.7412H106.917V40.9827H103.633V39.1984H112Z" fill="currentColor"/>
<path d="M65.2982 51.4425V53.2267H61.9946V59.9853H60.2202V53.2267H56.9313V51.4425H65.2982Z" fill="currentColor"/>
<path d="M68.396 53.2267V54.8045H73.3269V56.5839H68.396V58.201H74.719V59.9853H66.6461V51.4425H74.719V53.2267H68.396Z" fill="currentColor"/>
<path d="M103.741 53.1481C103.664 52.8519 103.535 52.5722 103.359 52.3223C103.17 52.0634 102.927 51.8487 102.648 51.6931C102.321 51.519 101.954 51.4326 101.584 51.4425H97.7366C97.3925 51.4295 97.0507 51.5032 96.7425 51.6569C96.4342 51.8106 96.1693 52.0394 95.972 52.3223C95.7906 52.5697 95.659 52.8502 95.5848 53.1481C95.5074 53.4233 95.4662 53.7075 95.4622 53.9935V57.4342C95.4662 57.7186 95.5074 58.0011 95.5848 58.2747C95.6605 58.5719 95.7883 58.8532 95.9622 59.1054C96.1454 59.3602 96.379 59.5744 96.6484 59.7346C96.9592 59.9095 97.3117 59.9962 97.6679 59.9853H101.658C102.011 59.9944 102.36 59.9078 102.667 59.7346C102.935 59.5755 103.166 59.361 103.344 59.1054C103.52 58.8527 103.653 58.5718 103.736 58.2747C103.818 58.0022 103.859 57.7189 103.859 57.4342V53.9935C103.859 53.7076 103.819 53.423 103.741 53.1481ZM101.609 58.201H97.7366C97.6605 58.202 97.5868 58.1739 97.5307 58.1224C97.4611 58.0662 97.4043 57.9958 97.364 57.9159C97.3197 57.8334 97.2851 57.746 97.2611 57.6554C97.2365 57.5741 97.2233 57.4897 97.2219 57.4047V54.0181C97.2245 53.938 97.2377 53.8587 97.2611 53.7821C97.2843 53.6897 97.3188 53.6006 97.364 53.5167C97.406 53.4351 97.4644 53.3632 97.5356 53.3054C97.6011 53.2533 97.6824 53.2255 97.766 53.2267H101.56C101.642 53.2259 101.721 53.2537 101.785 53.3054C101.852 53.365 101.907 53.4367 101.947 53.5167C101.99 53.6015 102.025 53.6904 102.05 53.7821C102.072 53.8589 102.084 53.9382 102.084 54.0181V57.4047C102.085 57.4895 102.073 57.5739 102.05 57.6554C102.024 57.7452 101.989 57.8325 101.947 57.9159C101.907 57.9945 101.852 58.0646 101.785 58.1224C101.736 58.1668 101.674 58.1944 101.609 58.201Z" fill="currentColor"/>
<path d="M49.1624 41.779V45.1607C49.162 45.2471 49.1736 45.3331 49.1967 45.4163C49.223 45.5045 49.2574 45.5901 49.2996 45.6719C49.3399 45.7518 49.3967 45.8222 49.4663 45.8783C49.5231 45.9324 49.5987 45.9623 49.677 45.9619H55.4902V47.7462H49.6084C49.2547 47.7566 48.9051 47.6681 48.5987 47.4906C48.318 47.3323 48.0754 47.1141 47.888 46.8516C47.7181 46.5988 47.5906 46.3199 47.5106 46.0258C47.435 45.752 47.3955 45.4694 47.3929 45.1853V41.7446C47.3951 41.4572 47.4347 41.1713 47.5106 40.8942C47.5876 40.5991 47.7154 40.3197 47.888 40.0685C48.0855 39.7861 48.3506 39.5581 48.6589 39.4052C48.9672 39.2523 49.3089 39.1795 49.6525 39.1935H55.4657V40.9778H49.6525C49.5703 40.9752 49.4899 41.0032 49.4271 41.0564C49.3575 41.1126 49.3007 41.183 49.2604 41.2629C49.2181 41.348 49.1837 41.4369 49.1575 41.5283C49.148 41.6117 49.1496 41.696 49.1624 41.779Z" fill="currentColor"/>
<path d="M75.1062 47.7462L71.3222 39.1984H69.8959L66.1119 47.7462H68.0333L70.6164 41.9412L73.1848 47.7462H75.1062Z" fill="currentColor"/>
<path d="M94.2565 43.3568C94.4388 43.1043 94.5749 42.8214 94.6584 42.5212C94.7371 42.2462 94.7784 41.9618 94.7809 41.6758C94.778 41.3933 94.7384 41.1124 94.6633 40.8402C94.5888 40.5454 94.4572 40.2681 94.2761 40.0242C94.0915 39.7684 93.8541 39.5555 93.58 39.4C93.2561 39.2275 92.8928 39.1428 92.5262 39.1542H86.5022V47.6134H92.5409C92.9078 47.6272 93.2716 47.5424 93.5948 47.3677C93.8703 47.21 94.1079 46.9935 94.2908 46.7336C94.4686 46.4805 94.5998 46.1975 94.678 45.898C94.7532 45.6258 94.7927 45.3449 94.7956 45.0624C94.792 44.778 94.7508 44.4954 94.6731 44.2219C94.5823 43.9126 94.4416 43.6204 94.2565 43.3568ZM92.9821 45.3229C92.958 45.4151 92.9235 45.5041 92.8791 45.5883C92.8394 45.6673 92.7863 45.7388 92.7223 45.7997C92.6617 45.8578 92.5807 45.8896 92.4968 45.8882H88.2325V44.2661H92.5556C92.6355 44.2743 92.7115 44.3049 92.7748 44.3545C92.8381 44.4041 92.8862 44.4705 92.9134 44.5463C92.9771 44.7025 93.012 44.8691 93.0164 45.0378C93.0197 45.1251 93.0131 45.2125 92.9968 45.2983L92.9821 45.3229ZM88.2325 40.9434H92.4968C92.5791 40.9408 92.6594 40.9688 92.7223 41.022C92.7874 41.08 92.8407 41.1501 92.8791 41.2285C92.9243 41.3106 92.9589 41.3981 92.9821 41.489C93.0038 41.5674 93.0154 41.6484 93.0164 41.7298C93.0151 41.8989 92.9801 42.066 92.9134 42.2214C92.8882 42.2925 92.8444 42.3555 92.7867 42.4039C92.7289 42.4523 92.6593 42.4843 92.585 42.4966H88.2325V40.9434Z" fill="currentColor"/>
<path d="M49.1918 53.9591V57.3457C49.1932 57.4307 49.2064 57.5151 49.231 57.5964C49.255 57.687 49.2896 57.7744 49.3339 57.8569C49.3742 57.9369 49.431 58.0072 49.5006 58.0634C49.5567 58.1149 49.6303 58.143 49.7064 58.142H55.5344V59.9263H49.6525C49.2993 59.9377 48.9499 59.8509 48.6428 59.6756C48.3753 59.5165 48.1447 59.302 47.9664 59.0464C47.7949 58.7922 47.6658 58.5116 47.5841 58.2157C47.5097 57.9418 47.4718 57.6592 47.4713 57.3752V53.9345C47.4718 53.649 47.5097 53.3647 47.5841 53.0891C47.6629 52.7937 47.7922 52.5143 47.9664 52.2633C48.162 51.9798 48.4258 51.7505 48.7335 51.5966C49.0411 51.4428 49.3826 51.3695 49.726 51.3835H55.5344V53.1677H49.726C49.6847 53.1653 49.6434 53.1714 49.6046 53.1858C49.5658 53.2002 49.5303 53.2225 49.5006 53.2513C49.431 53.3074 49.3742 53.3778 49.3339 53.4577C49.2887 53.5416 49.2542 53.6307 49.231 53.7232C49.2079 53.7998 49.1948 53.8791 49.1918 53.9591Z" fill="currentColor"/>
<path d="M94.8544 59.9263L91.0656 51.3835H89.6441L85.8552 59.9263H87.7766L90.3646 54.1262L92.9331 59.9263H94.8544Z" fill="currentColor"/>
<path d="M81.4929 55.9793L85.1494 60H82.7918L79.8803 56.8395H77.9099V60H76.1649V51.2557H77.9099V55.0847H79.8901L82.8016 51.2557H85.1494L81.4929 55.9793Z" fill="currentColor"/>
<path d="M60.926 41.8969L60.8623 42.0395H60.9898L60.926 41.8969Z" fill="currentColor"/>
<path d="M65.0041 46.9745L61.5338 39.1444H60.1075L56.3235 47.6823H58.2449L58.4018 47.3284L58.8919 46.2126H62.7396L63.2298 47.3185L63.3915 47.6823H65.3374L65.0041 46.9745ZM59.6958 44.4332L60.8329 41.8724L61.2643 42.8554L61.9603 44.4332H59.6958Z" fill="currentColor"/>
<path d="M84.6544 46.9745L81.1841 39.1444H79.7577L75.9737 47.6823H77.8951L78.052 47.3284L78.5422 46.2126H82.3899L82.88 47.3185L83.0418 47.6823H84.9583L84.6544 46.9745ZM79.346 44.4332L80.042 42.8554L80.4782 41.8724L80.9096 42.8554L81.6056 44.4332H79.346Z" fill="currentColor"/>
<path d="M104.06 46.9745L100.589 39.1444H99.158L95.374 47.6823H97.2954L97.4523 47.3284L97.9424 46.2126H101.79L102.28 47.3185L102.442 47.6823H104.359L104.06 46.9745ZM98.7512 44.4332L99.8883 41.8724L100.32 42.8554L101.016 44.4332H98.7512Z" fill="currentColor"/>
</svg>
