<svg viewBox="0 0 24 24"  xmlns="http://www.w3.org/2000/svg">
<path d="M9.72843 17.4307C9.69186 17.576 8.7778 20.9988 3.74999 20.9988C3.55108 20.9988 3.36031 20.9198 3.21966 20.7792C3.07901 20.6385 2.99999 20.4477 2.99999 20.2488C2.99999 15.221 6.4228 14.3069 6.56812 14.2704C6.76118 14.2221 6.96551 14.2526 7.13614 14.355C7.30677 14.4574 7.42972 14.6234 7.47796 14.8165C7.5262 15.0095 7.49576 15.2139 7.39335 15.3845C7.29093 15.5551 7.12493 15.6781 6.93187 15.7263C6.84749 15.7498 4.82999 16.3394 4.53562 19.4632C7.65937 19.1688 8.24999 17.1551 8.27437 17.0613C8.32409 16.8685 8.44838 16.7033 8.61989 16.6022C8.7914 16.501 8.99608 16.4721 9.1889 16.5218C9.38172 16.5715 9.54689 16.6958 9.64807 16.8673C9.74925 17.0388 9.77816 17.2435 9.72843 17.4363V17.4307ZM18.4472 11.1119L18 11.5591V17.0276C18.0011 17.2253 17.9629 17.4213 17.8876 17.6041C17.8122 17.787 17.7013 17.953 17.5612 18.0926L14.3437 21.3082C14.205 21.4479 14.0399 21.5588 13.8581 21.6344C13.6763 21.7101 13.4813 21.7489 13.2844 21.7488C13.1218 21.7488 12.9604 21.7225 12.8062 21.671C12.5416 21.5835 12.3067 21.4236 12.1281 21.2096C11.9495 20.9956 11.8343 20.7358 11.7956 20.4598L11.2922 16.8513L7.14749 12.7066L3.54093 12.2032C3.2645 12.1644 3.00437 12.0493 2.78981 11.8707C2.57524 11.6922 2.41476 11.4573 2.3264 11.1925C2.23804 10.9278 2.22532 10.6436 2.28966 10.372C2.35401 10.1004 2.49286 9.85208 2.69062 9.65507L5.90624 6.43757C6.04581 6.2975 6.21185 6.18657 6.39468 6.11125C6.57751 6.03592 6.7735 5.99771 6.97124 5.99882H12.4397L12.8869 5.55164C15.3881 3.05132 18.4022 2.94351 19.5816 3.01382C19.9472 3.03605 20.2922 3.19134 20.5512 3.4504C20.8103 3.70946 20.9656 4.05438 20.9878 4.42007C21.0562 5.59664 20.9484 8.6107 18.4481 11.1119H18.4472ZM3.74999 10.7182L7.2328 11.2038L10.9397 7.49882H6.97124L3.74999 10.7182ZM8.56124 11.9988L12 15.4376L17.3859 10.0516C18.1118 9.3307 18.6749 8.46274 19.0374 7.5061C19.4 6.54946 19.5535 5.5263 19.4878 4.50539C18.4674 4.44211 17.4453 4.59729 16.4897 4.96056C15.534 5.32383 14.6669 5.88683 13.9462 6.61195L8.56124 11.9988ZM16.5 13.0591L12.7941 16.7651L13.2816 20.2488L16.5 17.0276V13.0591Z" fill="currentColor"/>
</svg>
