<svg  viewBox="0 0 24 24"  xmlns="http://www.w3.org/2000/svg">
<path d="M16.4992 15.003C15.9989 15.0028 15.5037 15.1031 15.0428 15.2978C14.5819 15.4925 14.1648 15.7776 13.8161 16.1364L9.49425 13.3586C9.83421 12.4869 9.83421 11.5192 9.49425 10.6474L13.8161 7.86957C14.4653 8.53455 15.3383 8.9348 16.2658 8.99272C17.1933 9.05063 18.1093 8.76208 18.8361 8.18302C19.563 7.60395 20.0489 6.77562 20.1998 5.85862C20.3506 4.94162 20.1555 4.00128 19.6525 3.21991C19.1494 2.43855 18.3741 1.87182 17.4768 1.62961C16.5796 1.3874 15.6245 1.48696 14.7965 1.90899C13.9685 2.33102 13.3268 3.04545 12.9956 3.91377C12.6645 4.7821 12.6676 5.74244 13.0042 6.60863L8.68237 9.38644C8.16194 8.85214 7.49399 8.48517 6.76391 8.33245C6.03383 8.17973 5.2748 8.2482 4.58384 8.5291C3.89287 8.81 3.30137 9.29057 2.88495 9.90938C2.46852 10.5282 2.24609 11.2571 2.24609 12.003C2.24609 12.7489 2.46852 13.4778 2.88495 14.0966C3.30137 14.7154 3.89287 15.196 4.58384 15.4769C5.2748 15.7578 6.03383 15.8263 6.76391 15.6736C7.49399 15.5208 8.16194 15.1539 8.68237 14.6196L13.0042 17.3974C12.7147 18.1441 12.6719 18.9639 12.882 19.7368C13.0921 20.5097 13.5441 21.1949 14.1719 21.6923C14.7997 22.1897 15.5702 22.473 16.3706 22.5007C17.171 22.5285 17.9593 22.2993 18.6201 21.8466C19.2808 21.394 19.7792 20.7417 20.0424 19.9853C20.3056 19.2288 20.3197 18.408 20.0826 17.643C19.8455 16.878 19.3697 16.2089 18.7249 15.7339C18.0801 15.2588 17.3002 15.0027 16.4992 15.003ZM16.4992 3.003C16.9443 3.003 17.3793 3.13496 17.7493 3.3822C18.1193 3.62943 18.4077 3.98083 18.578 4.39197C18.7483 4.8031 18.7928 5.2555 18.706 5.69196C18.6192 6.12841 18.4049 6.52933 18.0902 6.84399C17.7756 7.15866 17.3747 7.37295 16.9382 7.45977C16.5017 7.54659 16.0493 7.50203 15.6382 7.33173C15.2271 7.16144 14.8757 6.87305 14.6284 6.50304C14.3812 6.13303 14.2492 5.69801 14.2492 5.253C14.2492 4.65627 14.4863 4.08397 14.9083 3.66201C15.3302 3.24006 15.9025 3.003 16.4992 3.003ZM5.99925 14.253C5.55424 14.253 5.11923 14.121 4.74922 13.8738C4.37921 13.6266 4.09082 13.2752 3.92052 12.864C3.75022 12.4529 3.70567 12.0005 3.79248 11.5641C3.8793 11.1276 4.09359 10.7267 4.40826 10.412C4.72293 10.0973 5.12384 9.88305 5.5603 9.79624C5.99675 9.70942 6.44915 9.75398 6.86029 9.92427C7.27142 10.0946 7.62282 10.383 7.87006 10.753C8.11729 11.123 8.24925 11.558 8.24925 12.003C8.24925 12.5997 8.0122 13.172 7.59024 13.594C7.16828 14.016 6.59599 14.253 5.99925 14.253ZM16.4992 21.003C16.0542 21.003 15.6192 20.871 15.2492 20.6238C14.8792 20.3766 14.5908 20.0252 14.4205 19.614C14.2502 19.2029 14.2057 18.7505 14.2925 18.3141C14.3793 17.8776 14.5936 17.4767 14.9083 17.162C15.2229 16.8473 15.6238 16.6331 16.0603 16.5462C16.4968 16.4594 16.9492 16.504 17.3603 16.6743C17.7714 16.8446 18.1228 17.133 18.3701 17.503C18.6173 17.873 18.7492 18.308 18.7492 18.753C18.7492 19.3497 18.5122 19.922 18.0902 20.344C17.6683 20.766 17.096 21.003 16.4992 21.003Z" fill="currentColor"/>
</svg>
