<svg  viewBox="0 0 24 24"  xmlns="http://www.w3.org/2000/svg">
<path d="M19.5459 11.2996C19.4414 11.4045 19.3172 11.4877 19.1804 11.5445C19.0437 11.6013 18.8971 11.6305 18.749 11.6305C18.601 11.6305 18.4543 11.6013 18.3176 11.5445C18.1809 11.4877 18.0567 11.4045 17.9521 11.2996L13.125 6.47245V20.2537C13.125 20.5521 13.0064 20.8382 12.7955 21.0492C12.5845 21.2602 12.2983 21.3787 12 21.3787C11.7016 21.3787 11.4154 21.2602 11.2045 21.0492C10.9935 20.8382 10.875 20.5521 10.875 20.2537V6.47245L6.0459 11.2996C5.83455 11.511 5.54791 11.6297 5.24902 11.6297C4.95014 11.6297 4.66349 11.511 4.45215 11.2996C4.2408 11.0883 4.12207 10.8016 4.12207 10.5028C4.12207 10.2039 4.2408 9.91723 4.45215 9.70589L11.2021 2.95589C11.3067 2.85101 11.4309 2.76779 11.5676 2.71101C11.7043 2.65423 11.851 2.625 11.999 2.625C12.1471 2.625 12.2937 2.65423 12.4304 2.71101C12.5672 2.76779 12.6914 2.85101 12.7959 2.95589L19.5459 9.70589C19.6508 9.8104 19.734 9.9346 19.7908 10.0713C19.8476 10.2081 19.8768 10.3547 19.8768 10.5028C19.8768 10.6508 19.8476 10.7974 19.7908 10.9342C19.734 11.0709 19.6508 11.1951 19.5459 11.2996Z" fill="currentColor"/>
</svg>
