<svg viewBox="0 0 24 24" xmlns="http://www.w3.org/2000/svg">
<path d="M19.5469 11.2996C19.4424 11.4045 19.3182 11.4877 19.1814 11.5445C19.0447 11.6013 18.8981 11.6305 18.75 11.6305C18.6019 11.6305 18.4553 11.6013 18.3186 11.5445C18.1818 11.4877 18.0576 11.4045 17.9531 11.2996L13.1259 6.47245V20.2537C13.1259 20.5521 13.0074 20.8382 12.7964 21.0492C12.5855 21.2602 12.2993 21.3787 12.0009 21.3787C11.7026 21.3787 11.4164 21.2602 11.2054 21.0492C10.9945 20.8382 10.8759 20.5521 10.8759 20.2537V6.47245L6.04687 11.2996C5.83553 11.511 5.54888 11.6297 5.25 11.6297C4.95111 11.6297 4.66447 11.511 4.45312 11.2996C4.24178 11.0883 4.12305 10.8016 4.12305 10.5028C4.12305 10.2039 4.24178 9.91723 4.45312 9.70589L11.2031 2.95589C11.3076 2.85101 11.4318 2.76779 11.5686 2.71101C11.7053 2.65423 11.8519 2.625 12 2.625C12.1481 2.625 12.2947 2.65423 12.4314 2.71101C12.5682 2.76779 12.6924 2.85101 12.7969 2.95589L19.5469 9.70589C19.6518 9.8104 19.735 9.9346 19.7917 10.0713C19.8485 10.2081 19.8778 10.3547 19.8778 10.5028C19.8778 10.6508 19.8485 10.7974 19.7917 10.9342C19.735 11.0709 19.6518 11.1951 19.5469 11.2996Z" fill="currentColor"/>
</svg>
