<svg  viewBox="0 0 32 32"  xmlns="http://www.w3.org/2000/svg">
<path d="M3.4 15.8038C3.50506 15.8826 3.62461 15.9399 3.75182 15.9725C3.87903 16.0051 4.01142 16.0123 4.14142 15.9937C4.27142 15.9751 4.39649 15.9311 4.50949 15.8642C4.62249 15.7973 4.72121 15.7088 4.8 15.6038C5.40546 14.7965 6.19055 14.1413 7.09311 13.69C7.99567 13.2387 8.99091 13.0038 10 13.0038C11.0091 13.0038 12.0043 13.2387 12.9069 13.69C13.8094 14.1413 14.5945 14.7965 15.2 15.6038C15.3593 15.8157 15.5963 15.9558 15.8588 15.993C16.1214 16.0303 16.388 15.9618 16.6 15.8025C16.6756 15.7463 16.7425 15.6793 16.7987 15.6038C17.4042 14.7965 18.1893 14.1413 19.0919 13.69C19.9944 13.2387 20.9897 13.0038 21.9988 13.0038C23.0078 13.0038 24.0031 13.2387 24.9056 13.69C25.8082 14.1413 26.5933 14.7965 27.1987 15.6038C27.358 15.8159 27.5951 15.9561 27.8578 15.9935C28.1204 16.0309 28.3872 15.9624 28.5994 15.8031C28.8115 15.6438 28.9518 15.4068 28.9891 15.1441C29.0265 14.8815 28.958 14.6147 28.7987 14.4025C27.9136 13.2158 26.7332 12.2816 25.375 11.6925C26.1196 11.0127 26.6413 10.1236 26.8716 9.14201C27.1019 8.1604 27.03 7.13209 26.6654 6.19204C26.3009 5.252 25.6606 4.44414 24.8287 3.87448C23.9967 3.30483 23.012 3 22.0037 3C20.9955 3 20.0108 3.30483 19.1788 3.87448C18.3469 4.44414 17.7066 5.252 17.3421 6.19204C16.9775 7.13209 16.9056 8.1604 17.1359 9.14201C17.3662 10.1236 17.8879 11.0127 18.6325 11.6925C17.6518 12.1166 16.7609 12.7237 16.0075 13.4813C15.2541 12.7237 14.3632 12.1166 13.3825 11.6925C14.1271 11.0127 14.6488 10.1236 14.8791 9.14201C15.1094 8.1604 15.0375 7.13209 14.6729 6.19204C14.3084 5.252 13.6681 4.44414 12.8362 3.87448C12.0042 3.30483 11.0195 3 10.0112 3C9.00298 3 8.01827 3.30483 7.18634 3.87448C6.35442 4.44414 5.71415 5.252 5.34957 6.19204C4.98499 7.13209 4.91313 8.1604 5.14342 9.14201C5.37371 10.1236 5.89539 11.0127 6.64 11.6925C5.27581 12.2796 4.08963 13.2145 3.2 14.4038C3.12121 14.5088 3.06388 14.6284 3.03129 14.7556C2.99869 14.8828 2.99148 15.0152 3.01005 15.1452C3.02862 15.2752 3.07262 15.4003 3.13953 15.5133C3.20643 15.6263 3.29494 15.725 3.4 15.8038ZM22 5.00377C22.5933 5.00377 23.1734 5.17971 23.6667 5.50936C24.1601 5.839 24.5446 6.30754 24.7716 6.85572C24.9987 7.40389 25.0581 8.00709 24.9424 8.58904C24.8266 9.17098 24.5409 9.70553 24.1213 10.1251C23.7018 10.5446 23.1672 10.8304 22.5853 10.9461C22.0033 11.0619 21.4001 11.0025 20.8519 10.7754C20.3038 10.5483 19.8352 10.1638 19.5056 9.67048C19.1759 9.17713 19 8.59711 19 8.00377C19 7.20812 19.3161 6.44505 19.8787 5.88245C20.4413 5.31984 21.2044 5.00377 22 5.00377ZM10 5.00377C10.5933 5.00377 11.1734 5.17971 11.6667 5.50936C12.1601 5.839 12.5446 6.30754 12.7716 6.85572C12.9987 7.40389 13.0581 8.00709 12.9424 8.58904C12.8266 9.17098 12.5409 9.70553 12.1213 10.1251C11.7018 10.5446 11.1672 10.8304 10.5853 10.9461C10.0033 11.0619 9.40013 11.0025 8.85195 10.7754C8.30377 10.5483 7.83524 10.1638 7.50559 9.67048C7.17595 9.17713 7 8.59711 7 8.00377C7 7.20812 7.31607 6.44505 7.87868 5.88245C8.44129 5.31984 9.20435 5.00377 10 5.00377ZM25.375 24.6925C26.1196 24.0127 26.6413 23.1236 26.8716 22.142C27.1019 21.1604 27.03 20.1321 26.6654 19.192C26.3009 18.252 25.6606 17.4441 24.8287 16.8745C23.9967 16.3048 23.012 16 22.0037 16C20.9955 16 20.0108 16.3048 19.1788 16.8745C18.3469 17.4441 17.7066 18.252 17.3421 19.192C16.9775 20.1321 16.9056 21.1604 17.1359 22.142C17.3662 23.1236 17.8879 24.0127 18.6325 24.6925C17.6518 25.1166 16.7609 25.7237 16.0075 26.4813C15.2541 25.7237 14.3632 25.1166 13.3825 24.6925C14.1271 24.0127 14.6488 23.1236 14.8791 22.142C15.1094 21.1604 15.0375 20.1321 14.6729 19.192C14.3084 18.252 13.6681 17.4441 12.8362 16.8745C12.0042 16.3048 11.0195 16 10.0112 16C9.00298 16 8.01827 16.3048 7.18634 16.8745C6.35442 17.4441 5.71415 18.252 5.34957 19.192C4.98499 20.1321 4.91313 21.1604 5.14342 22.142C5.37371 23.1236 5.89539 24.0127 6.64 24.6925C5.27581 25.2796 4.08963 26.2145 3.2 27.4038C3.12121 27.5088 3.06388 27.6284 3.03129 27.7556C2.99869 27.8828 2.99148 28.0152 3.01005 28.1452C3.02862 28.2752 3.07262 28.4003 3.13953 28.5133C3.20643 28.6263 3.29494 28.725 3.4 28.8038C3.50506 28.8826 3.62461 28.9399 3.75182 28.9725C3.87903 29.0051 4.01142 29.0123 4.14142 28.9937C4.27142 28.9751 4.39649 28.9311 4.50949 28.8642C4.62249 28.7973 4.72121 28.7088 4.8 28.6038C5.40546 27.7965 6.19055 27.1413 7.09311 26.69C7.99567 26.2387 8.99091 26.0038 10 26.0038C11.0091 26.0038 12.0043 26.2387 12.9069 26.69C13.8094 27.1413 14.5945 27.7965 15.2 28.6038C15.3593 28.8157 15.5963 28.9558 15.8588 28.993C16.1214 29.0303 16.388 28.9618 16.6 28.8025C16.6756 28.7463 16.7425 28.6793 16.7987 28.6038C17.4042 27.7965 18.1893 27.1413 19.0919 26.69C19.9944 26.2387 20.9897 26.0038 21.9988 26.0038C23.0078 26.0038 24.0031 26.2387 24.9056 26.69C25.8082 27.1413 26.5933 27.7965 27.1987 28.6038C27.358 28.8159 27.5951 28.9561 27.8578 28.9935C28.1204 29.0309 28.3872 28.9624 28.5994 28.8031C28.8115 28.6438 28.9518 28.4068 28.9891 28.1441C29.0265 27.8815 28.958 27.6147 28.7987 27.4025C27.9136 26.2158 26.7332 25.2815 25.375 24.6925ZM10 18.0038C10.5933 18.0038 11.1734 18.1797 11.6667 18.5094C12.1601 18.839 12.5446 19.3075 12.7716 19.8557C12.9987 20.4039 13.0581 21.0071 12.9424 21.589C12.8266 22.171 12.5409 22.7055 12.1213 23.1251C11.7018 23.5446 11.1672 23.8304 10.5853 23.9461C10.0033 24.0619 9.40013 24.0025 8.85195 23.7754C8.30377 23.5483 7.83524 23.1638 7.50559 22.6705C7.17595 22.1771 7 21.5971 7 21.0038C7 20.2081 7.31607 19.4451 7.87868 18.8824C8.44129 18.3198 9.20435 18.0038 10 18.0038ZM22 18.0038C22.5933 18.0038 23.1734 18.1797 23.6667 18.5094C24.1601 18.839 24.5446 19.3075 24.7716 19.8557C24.9987 20.4039 25.0581 21.0071 24.9424 21.589C24.8266 22.171 24.5409 22.7055 24.1213 23.1251C23.7018 23.5446 23.1672 23.8304 22.5853 23.9461C22.0033 24.0619 21.4001 24.0025 20.8519 23.7754C20.3038 23.5483 19.8352 23.1638 19.5056 22.6705C19.1759 22.1771 19 21.5971 19 21.0038C19 20.2081 19.3161 19.4451 19.8787 18.8824C20.4413 18.3198 21.2044 18.0038 22 18.0038Z" fill="currentColor"/>
</svg>
