<svg  viewBox="0 0 24 24" xmlns="http://www.w3.org/2000/svg">
<path d="M22.95 14.0992C22.8712 14.1583 22.7816 14.2013 22.6862 14.2257C22.5908 14.2502 22.4915 14.2556 22.394 14.2417C22.2965 14.2277 22.2027 14.1947 22.1179 14.1445C22.0332 14.0944 21.9591 14.028 21.9 13.9492C21.448 13.3416 20.8596 12.8486 20.1822 12.5099C19.5048 12.1712 18.7574 11.9963 18 11.9992C17.8526 11.9992 17.7083 11.9557 17.5855 11.8741C17.4626 11.7926 17.3664 11.6766 17.3091 11.5408C17.2702 11.4485 17.2501 11.3493 17.2501 11.2492C17.2501 11.149 17.2702 11.0499 17.3091 10.9576C17.3664 10.8217 17.4626 10.7058 17.5855 10.6242C17.7083 10.5427 17.8526 10.4992 18 10.4992C18.4209 10.4992 18.8332 10.3811 19.1903 10.1584C19.5474 9.93579 19.8349 9.61746 20.0201 9.2396C20.2054 8.86175 20.2809 8.43952 20.2382 8.02087C20.1955 7.60223 20.0363 7.20395 19.7786 6.87127C19.5209 6.5386 19.175 6.28487 18.7803 6.13889C18.3856 5.99292 17.9579 5.96056 17.5458 6.04549C17.1336 6.13042 16.7535 6.32923 16.4487 6.61934C16.1439 6.90945 15.9265 7.27924 15.8213 7.68669C15.7967 7.7821 15.7535 7.87173 15.6942 7.95046C15.635 8.02919 15.5608 8.09547 15.4759 8.14553C15.391 8.19559 15.2971 8.22844 15.1995 8.2422C15.102 8.25596 15.0026 8.25038 14.9072 8.22575C14.8118 8.20113 14.7222 8.15796 14.6435 8.09869C14.5647 8.03943 14.4984 7.96524 14.4484 7.88037C14.3983 7.79549 14.3655 7.70158 14.3517 7.60401C14.338 7.50643 14.3435 7.4071 14.3682 7.31169C14.5142 6.74667 14.7901 6.22353 15.1738 5.7839C15.5576 5.34426 16.0387 5.00026 16.5788 4.77927C17.119 4.55828 17.7032 4.4664 18.2851 4.51094C18.867 4.55548 19.4304 4.73521 19.9306 5.03583C20.4308 5.33645 20.8539 5.74966 21.1663 6.24258C21.4787 6.73551 21.6718 7.29454 21.7301 7.8752C21.7884 8.45586 21.7104 9.04212 21.5023 9.58733C21.2942 10.1325 20.9617 10.6217 20.5313 11.0158C21.5511 11.4573 22.4377 12.158 23.1028 13.0483C23.1619 13.1272 23.2049 13.2171 23.2292 13.3127C23.2535 13.4083 23.2587 13.5078 23.2445 13.6054C23.2303 13.7031 23.197 13.7969 23.1465 13.8816C23.0959 13.9664 23.0292 14.0403 22.95 14.0992ZM17.8988 19.8742C17.9531 19.9596 17.9895 20.055 18.0059 20.1548C18.0223 20.2546 18.0184 20.3567 17.9943 20.455C17.9703 20.5532 17.9266 20.6456 17.8659 20.7265C17.8052 20.8074 17.7288 20.8753 17.6412 20.9259C17.5536 20.9765 17.4567 21.0089 17.3563 21.0211C17.2559 21.0333 17.154 21.025 17.0569 20.9968C16.9597 20.9687 16.8693 20.9211 16.791 20.8571C16.7127 20.793 16.6482 20.7138 16.6013 20.6242C16.1288 19.8242 15.456 19.1612 14.6491 18.7006C13.8422 18.2401 12.9291 17.9978 12 17.9978C11.0709 17.9978 10.1579 18.2401 9.35102 18.7006C8.54412 19.1612 7.87125 19.8242 7.39879 20.6242C7.3519 20.7138 7.28737 20.793 7.20908 20.8571C7.13078 20.9211 7.04034 20.9687 6.94319 20.9968C6.84605 21.025 6.7442 21.0333 6.64379 21.0211C6.54338 21.0089 6.44647 20.9765 6.35889 20.9259C6.27132 20.8753 6.19489 20.8074 6.1342 20.7265C6.07352 20.6456 6.02983 20.5532 6.00576 20.455C5.9817 20.3567 5.97775 20.2546 5.99417 20.1548C6.01059 20.055 6.04702 19.9596 6.10129 19.8742C6.82841 18.6249 7.9371 17.6417 9.26441 17.0692C8.51753 16.4974 7.96863 15.7058 7.69485 14.8059C7.42108 13.906 7.4362 12.9429 7.73808 12.052C8.03997 11.1611 8.61346 10.3872 9.37792 9.83908C10.1424 9.29096 11.0594 8.99619 12 8.99619C12.9407 8.99619 13.8577 9.29096 14.6222 9.83908C15.3866 10.3872 15.9601 11.1611 16.262 12.052C16.5639 12.9429 16.579 13.906 16.3052 14.8059C16.0315 15.7058 15.4825 16.4974 14.7357 17.0692C16.063 17.6417 17.1717 18.6249 17.8988 19.8742ZM12 16.4992C12.5934 16.4992 13.1734 16.3232 13.6667 15.9936C14.1601 15.664 14.5446 15.1954 14.7717 14.6472C14.9987 14.0991 15.0582 13.4959 14.9424 12.9139C14.8266 12.332 14.5409 11.7974 14.1214 11.3779C13.7018 10.9583 13.1673 10.6726 12.5853 10.5568C12.0034 10.4411 11.4002 10.5005 10.852 10.7276C10.3038 10.9546 9.83528 11.3391 9.50563 11.8325C9.17599 12.3258 9.00004 12.9058 9.00004 13.4992C9.00004 14.2948 9.31611 15.0579 9.87872 15.6205C10.4413 16.1831 11.2044 16.4992 12 16.4992ZM6.75004 11.2492C6.75004 11.0503 6.67102 10.8595 6.53037 10.7189C6.38972 10.5782 6.19895 10.4992 6.00004 10.4992C5.57922 10.4992 5.16685 10.3811 4.80976 10.1584C4.45267 9.93579 4.16518 9.61746 3.97994 9.2396C3.79471 8.86175 3.71915 8.43952 3.76185 8.02087C3.80455 7.60223 3.9638 7.20395 4.22152 6.87127C4.47923 6.5386 4.82507 6.28487 5.21976 6.13889C5.61445 5.99292 6.04216 5.96056 6.45432 6.04549C6.86648 6.13042 7.24656 6.32923 7.55139 6.61934C7.85622 6.90945 8.07359 7.27924 8.17879 7.68669C8.22852 7.87939 8.35276 8.04444 8.52418 8.14553C8.6956 8.24662 8.90016 8.27548 9.09285 8.22575C9.28555 8.17603 9.4506 8.05179 9.55169 7.88037C9.65279 7.70895 9.68164 7.50439 9.63192 7.31169C9.48589 6.74667 9.21002 6.22353 8.82624 5.7839C8.44246 5.34426 7.96137 5.00026 7.42125 4.77927C6.88112 4.55828 6.29688 4.4664 5.715 4.51094C5.13312 4.55548 4.56967 4.73521 4.06947 5.03583C3.56928 5.33645 3.14614 5.74966 2.83375 6.24258C2.52135 6.73551 2.32831 7.29454 2.26998 7.8752C2.21165 8.45586 2.28965 9.04212 2.49777 9.58733C2.70589 10.1325 3.03838 10.6217 3.46879 11.0158C2.44999 11.4577 1.56446 12.1584 0.90004 13.0483C0.780569 13.2074 0.729204 13.4075 0.757247 13.6045C0.785289 13.8015 0.890442 13.9793 1.04957 14.0987C1.2087 14.2182 1.40877 14.2696 1.60577 14.2415C1.80278 14.2135 1.98057 14.1083 2.10004 13.9492C2.55209 13.3416 3.14049 12.8486 3.81788 12.5099C4.49526 12.1712 5.24271 11.9963 6.00004 11.9992C6.19895 11.9992 6.38972 11.9202 6.53037 11.7795C6.67102 11.6389 6.75004 11.4481 6.75004 11.2492Z" fill="currentColor"/>
</svg>
