<svg  viewBox="0 0 16 16"  xmlns="http://www.w3.org/2000/svg">
<path d="M11.7232 9.0525L9.72322 8.0525C9.64449 8.01327 9.55681 7.9955 9.46902 8.00099C9.38123 8.00647 9.29644 8.03502 9.22322 8.08375L8.30509 8.69625C7.88362 8.46456 7.53679 8.11772 7.30509 7.69625L7.91759 6.77812C7.96632 6.7049 7.99487 6.62011 8.00035 6.53232C8.00584 6.44453 7.98807 6.35685 7.94884 6.27812L6.94884 4.27813C6.90739 4.19442 6.84333 4.124 6.7639 4.07484C6.68448 4.02568 6.59287 3.99976 6.49947 4C5.83642 4 5.20054 4.26339 4.7317 4.73223C4.26286 5.20107 3.99947 5.83696 3.99947 6.5C4.00112 7.95818 4.58111 9.35617 5.61221 10.3873C6.6433 11.4184 8.04128 11.9983 9.49947 12C9.82777 12 10.1529 11.9353 10.4562 11.8097C10.7595 11.6841 11.0351 11.4999 11.2672 11.2678C11.4994 11.0356 11.6835 10.76 11.8092 10.4567C11.9348 10.1534 11.9995 9.8283 11.9995 9.5C11.9995 9.40711 11.9737 9.31604 11.9249 9.237C11.8761 9.15795 11.8063 9.09407 11.7232 9.0525ZM9.49947 11C8.3064 10.9987 7.16257 10.5241 6.31895 9.68052C5.47532 8.83689 5.00079 7.69307 4.99947 6.5C4.99937 6.1532 5.11944 5.81708 5.33925 5.54884C5.55907 5.2806 5.86503 5.09681 6.20509 5.02875L6.92259 6.46625L6.31197 7.375C6.26634 7.44345 6.2383 7.52209 6.23034 7.60397C6.22238 7.68585 6.23475 7.76842 6.26634 7.84438C6.62408 8.69461 7.30048 9.37101 8.15072 9.72875C8.2269 9.76175 8.3101 9.77525 8.39281 9.76805C8.47552 9.76085 8.55513 9.73317 8.62447 9.6875L9.53759 9.07875L10.9751 9.79625C10.9065 10.1367 10.7219 10.4428 10.4528 10.6623C10.1837 10.8819 9.84675 11.0012 9.49947 11ZM7.99947 1.5C6.87726 1.49976 5.7741 1.79006 4.79737 2.34264C3.82065 2.89523 3.00362 3.69128 2.42582 4.65331C1.84803 5.61534 1.52914 6.71058 1.50021 7.83241C1.47127 8.95425 1.73328 10.0645 2.26072 11.055L1.55134 13.1831C1.49258 13.3593 1.48405 13.5484 1.52671 13.7292C1.56937 13.9099 1.66154 14.0753 1.79287 14.2066C1.92421 14.3379 2.08952 14.4301 2.2703 14.4728C2.45107 14.5154 2.64014 14.5069 2.81634 14.4481L4.94447 13.7388C5.8162 14.2024 6.7821 14.4614 7.76886 14.496C8.75562 14.5306 9.7373 14.34 10.6394 13.9386C11.5415 13.5372 12.3402 12.9355 12.9751 12.1793C13.6099 11.4231 14.0642 10.5322 14.3033 9.57421C14.5424 8.61624 14.5602 7.61638 14.3552 6.65052C14.1502 5.68467 13.7279 4.77821 13.1202 3.99995C12.5126 3.22169 11.7357 2.59208 10.8484 2.15891C9.96113 1.72574 8.98683 1.50041 7.99947 1.5ZM7.99947 13.5C7.03258 13.5007 6.08265 13.246 5.24572 12.7619C5.18444 12.7263 5.11631 12.7042 5.04584 12.697C4.97537 12.6898 4.90418 12.6976 4.83697 12.72L2.49947 13.5L3.27884 11.1625C3.30131 11.0953 3.30925 11.0242 3.30214 10.9537C3.29502 10.8832 3.27302 10.8151 3.23759 10.7537C2.63132 9.70557 2.38791 8.48661 2.54511 7.28598C2.70231 6.08534 3.25134 4.97014 4.10702 4.11337C4.9627 3.2566 6.07721 2.70617 7.27765 2.54745C8.47809 2.38873 9.69735 2.63061 10.7463 3.23555C11.7952 3.8405 12.6152 4.77469 13.0791 5.89322C13.5429 7.01175 13.6246 8.25208 13.3116 9.42181C12.9986 10.5915 12.3083 11.6253 11.3478 12.3626C10.3873 13.1 9.21035 13.4998 7.99947 13.5Z" fill="currentColor"/>
</svg>
