<svg  viewBox="0 0 24 24"  xmlns="http://www.w3.org/2000/svg">
<path d="M14.6279 19.5C14.6279 19.6989 14.5489 19.8897 14.4082 20.0303C14.2676 20.171 14.0768 20.25 13.8779 20.25H11.2529C11.054 20.25 10.8632 20.171 10.7226 20.0303C10.5819 19.8897 10.5029 19.6989 10.5029 19.5V14.25C10.5029 14.0511 10.5819 13.8603 10.7226 13.7197C10.8632 13.579 11.054 13.5 11.2529 13.5C11.4518 13.5 11.6426 13.579 11.7832 13.7197C11.9239 13.8603 12.0029 14.0511 12.0029 14.25V18.75H13.8779C14.0768 18.75 14.2676 18.829 14.4082 18.9697C14.5489 19.1103 14.6279 19.3011 14.6279 19.5ZM8.68885 13.6397C8.60871 13.5824 8.51807 13.5415 8.42211 13.5193C8.32616 13.4971 8.22677 13.494 8.12961 13.5102C8.03246 13.5264 7.93944 13.5615 7.85588 13.6137C7.77232 13.6658 7.69985 13.7339 7.6426 13.8141L6.37791 15.585L5.11323 13.8141C5.05802 13.7291 4.98617 13.6562 4.90202 13.5998C4.81788 13.5434 4.72317 13.5046 4.62362 13.4858C4.52407 13.467 4.42175 13.4686 4.32281 13.4904C4.22388 13.5122 4.1304 13.5538 4.048 13.6128C3.96561 13.6717 3.89601 13.7468 3.8434 13.8333C3.7908 13.9199 3.75628 14.0163 3.74193 14.1166C3.72759 14.2168 3.73371 14.319 3.75992 14.4169C3.78614 14.5147 3.83191 14.6063 3.89448 14.6859L5.45635 16.875L3.8926 19.0641C3.78736 19.226 3.74864 19.4223 3.78449 19.612C3.82035 19.8018 3.92802 19.9704 4.08508 20.0828C4.24215 20.1951 4.4365 20.2426 4.62767 20.2152C4.81884 20.1879 4.99209 20.0878 5.11135 19.9359L6.37791 18.165L7.6426 19.9359C7.76186 20.0878 7.93512 20.1879 8.12629 20.2152C8.31746 20.2426 8.51181 20.1951 8.66887 20.0828C8.82594 19.9704 8.93361 19.8018 8.96946 19.612C9.00531 19.4223 8.96659 19.226 8.86135 19.0641L7.29948 16.875L8.86323 14.6859C8.92048 14.6058 8.96138 14.5152 8.9836 14.4192C9.00582 14.3232 9.00892 14.2239 8.99273 14.1267C8.97654 14.0295 8.94137 13.9365 8.88923 13.853C8.83709 13.7694 8.769 13.6969 8.68885 13.6397ZM17.9645 16.0603C17.5895 15.9516 17.2014 15.84 16.9848 15.7003C16.8676 15.6234 16.8695 15.6066 16.8798 15.5222C16.8812 15.454 16.899 15.3872 16.9316 15.3273C16.9642 15.2674 17.0108 15.2163 17.0673 15.1781C17.4985 14.8856 18.5054 15.0169 18.9254 15.1256C19.1179 15.1762 19.3225 15.1483 19.4944 15.048C19.6662 14.9477 19.7912 14.7832 19.8418 14.5908C19.8924 14.3983 19.8645 14.1937 19.7642 14.0218C19.6639 13.8499 19.4994 13.725 19.307 13.6744C19.1092 13.6228 17.3382 13.185 16.2292 13.9331C15.9953 14.0911 15.799 14.2986 15.654 14.5407C15.509 14.7829 15.4189 15.0539 15.3901 15.3347C15.2026 16.8234 16.6698 17.2481 17.5464 17.5012C18.677 17.8284 18.7764 17.9625 18.7445 18.2128C18.7154 18.4388 18.6264 18.525 18.5429 18.5812C18.1117 18.8681 17.1217 18.7266 16.711 18.6141C16.519 18.5607 16.3136 18.5859 16.14 18.684C16.0541 18.7326 15.9786 18.7976 15.9178 18.8753C15.857 18.9531 15.8121 19.0421 15.7857 19.1372C15.7593 19.2323 15.7519 19.3317 15.7639 19.4296C15.7759 19.5276 15.8071 19.6223 15.8557 19.7082C15.9538 19.8817 16.1168 20.0092 16.3089 20.0625C16.7737 20.185 17.2522 20.248 17.7329 20.25C18.2785 20.25 18.886 20.1562 19.3726 19.8319C19.6126 19.6722 19.8143 19.4614 19.9631 19.2145C20.1119 18.9676 20.2042 18.6909 20.2332 18.4041C20.4404 16.7812 18.8917 16.3284 17.9645 16.0603ZM3.75291 10.5V3.75C3.75291 3.35218 3.91095 2.97064 4.19225 2.68934C4.47356 2.40804 4.85509 2.25 5.25291 2.25H14.2529C14.3514 2.24992 14.449 2.26926 14.5401 2.3069C14.6311 2.34454 14.7138 2.39975 14.7835 2.46938L20.0335 7.71938C20.1032 7.78908 20.1584 7.87182 20.196 7.96286C20.2337 8.05391 20.253 8.15148 20.2529 8.25V10.5C20.2529 10.6989 20.1739 10.8897 20.0332 11.0303C19.8926 11.171 19.7018 11.25 19.5029 11.25C19.304 11.25 19.1132 11.171 18.9726 11.0303C18.8319 10.8897 18.7529 10.6989 18.7529 10.5V9H14.2529C14.054 9 13.8632 8.92098 13.7226 8.78033C13.5819 8.63968 13.5029 8.44891 13.5029 8.25V3.75H5.25291V10.5C5.25291 10.6989 5.1739 10.8897 5.03324 11.0303C4.89259 11.171 4.70183 11.25 4.50291 11.25C4.304 11.25 4.11324 11.171 3.97258 11.0303C3.83193 10.8897 3.75291 10.6989 3.75291 10.5ZM15.0029 7.5H17.6917L15.0029 4.81031V7.5Z" fill="currentColor"/>
</svg>
