<svg viewBox="0 0 76 24"  xmlns="http://www.w3.org/2000/svg">
<path d="M26.3702 14.6525C27.955 14.6525 29.2896 15.242 30.2905 16.4209C31.2914 17.5999 31.6251 18.9472 31.208 20.463C30.9578 21.4736 30.3739 22.3157 29.373 22.9894C28.4555 23.6631 27.3711 23.9157 26.2868 23.9157C25.2858 23.9157 24.3683 23.6631 23.5342 23.1578C22.7001 22.6525 22.1162 21.9788 21.6991 21.2209C21.4489 20.7999 21.5323 20.3788 21.7825 19.9578C22.1162 19.5367 22.5332 19.3683 23.0337 19.3683C23.6176 19.3683 24.1181 19.6209 24.3683 20.2104C24.7019 20.8841 25.3692 21.3052 26.2033 21.3052H26.2868C26.8706 21.3052 27.4545 21.0525 27.8716 20.6315C28.2886 20.2104 28.4554 19.7051 28.372 19.1157C28.2886 18.6104 28.0384 18.2736 27.6213 17.9367C27.2043 17.5999 26.7872 17.5157 26.2033 17.5157C24.7019 17.5157 23.5342 16.9262 22.6166 15.8314C21.6991 14.7367 21.4489 13.4735 21.8659 12.1262C22.1162 11.1998 22.7001 10.5261 23.5342 9.93667C24.3683 9.3472 25.2858 9.09456 26.3702 9.09456C28.2052 9.09456 29.5398 9.85246 30.3739 11.284C30.6241 11.7051 30.6241 12.2104 30.3739 12.6314C30.1237 13.0525 29.6232 13.3051 29.1227 13.3051C28.5389 13.3051 28.1218 13.0525 27.7882 12.5472C27.4545 12.0419 27.0375 11.7893 26.3702 11.7893C25.9531 11.7893 25.6195 11.8735 25.2858 12.1262C24.9522 12.3788 24.7853 12.6314 24.7019 12.9683C24.6185 13.4735 24.7019 13.8946 25.0356 14.2314C25.4526 14.4841 25.8697 14.6525 26.3702 14.6525Z" fill="currentColor"/>
<path d="M21.3541 15.1581C21.3541 15.6633 21.1873 16.0844 20.9371 16.5054C20.4366 17.4318 19.6859 17.8528 18.6016 17.8528H11.9286C11.9286 18.7791 12.2623 19.537 12.9296 20.2107C13.5969 20.8844 14.3476 21.137 15.2651 21.137H15.3485C16.4329 21.137 17.3504 20.716 18.0177 19.7897C18.4347 19.2844 18.9352 19.116 19.5191 19.3686C19.9361 19.537 20.2698 19.7897 20.3532 20.2107C20.52 20.6318 20.4366 21.0528 20.1864 21.3897C19.0186 22.9897 17.3504 23.8318 15.3485 23.8318H15.2651C13.5969 23.8318 12.2623 23.2423 11.0945 22.0634C9.92678 20.8844 9.3429 19.537 9.3429 17.8528V15.1581C9.3429 13.4738 9.92678 12.1265 11.0945 10.9475C12.2623 9.76856 13.6803 9.17908 15.3485 9.17908H15.4319C17.1002 9.17908 18.5182 9.76856 19.6859 10.9475C20.2698 11.537 20.6868 12.2107 20.9371 12.8844C21.1039 13.3054 21.1873 13.7265 21.2707 14.1475C21.3541 14.4844 21.3541 14.6528 21.3541 14.6528C21.3541 14.6528 21.3541 14.737 21.3541 15.1581ZM12.0121 15.1581H18.685C18.685 14.2317 18.3513 13.4738 17.684 12.8002C17.0167 12.1265 16.266 11.7896 15.3485 11.7896H15.2651C14.3476 11.7896 13.5969 12.1265 12.9296 12.8002C12.2623 13.4738 12.0121 14.2317 12.0121 15.1581Z" fill="currentColor"/>
<path d="M49.5494 3.36739C49.883 3.36739 50.2167 3.53582 50.4669 3.78845C50.7171 4.04108 50.884 4.37793 50.884 4.71477V22.4833C50.884 22.8201 50.7171 23.157 50.4669 23.4938C50.2167 23.7465 49.883 23.9149 49.5494 23.9149C48.8821 23.9149 48.3816 23.578 48.2982 22.9044C47.2973 23.578 46.2129 23.9149 44.9618 23.9149H44.8783C43.2101 23.9149 41.7921 23.3254 40.6244 22.1465C39.4566 20.9675 38.8727 19.5359 38.8727 17.8517V15.0727C38.8727 13.3885 39.4566 11.9569 40.6244 10.778C41.7921 9.59901 43.2101 9.00953 44.8783 9.00953H44.9618C46.1295 9.00953 47.2139 9.34638 48.2148 10.0201V4.71477C48.2148 4.37793 48.3816 4.04108 48.6319 3.78845C48.7987 3.53582 49.1323 3.36739 49.5494 3.36739ZM48.2148 15.0727C48.2148 14.1464 47.8811 13.3885 47.2139 12.7148C46.5466 12.0411 45.7959 11.7043 44.8783 11.7043H44.7949C43.8774 11.7043 43.1267 12.0411 42.4594 12.7148C41.7921 13.3885 41.4585 14.1464 41.4585 15.0727V17.8517C41.4585 18.778 41.7921 19.5359 42.4594 20.2096C43.1267 20.8833 43.8774 21.1359 44.7949 21.1359H44.8783C45.7959 21.1359 46.5466 20.7991 47.2139 20.2096C47.8811 19.5359 48.2148 18.778 48.2148 17.8517V15.0727Z" fill="currentColor"/>
<path d="M63.4818 15.1581C63.4818 15.6633 63.3984 16.0844 63.1481 16.5054C62.6477 17.4318 61.897 17.8528 60.8126 17.8528H54.1397C54.1397 18.7791 54.4734 19.537 55.1407 20.2107C55.8079 20.8844 56.5586 21.137 57.4762 21.137H57.5596C58.6439 21.137 59.5615 20.716 60.2287 19.7897C60.6458 19.2844 61.1463 19.116 61.7302 19.3686C62.1472 19.537 62.4809 19.7897 62.5643 20.2107C62.7311 20.6318 62.6477 21.0528 62.3974 21.3897C61.2297 22.9897 59.5615 23.8318 57.5596 23.8318H57.4762C55.8079 23.8318 54.4734 23.2423 53.3056 22.0634C52.1378 20.8844 51.554 19.537 51.554 17.8528V15.1581C51.554 13.4738 52.1378 12.1265 53.3056 10.9475C54.4734 9.76856 55.8914 9.17908 57.5596 9.17908H57.643C59.3112 9.17908 60.7292 9.76856 61.897 10.9475C62.4809 11.537 62.8979 12.2107 63.1481 12.8844C63.315 13.3054 63.3984 13.7265 63.4818 14.1475C63.5652 14.4844 63.5652 14.6528 63.5652 14.6528C63.5652 14.6528 63.4818 14.737 63.4818 15.1581ZM54.0563 15.1581H60.7292C60.7292 14.2317 60.3956 13.4738 59.7283 12.8002C59.1444 12.1265 58.3937 11.7896 57.4762 11.7896H57.3928C56.4752 11.7896 55.7245 12.1265 55.0572 12.8002C54.3899 13.4738 54.0563 14.2317 54.0563 15.1581Z" fill="currentColor"/>
<path d="M74.6654 9.09465C74.9991 9.09465 75.3327 9.26307 75.5829 9.51571C75.8332 9.76834 76 10.1052 76 10.442V22.5684C76 22.9053 75.8332 23.2421 75.5829 23.5789C75.3327 23.8316 74.9991 24 74.6654 24C73.9981 24 73.4977 23.6632 73.4142 22.9895C72.4133 23.6632 71.329 24 70.0778 24H69.9944C68.3261 24 66.9082 23.4105 65.7404 22.2316C64.5726 21.0526 63.9888 19.621 63.9888 17.9368V15.1578C63.9888 13.4736 64.5726 12.042 65.7404 10.8631C66.9082 9.68413 68.3261 9.09465 69.9944 9.09465H70.0778C71.2456 9.09465 72.4133 9.4315 73.4142 10.1052C73.5811 9.4315 73.9981 9.09465 74.6654 9.09465ZM73.3308 15.0736C73.3308 14.1473 72.9972 13.3894 72.3299 12.7157C71.746 12.1262 70.9953 11.7894 70.0778 11.7894H69.9944C69.0769 11.7894 68.3261 12.1262 67.6589 12.7999C66.9916 13.4736 66.6579 14.2315 66.6579 15.1578V17.9368C66.6579 18.8631 66.9916 19.621 67.6589 20.2947C68.3261 20.9684 69.0769 21.221 69.9944 21.221H70.0778C70.9953 21.221 71.746 20.8842 72.4133 20.2947C73.0806 19.621 73.4142 18.8631 73.4142 17.9368V15.0736H73.3308Z" fill="currentColor"/>
<path d="M36.7881 23.8332C37.7056 23.8332 38.4563 23.0753 38.4563 22.149C38.4563 21.2226 37.7056 20.4647 36.7881 20.4647C35.8706 20.4647 35.1199 21.2226 35.1199 22.149C35.1199 23.1595 35.8706 23.8332 36.7881 23.8332Z" fill="currentColor"/>
<path d="M37.7081 3.78845C37.9583 4.04108 38.1251 4.37793 38.1251 4.71477V16.8412C38.1251 17.178 37.9583 17.5148 37.7081 17.7675C37.4578 18.0201 37.1242 18.1885 36.7905 18.1885C36.4569 18.1885 36.1232 18.0201 35.873 17.7675C35.6228 17.5148 35.456 17.178 35.456 16.8412V4.79898C35.456 4.46214 35.6228 4.12529 35.873 3.87266C36.1232 3.53581 36.3735 3.36739 36.7905 3.36739C37.1242 3.36739 37.4578 3.53582 37.7081 3.78845Z" fill="currentColor"/>
<path d="M6.4293 3.36844C7.34682 3.36844 8.09752 2.61054 8.09752 1.68422C8.09752 0.757899 7.34682 0 6.4293 0C5.51177 0 4.76107 0.757899 4.76107 1.68422C4.76107 2.61054 5.51177 3.36844 6.4293 3.36844Z" fill="currentColor"/>
<path d="M12.7695 3.11404C12.6861 2.7772 12.4358 2.44036 12.1022 2.27193C11.7685 2.10351 11.4349 2.0193 11.0178 2.18772C10.6842 2.27193 10.3505 2.52457 10.1837 2.86141L6.4302 10.1036L2.67669 2.94562C2.50986 2.60878 2.17622 2.35615 1.84257 2.27193C1.42551 2.10351 1.09187 2.10351 0.758224 2.35615C0.424578 2.52457 0.174344 2.7772 0.0909326 3.11404C-0.0758902 3.5351 0.0075212 3.87194 0.174344 4.20879L4.92879 13.472V22.3984C4.92879 22.8194 5.09562 23.1563 5.34585 23.4089C5.59609 23.6615 6.01314 23.83 6.34679 23.83C6.76384 23.83 7.09749 23.6615 7.34772 23.4089C7.59796 23.1563 7.76478 22.8194 7.76478 22.3984V13.472L12.5192 4.20879C12.8529 3.87194 12.8529 3.5351 12.7695 3.11404Z" fill="currentColor"/>
</svg>
