<svg width="24" height="24" viewBox="0 0 24 24" fill="none" xmlns="http://www.w3.org/2000/svg">
<g clip-path="url(#clip0_990_33571)">
<path d="M0 0H24V24H0V0Z" fill="#3F9C35"/>
<path d="M0 0H24V15.9984H0V0Z" fill="#ED2939"/>
<path d="M0 0H24V8.00156H0V0Z" fill="#00B9E4"/>
<path d="M11.1938 15.5999C13.182 15.5999 14.7938 13.9881 14.7938 11.9999C14.7938 10.0117 13.182 8.3999 11.1938 8.3999C9.20552 8.3999 7.59375 10.0117 7.59375 11.9999C7.59375 13.9881 9.20552 15.5999 11.1938 15.5999Z" fill="white"/>
<path d="M11.9954 15C13.6522 15 14.9954 13.6569 14.9954 12C14.9954 10.3431 13.6522 9 11.9954 9C10.3385 9 8.99536 10.3431 8.99536 12C8.99536 13.6569 10.3385 15 11.9954 15Z" fill="#ED2939"/>
<path d="M15.1969 9.99854L15.5766 11.0767L16.6078 10.5845L16.1203 11.6157L17.1984 12.0001L16.1203 12.3845L16.6078 13.4157L15.5766 12.9235L15.1969 14.0017L14.8125 12.9235L13.7812 13.4157L14.2734 12.3845L13.1953 12.0001L14.2734 11.6157L13.7812 10.5845L14.8125 11.0767L15.1969 9.99854Z" fill="white"/>
</g>
<defs>
<clipPath id="clip0_990_33571">
<rect width="24" height="24" rx="6" fill="white"/>
</clipPath>
</defs>
</svg>
