<svg width="24" height="24" viewBox="0 0 24 24" fill="none" xmlns="http://www.w3.org/2000/svg">
<g clip-path="url(#clip0_990_33572)">
<mask id="mask0_990_33572" style="mask-type:luminance" maskUnits="userSpaceOnUse" x="0" y="0" width="24" height="24">
<path d="M0 0H23.994V23.994H0V0Z" fill="white"/>
</mask>
<g mask="url(#mask0_990_33572)">
<path fill-rule="evenodd" clip-rule="evenodd" d="M0 0H47.9928V15.9396H0V0Z" fill="#B20000"/>
<path fill-rule="evenodd" clip-rule="evenodd" d="M0 15.9395H47.9928V23.9987H0V15.9395Z" fill="#429F00"/>
<path fill-rule="evenodd" clip-rule="evenodd" d="M0 0H5.31158V23.994H0V0Z" fill="white"/>
<path fill-rule="evenodd" clip-rule="evenodd" d="M0.25155 0.40635H0.507938V0.8127H0.25155V0.40635ZM1.01104 0.40635H1.77052V0.8127H1.01588L1.01104 0.40635ZM1.26259 0H1.51898V0.40635H1.25775L1.26259 0ZM2.53001 0H2.78156V0.40635H2.53001V0ZM3.54589 0.40635H4.30054V0.8127H3.54105L3.54589 0.40635ZM3.7926 0H4.04415V0.40635H3.7926V0ZM0.759488 0.8127H1.26743V1.21905H0.759488V0.8127ZM1.51898 0.8127H2.02691V1.21905H1.51898V0.8127ZM3.2895 0.8127H3.79744V1.21905H3.2895V0.8127ZM4.04899 0.8127H4.54725V1.21905H4.05383L4.04899 0.8127ZM0.507938 1.21905H1.01104V1.6254H0.507938V1.21905ZM1.77052 1.21905H2.27846V1.6254H1.77052V1.21905ZM3.03795 1.21905H3.54105V1.6254H3.03795V1.21905ZM4.30054 1.21905H4.80848V1.6254H4.30054V1.21905ZM4.80848 0.40635H5.06003V0.8127H4.80848V0.40635ZM0.25155 1.6254H0.759488V2.03175H0.25155V1.6254ZM2.02208 1.6254H2.53001V2.03175H2.02208V1.6254ZM4.55693 1.6254H5.06003V2.03175H4.55693V1.6254ZM0.507938 2.85413H1.01104V3.26048H0.507938V2.85413ZM0.759488 3.26048H1.26743V3.66683H0.759488V3.26048ZM1.77536 2.85413H2.27363V3.26048H1.77052L1.77536 2.85413ZM1.51898 3.26048H2.02208V3.66683H1.51898V3.26048ZM1.01104 3.66683H1.77052V4.0635H1.01588L1.01104 3.66683ZM1.26259 4.0635H1.51898V4.47469H1.25775L1.26259 4.0635ZM3.03795 2.84445H3.54105V3.25564H3.03795V2.84445ZM3.2895 3.25564H3.79744V3.66199H3.2895V3.25564ZM4.30538 2.84929H4.80848V3.25564H4.30054L4.30538 2.84929ZM4.04899 3.25564H4.54725V3.66199H4.05383L4.04899 3.25564ZM3.54105 3.66199H4.30538V4.0635H3.54105V3.66199ZM3.79744 4.0635H4.04899V4.47469H3.79744V4.0635ZM2.53001 3.66199H2.78156V4.0635H2.53001V3.66199ZM0 3.66199H0.25155V4.0635H0V3.66199ZM5.06003 3.66199H5.31158V4.0635H5.06003V3.66199ZM1.26259 5.69374H1.51898V6.10009H1.25775L1.26259 5.69374ZM1.01104 6.10009H1.77052V6.50644H1.01588L1.01104 6.10009ZM0.759488 6.50644H2.02691V6.91279H0.759488V6.50644ZM3.79744 5.69374H4.04899V6.10009H3.79744V5.69374Z" fill="#B20000"/>
<path fill-rule="evenodd" clip-rule="evenodd" d="M3.54105 6.09998H4.30538V6.50633H3.54105V6.09998ZM3.2895 6.50633H4.55209V6.91268H3.2895V6.50633ZM3.54105 8.53808H4.80848V8.94926H3.54105V8.53808ZM3.03795 6.91751H4.80848V7.32386H3.03795V6.91751ZM0.507938 6.91751H2.27363V7.32386H0.507938V6.91751ZM0.759488 8.94926H1.51898V9.36045H0.759488V8.94926ZM0.507938 8.54775H1.77052V8.9541H0.507938V8.54775ZM4.04899 7.73021H5.31158V8.1414H4.05383L4.04899 7.73021ZM3.79744 8.94926H4.55693V9.35561H3.79744V8.94926ZM1.01104 9.35561H1.26743V9.76196H1.01104V9.35561ZM4.04899 9.35561H4.30054V9.76196H4.04899V9.35561ZM0 7.72538H1.26743V8.13656H0V7.72538ZM2.27363 8.54291H3.03795V8.94926H2.27363V8.54291ZM2.53001 8.94926H2.78156V9.35561H2.53001V8.94926ZM1.77052 7.72538H3.54105V8.13656H1.77052V7.72538ZM2.7864 1.63013H3.2895V2.03164H2.78156L2.7864 1.63013ZM2.27363 2.03164H3.03311V2.43799H2.27363V2.03164ZM2.01724 2.43799H2.52518V2.84434H2.02208L2.01724 2.43799ZM2.77673 2.43799H3.2895V2.84434H2.78156L2.77673 2.43799ZM0 2.03164H0.507938V2.43799H0V2.03164ZM0.25155 2.43799H0.759488V2.84434H0.25155V2.43799ZM4.80848 2.03164H5.31158V2.43799H4.80848V2.03164ZM4.54725 2.43799H5.05519V2.84434H4.55693L4.54725 2.43799ZM0 6.09998H0.25155V6.50633H0V6.09998ZM5.06003 6.09998H5.31158V6.50633H5.06003V6.09998ZM2.27846 9.35561H3.03795V9.76196H2.27363L2.27846 9.35561ZM2.02208 9.76196H2.53001V10.1683H2.02208V9.76196ZM2.78156 9.76196H3.2895V10.1683H2.78156V9.76196ZM1.77052 10.1683H2.27846V10.5747H1.77052V10.1683ZM3.03795 10.1683H3.54105V10.5747H3.03795V10.1683ZM1.51898 10.5747H2.02691V10.981H1.51898V10.5747ZM3.2895 10.5747H3.79744V10.981H3.2895V10.5747ZM1.26259 10.981H1.77052V11.3874H1.26259V10.981ZM3.54105 10.981H4.04899V11.3874H3.54105V10.981ZM0.759488 11.3874H1.51898V11.7937H0.759488V11.3874ZM3.79744 11.3874H4.55693V11.7937H3.79744V11.3874ZM4.30054 10.981H4.80848V11.3874H4.30054V10.981ZM4.55693 10.5747H5.06003V10.981H4.55693V10.5747ZM4.80848 10.1683H5.31158V10.5747H4.80848V10.1683ZM0.5031 10.981H1.01588V11.3874H0.507938L0.5031 10.981ZM0.25155 10.5747H0.759488V10.981H0.25155V10.5747Z" fill="#B20000"/>
<path fill-rule="evenodd" clip-rule="evenodd" d="M0 10.1685H0.507938V10.5748H0V10.1685ZM1.01588 11.7939H1.26743V12.2002H1.01104L1.01588 11.7939ZM4.04899 11.7939H4.30054V12.2002H4.04899V11.7939ZM2.53001 10.5748H2.78156V10.9812H2.53001V10.5748ZM1.77052 11.7939H2.02208V12.2002H1.77052V11.7939ZM3.2895 11.7939H3.54105V12.2002H3.2895V11.7939ZM2.53001 11.7939H2.78156V12.2002H2.53001V11.7939ZM0 11.7939H0.25155V12.2002H0V11.7939ZM5.06003 11.7939H5.31158V12.2002H5.06003V11.7939ZM2.53001 6.10012H2.78156V6.50647H2.53001V6.10012ZM1.26743 2.03662H1.51898V2.43813H1.26743V2.03662ZM3.79744 2.03662H4.04899V2.43813H3.79744V2.03662ZM2.27363 4.87623H3.03311V5.28258H2.27363V4.87623ZM1.77052 5.28742H2.53001V5.69377H1.77052V5.28742Z" fill="#B20000"/>
<path fill-rule="evenodd" clip-rule="evenodd" d="M2.02202 5.69376H2.27841V6.10011H2.02202V5.69376ZM1.51892 4.88106H2.02686V5.28741H1.51892V4.88106ZM1.77047 4.47471H2.52996V4.88106H1.77047V4.47471ZM2.02202 4.06836H2.27841V4.47471H2.02202V4.06836ZM2.78151 4.47471H3.541V4.88106H2.78151V4.47471ZM3.0379 4.06836H3.28945V4.47471H3.0379V4.06836ZM3.28945 4.88106H3.79738V5.28741H3.28945V4.88106ZM2.78151 5.28741H3.541V5.69376H2.78151V5.28741ZM3.0379 5.69376H3.28945V6.10011H3.0379V5.69376ZM4.04893 4.88106H4.55687V5.28741H4.04893V4.88106ZM4.30048 4.47471H5.05997V4.88106H4.30532L4.30048 4.47471ZM4.80842 4.88106H5.31152V5.28741H4.80842V4.88106Z" fill="#B20000"/>
<path fill-rule="evenodd" clip-rule="evenodd" d="M4.30538 5.28741H5.06002V5.69376H4.30538V5.28741ZM4.55692 5.69376H4.80848V6.10011H4.55692V5.69376ZM4.55692 4.06836H4.80848V4.47471H4.55692V4.06836ZM0 4.88106H0.507937V5.28741H0V4.88106ZM0.25155 4.47471H1.01587V4.88106H0.25155V4.47471ZM0.759488 4.88106H1.26743V5.28741H0.759488V4.88106Z" fill="#B20000"/>
<path fill-rule="evenodd" clip-rule="evenodd" d="M0.25155 5.28741H1.01588V5.69376H0.25155V5.28741ZM0.507938 5.69376H0.759488V6.10011H0.507938V5.69376ZM0.507938 4.06836H0.759488V4.47471H0.507938V4.06836ZM0.25155 7.31916H1.26743V7.72551H0.25155V7.31916ZM1.51898 7.31916H2.53485V7.72551H1.51898V7.31916ZM2.78156 7.31916H3.79744V7.72551H2.78156V7.31916ZM4.04899 7.31916H5.06486V7.72551H4.04899V7.31916ZM2.02208 8.13186H3.2895V8.54305H2.02208V8.13186ZM0.25155 8.13186H1.51898V8.54305H0.25155V8.13186ZM3.79744 8.13186H5.06003V8.54305H3.79744V8.13186ZM5.06003 9.7621H5.31158V10.1684H5.06003V9.7621ZM0 9.7621H0.25155V10.1684H0V9.7621ZM0.25155 23.5925H0.507938V23.1813H0.25155V23.5925ZM1.01104 23.5925H1.77052V23.1813H1.01588L1.01104 23.5925ZM1.26259 23.994H1.51898V23.5925H1.25775L1.26259 23.994ZM2.53001 23.994H2.78156V23.5925H2.53001V23.994ZM3.54589 23.5925H4.30054V23.1862H3.54105L3.54589 23.5925ZM3.79744 23.994H4.04899V23.5925H3.79744V23.994ZM0.759488 23.1813H1.26743V22.775H0.759488V23.1813ZM1.51898 23.1813H2.02691V22.775H1.51898V23.1813ZM3.2895 23.1813H3.79744V22.775H3.2895V23.1813ZM4.04899 23.1813H4.54725V22.775H4.05383L4.04899 23.1813ZM1.77536 22.775H2.27363V22.3686H1.77052L1.77536 22.775ZM3.03311 22.775H3.54105V22.3686H3.03795L3.03311 22.775ZM4.30054 22.775H4.80848V22.3686H4.30054V22.775ZM4.80848 23.5925H5.06003V23.1813H4.80848V23.5925ZM0.25155 22.3686H0.759488V21.9623H0.25155V22.3686ZM2.02208 22.3686H2.53001V21.9623H2.02208V22.3686ZM4.55693 22.3686H5.06003V21.9623H4.55693V22.3686ZM0.507938 21.1496H1.01104V20.7432H0.507938V21.1496ZM0.759488 20.7432H1.26743V20.3369H0.759488V20.7432ZM1.77536 21.1496H2.27363V20.7432H1.77052L1.77536 21.1496ZM1.51898 20.7432H2.02208V20.3369H1.51898V20.7432ZM1.01104 20.3369H1.77052V19.9305H1.01588L1.01104 20.3369ZM1.26259 19.9305H1.51898V19.5242H1.25775L1.26259 19.9305ZM3.03795 21.1496H3.54105V20.7432H3.03795V21.1496ZM3.2895 20.7432H3.79744V20.3369H3.2895V20.7432ZM4.30538 21.1496H4.80848V20.7432H4.30054L4.30538 21.1496ZM4.04899 20.7432H4.54725V20.3369H4.05383L4.04899 20.7432ZM3.54105 20.3369H4.30538V19.9305H3.54105V20.3369ZM3.79744 19.9305H4.04899V19.5242H3.79744V19.9305ZM2.53001 20.3369H2.78156V19.9305H2.53001V20.3369ZM0 20.3369H0.25155V19.9305H0V20.3369ZM5.06003 20.3369H5.31158V19.9305H5.06003V20.3369ZM1.26743 18.3051H1.51898V17.8939H1.26743V18.3051Z" fill="#B20000"/>
<path fill-rule="evenodd" clip-rule="evenodd" d="M1.01588 17.8987H1.77052V17.4875H1.01588V17.8987ZM0.759488 17.4875H2.02691V17.0811H0.759488V17.4875ZM3.79744 18.3002H4.04899V17.8987H3.79744V18.3002ZM3.54105 17.8987H4.30538V17.4875H3.54105V17.8987ZM3.2895 17.4875H4.55209V17.0811H3.2895V17.4875ZM3.54105 15.4557H4.80848V15.0494H3.54105V15.4557ZM3.03795 17.0811H4.80848V16.6748H3.03795V17.0811ZM0.507938 17.0811H2.27363V16.6748H0.507938V17.0811ZM0.759488 15.0494H1.51898V14.643H0.759488V15.0494ZM0.507938 15.4557H1.77052V15.0494H0.507938V15.4557ZM4.04899 16.2684H5.31158V15.8669H4.05383L4.04899 16.2684ZM3.79744 15.0494H4.55693V14.643H3.79744V15.0494ZM0 16.2684H1.26743V15.8669H0V16.2684ZM2.27363 15.4557H3.03795V15.0494H2.27363V15.4557ZM2.53001 15.0494H2.78156V14.643H2.53001V15.0494ZM1.77052 16.2684H3.54105V15.8669H1.77052V16.2684ZM2.7864 22.3685H3.2895V21.9622H2.78156L2.7864 22.3685ZM2.27363 21.9622H3.03311V21.5558H2.27363V21.9622ZM2.01724 21.5558H2.52518V21.1495H2.02208L2.01724 21.5558ZM2.77673 21.5558H3.2895V21.1495H2.78156L2.77673 21.5558ZM0 21.9622H0.507938V21.5558H0V21.9622ZM0.25155 21.5558H0.759488V21.1495H0.25155V21.5558ZM4.80848 21.9622H5.31158V21.5558H4.80848V21.9622ZM4.55209 21.5558H5.06003V21.1495H4.55693L4.55209 21.5558ZM0 17.8987H0.25155V17.4923H0V17.8987ZM5.06003 17.8987H5.31158V17.4923H5.06003V17.8987ZM2.02208 14.2415H2.53001V13.8352H2.02208V14.2415ZM2.78156 14.2415H3.2895V13.8352H2.78156V14.2415ZM1.77052 13.8352H2.27846V13.4288H1.77052V13.8352ZM3.03795 13.8352H3.54105V13.4288H3.03795V13.8352ZM1.51898 13.424H2.02208V13.0128H1.51898V13.424ZM3.2895 13.424H3.79744V13.0128H3.2895V13.424ZM1.26259 13.0128H1.77052V12.6113H1.26259V13.0128ZM3.54105 13.0128H4.04899V12.6113H3.54105V13.0128ZM0.759488 12.6113H1.51898V12.2001H0.759488V12.6113ZM3.79744 12.6113H4.55693V12.2001H3.79744V12.6113ZM4.30054 13.0176H4.80848V12.6064H4.30054V13.0176ZM4.55693 13.4191H5.06003V13.0176H4.55693V13.4191ZM4.80848 13.8303H5.31158V13.424H4.80848V13.8303ZM0.5031 13.0176H1.01588V12.6064H0.507938L0.5031 13.0176ZM0.25155 13.4191H0.759488V13.0176H0.25155V13.4191ZM0 13.8352H0.507938V13.4288H0V13.8352ZM1.01588 12.2049H1.26743V11.7986H1.01104L1.01588 12.2049ZM2.53001 13.4288H2.78156V13.0128H2.53001V13.4288ZM2.53001 17.9035H2.78156V17.4923H2.53001V17.9035ZM1.26743 21.967H1.51898V21.5607H1.26743V21.967ZM3.79744 21.967H4.04899V21.5607H3.79744V21.967ZM2.27363 19.1177H3.03311V18.7114H2.27363V19.1177ZM1.76569 18.7114H2.52518V18.305H1.77052L1.76569 18.7114ZM2.01724 18.3002H2.27363V17.8987H2.01724V18.3002ZM1.51414 19.1177H2.01724V18.7114H1.51898L1.51414 19.1177ZM1.77052 19.5241H2.53001V19.1177H1.77052V19.5241ZM2.02208 19.9304H2.27846V19.5241H2.02208V19.9304ZM2.78156 19.5241H3.54105V19.1177H2.78156V19.5241ZM3.03795 19.9304H3.2895V19.5241H3.03795V19.9304ZM3.2895 19.1177H3.79744V18.7114H3.2895V19.1177ZM2.78156 18.7114H3.54105V18.305H2.78156V18.7114ZM3.03795 18.3002H3.2895V17.8987H3.03795V18.3002ZM4.04899 19.1177H4.54725V18.7114H4.05383L4.04899 19.1177ZM4.30054 19.5241H5.06003V19.1177H4.30538L4.30054 19.5241ZM4.80848 19.1177H5.31158V18.7114H4.80848V19.1177ZM4.30054 18.7114H5.06003V18.305H4.30538L4.30054 18.7114ZM4.55693 18.3002H4.80848V17.8987H4.55693V18.3002ZM4.55693 19.9304H4.80848V19.5241H4.55693V19.9304ZM0 19.1177H0.507938V18.7114H0V19.1177Z" fill="#B20000"/>
<path fill-rule="evenodd" clip-rule="evenodd" d="M0.25155 19.5241H1.01588V19.1178H0.25155V19.5241ZM0.759488 19.1178H1.26743V18.7114H0.759488V19.1178ZM0.25155 18.7114H1.01588V18.3051H0.25155V18.7114ZM0.507938 18.3002H0.759488V17.8987H0.507938V18.3002ZM0.507938 19.9305H0.759488V19.5241H0.507938V19.9305ZM0.25155 16.6748H1.26743V16.2685H0.25155V16.6748ZM1.51898 16.6748H2.53485V16.2685H1.51898V16.6748ZM2.78156 16.6748H3.79744V16.2685H2.78156V16.6748ZM4.04899 16.6748H5.06486V16.2685H4.04899V16.6748ZM2.02208 15.867H3.2895V15.4606H2.02208V15.867ZM0.25155 15.867H1.51898V15.4606H0.25155V15.867ZM3.79744 15.867H5.06003V15.4606H3.79744V15.867ZM5.06003 14.2416H5.31158V13.8352H5.06003V14.2416ZM0 14.2367H0.25155V13.8304H0V14.2367ZM2.27363 12.205H2.53001V12.6065H2.27846L2.27363 12.205ZM2.78156 12.205H3.03795V12.6065H2.78156V12.205ZM2.78156 11.3875H3.03795V11.7938H2.78156V11.3875ZM2.27846 11.3875H2.53001V11.7938H2.27846V11.3875ZM0.507938 22.3686H1.01104V22.7749H0.507938V22.3686ZM4.04899 14.6431H4.30054V14.2367H4.04899V14.6431ZM1.01104 14.6431H1.26259V14.2367H1.01588L1.01104 14.6431ZM2.27846 14.2367H3.03795V14.6431H2.27363L2.27846 14.2367Z" fill="#B20000"/>
</g>
</g>
<defs>
<clipPath id="clip0_990_33572">
<rect width="24" height="24" rx="6" fill="white"/>
</clipPath>
</defs>
</svg>
