<svg width="24" height="24" viewBox="0 0 24 24" fill="none" xmlns="http://www.w3.org/2000/svg">
<g clip-path="url(#clip0_990_33568)">
<path d="M0 15.9985H24V24.0001H0V15.9985Z" fill="black"/>
<path d="M0 8.00146H24V15.9983H0V8.00146Z" fill="white"/>
<path d="M0 0H24V8.00156H0V0Z" fill="#CE1126"/>
<path d="M12.0319 12.096L14.7719 14.64L14.5759 10.02C14.5479 9.31998 13.9399 9.47998 13.4959 9.73198C13.0519 10.02 12.5359 10.02 11.9999 9.83198C11.4599 10.02 10.9479 10.02 10.5039 9.73198C10.0639 9.47998 9.4519 9.31998 9.4239 10.02L9.22791 14.64L12.0319 12.096Z" fill="white" stroke="#C09300" stroke-width="0.138666" stroke-linejoin="round"/>
<path d="M9.7399 9.86011L9.5479 14.3521L9.22791 14.6401L9.4239 10.0201C9.5184 9.94764 9.62556 9.89338 9.7399 9.86011ZM10.1239 10.1801L9.9639 13.9401L9.6439 14.2681L9.8359 9.92811C9.8999 9.99211 10.0879 10.1481 10.1239 10.1801ZM10.4719 10.4681L10.3479 13.6041L10.0879 13.8561L10.2479 10.2801C10.3119 10.3401 10.4399 10.4321 10.4719 10.4681ZM10.8519 10.6281L10.7279 13.3001L10.4759 13.5041L10.5999 10.5321C10.6639 10.5601 10.7879 10.6281 10.8519 10.6281ZM11.2039 10.6281L11.1119 12.8561L10.8519 13.1081L10.9519 10.6561C11.0119 10.6561 11.1759 10.6561 11.2039 10.6281Z" fill="#C09300"/>
<path d="M14.2599 9.86011L14.4519 14.3521L14.7719 14.6401L14.5759 10.0201C14.4814 9.94764 14.3742 9.89338 14.2599 9.86011ZM13.8759 10.1801L14.0359 13.9401L14.3559 14.2681L14.1639 9.92811C14.0999 9.99211 13.9119 10.1481 13.8759 10.1801ZM13.5279 10.4681L13.6519 13.6041L13.9119 13.8561L13.7519 10.2801C13.6879 10.3401 13.5599 10.4321 13.5279 10.4681ZM13.1479 10.6281L13.2719 13.3001L13.5239 13.5041L13.3999 10.5321C13.3359 10.5601 13.2119 10.6281 13.1479 10.6281ZM12.7959 10.6281L12.8879 12.8561L13.1479 13.1081L13.0479 10.6561C12.9879 10.6561 12.8239 10.6561 12.7959 10.6281Z" fill="#C09300"/>
<path d="M12.1279 12.6001L12.5119 14.3521L12.3839 14.4801L12.2519 14.3801L12.0359 12.8201L12.1279 14.3801L11.9999 14.5401L11.8759 14.3801L11.9679 12.8201L11.7479 14.3801L11.6159 14.4801L11.4879 14.3521L11.8719 12.6041H12.1279V12.6001Z" fill="#C09300" stroke="#C09300" stroke-width="0.117333"/>
<path d="M11.1399 11.832L10.3759 14.54L11.4279 14.7L11.8718 12.664L11.1399 11.832Z" fill="white" stroke="#C09300" stroke-width="0.127999" stroke-linejoin="round"/>
<path d="M10.8878 12.7601L10.9798 12.9801L11.4758 12.5081" stroke="#C09300" stroke-width="0.138666" stroke-linejoin="round"/>
<path d="M11.2319 12.2L11.3359 13.1719L11.6519 12.7559M11.5239 12.9159L11.6959 13.5159M11.7639 13.2959L11.4159 13.8239M11.5239 14.3519L11.4119 13.8239M11.4119 13.8239L11.3159 13.2879L11.0799 13.6039L10.9799 13.2399L10.6519 13.5759L10.8159 14.1839L11.0479 13.8079L11.1719 14.1919L11.4119 13.8239Z" stroke="#C09300" stroke-width="0.138666" stroke-linejoin="round"/>
<path d="M10.5999 14.4799L10.8119 14.1799L10.9479 14.6399L11.1399 14.3199L11.2639 14.7039" stroke="#C09300" stroke-width="0.138666" stroke-linejoin="round"/>
<path d="M12.8599 11.832L13.6239 14.54L12.5719 14.7L12.1279 12.664L12.8599 11.832Z" fill="white" stroke="#C09300" stroke-width="0.127999" stroke-linejoin="round"/>
<path d="M13.1119 12.7601L13.0199 12.9801L12.5239 12.5081" stroke="#C09300" stroke-width="0.138666" stroke-linejoin="round"/>
<path d="M12.7679 12.2L12.6639 13.1719L12.3479 12.7559M12.4759 12.9159L12.3039 13.5159M12.2359 13.2959L12.5839 13.8239M12.4759 14.3519L12.5879 13.8239M12.5879 13.8239L12.6839 13.2879L12.9199 13.6039L13.0199 13.2399L13.3479 13.5759L13.1839 14.1839L12.9519 13.8079L12.8279 14.1919L12.5879 13.8239Z" stroke="#C09300" stroke-width="0.138666" stroke-linejoin="round"/>
<path d="M13.3999 14.4799L13.1879 14.1799L13.0519 14.6399L12.8599 14.3199L12.7359 14.7039" stroke="#C09300" stroke-width="0.138666" stroke-linejoin="round"/>
<path d="M11.9999 15.752C12.7999 15.752 13.5599 15.688 14.0079 15.564C14.1959 15.528 14.1959 15.432 14.1959 15.304C14.3879 15.24 14.2919 15.016 14.4239 15.016C14.2879 15.056 14.2639 14.796 14.1039 14.828C14.1039 14.604 13.8759 14.576 13.6879 14.64C13.3079 14.764 12.6359 14.796 11.9999 14.796C11.3599 14.764 10.696 14.764 10.312 14.636C10.124 14.576 9.89995 14.604 9.89995 14.828C9.73996 14.796 9.71196 15.052 9.57996 15.016C9.71196 15.016 9.61196 15.244 9.80396 15.304C9.80396 15.432 9.80395 15.528 9.99595 15.564C10.436 15.688 11.2039 15.752 11.9999 15.752Z" fill="white" stroke="#C09300" stroke-width="0.255999" stroke-linecap="round" stroke-linejoin="round"/>
<path d="M10.916 14.5401C11.1719 14.5761 11.4599 14.6041 11.6839 14.5761C11.8119 14.5761 11.9039 14.7961 11.6479 14.8281C11.4279 14.8561 11.076 14.8281 10.888 14.7961C10.6405 14.7528 10.395 14.6994 10.152 14.6361C9.92795 14.5401 10.088 14.3561 10.216 14.3801C10.4443 14.4532 10.6785 14.5068 10.916 14.5401ZM13.0839 14.5401C12.8279 14.5761 12.5399 14.6041 12.3239 14.5761C12.1879 14.5761 12.0959 14.7961 12.3519 14.8281C12.5759 14.8561 12.9239 14.8281 13.1119 14.7961C13.2719 14.7641 13.6239 14.7041 13.8479 14.6361C14.0719 14.5401 13.9119 14.3561 13.7839 14.3801C13.5556 14.4532 13.3214 14.5068 13.0839 14.5401Z" fill="white" stroke="#C09300" stroke-width="0.138666" stroke-linecap="round" stroke-linejoin="round"/>
<path d="M10.12 14.416C9.92797 14.38 9.83998 14.604 9.89997 14.732C9.92797 14.668 10.06 14.668 10.088 14.604C10.124 14.508 10.06 14.508 10.124 14.416H10.12ZM10.888 15.004C10.888 14.876 11.012 14.892 11.012 14.764C11.012 14.704 10.98 14.604 10.916 14.604C10.8826 14.6059 10.8512 14.62 10.8276 14.6436C10.804 14.6672 10.7899 14.6986 10.788 14.732C10.76 14.856 10.888 14.876 10.888 15.004ZM11.796 14.64C11.984 14.64 11.964 14.892 11.876 15.02C11.876 14.928 11.716 14.892 11.716 14.828C11.716 14.732 11.86 14.732 11.796 14.64ZM13.876 14.416C14.072 14.38 14.164 14.604 14.1 14.732C14.072 14.668 13.94 14.668 13.912 14.604C13.876 14.508 13.94 14.508 13.876 14.416ZM13.12 15C13.12 14.872 12.992 14.888 12.992 14.76C12.992 14.7 13.024 14.6 13.088 14.6C13.1213 14.6019 13.1527 14.616 13.1764 14.6396C13.2 14.6632 13.2141 14.6946 13.216 14.728C13.244 14.852 13.116 14.872 13.116 15H13.12ZM12.2 14.64C12.012 14.64 12.032 14.892 12.12 15.02C12.12 14.928 12.28 14.892 12.28 14.828C12.28 14.732 12.136 14.732 12.2 14.64Z" fill="white" stroke="#C09300" stroke-width="0.138666" stroke-linecap="round" stroke-linejoin="round"/>
<path d="M10.188 14.48C10.252 14.48 10.348 14.508 10.376 14.544L10.188 14.48ZM10.504 14.576C10.536 14.576 10.664 14.604 10.724 14.64L10.504 14.576ZM11.648 14.704C11.588 14.704 11.46 14.704 11.428 14.732L11.648 14.7V14.704ZM11.3 14.704C11.264 14.668 11.14 14.668 11.076 14.704H11.3ZM13.812 14.48C13.7441 14.4808 13.6783 14.5032 13.624 14.544L13.812 14.48ZM13.5 14.576C13.46 14.576 13.34 14.604 13.276 14.64L13.5 14.576ZM12.352 14.704C12.412 14.704 12.54 14.704 12.576 14.732L12.352 14.7V14.704ZM12.7 14.704C12.736 14.668 12.86 14.668 12.924 14.704H12.7Z" fill="white" stroke="#C09300" stroke-width="0.0959996" stroke-linecap="round" stroke-linejoin="round"/>
<path d="M10.132 14.9841C10.112 14.9801 10.1 14.9601 10.108 14.9441C10.112 14.9161 10.132 14.9041 10.148 14.9121C10.164 14.9121 10.184 14.9361 10.184 14.9441L10.168 14.9721L10.16 14.9761C10.16 14.9841 10.144 14.9841 10.132 14.9841ZM12.332 15.1401C12.324 15.1401 12.308 15.1201 12.308 15.1121C12.308 15.0961 12.332 15.0721 12.348 15.0721L12.38 15.0881C12.392 15.1001 12.392 15.1241 12.376 15.1361C12.368 15.1441 12.344 15.1441 12.332 15.1361V15.1401ZM12.344 15.2401C12.328 15.2321 12.324 15.2241 12.32 15.2081C12.32 15.1881 12.32 15.1841 12.34 15.1721L12.356 15.1641L12.372 15.1721C12.388 15.1801 12.4 15.1881 12.4 15.2041C12.4 15.2161 12.388 15.2281 12.372 15.2361C12.36 15.2441 12.356 15.2441 12.344 15.2361V15.2401Z" fill="#C09300"/>
<path d="M10.312 14.8C10.296 14.8 10.276 14.816 10.264 14.824C10.24 14.828 10.208 14.844 10.184 14.824C10.16 14.82 10.128 14.824 10.124 14.856C10.128 14.884 10.164 14.896 10.188 14.88C10.204 14.86 10.248 14.844 10.256 14.88C10.236 14.912 10.24 14.948 10.224 14.976C10.224 14.996 10.212 15.012 10.204 15.028C10.184 15.028 10.164 15.028 10.148 15.04C10.1356 15.04 10.1233 15.0429 10.1122 15.0485C10.1011 15.054 10.0914 15.0621 10.084 15.072C10.068 15.096 10.052 15.12 10.048 15.152C10.052 15.176 10.088 15.184 10.112 15.188L10.192 15.212L10.32 15.248C10.384 15.268 10.448 15.276 10.512 15.292L10.532 15.296C10.56 15.304 10.572 15.276 10.572 15.256L10.612 15.112C10.62 15.092 10.632 15.052 10.596 15.06C10.576 15.072 10.556 15.092 10.532 15.092C10.496 15.092 10.516 15.132 10.532 15.144C10.532 15.168 10.524 15.196 10.512 15.216C10.488 15.228 10.464 15.216 10.44 15.208C10.42 15.208 10.372 15.196 10.392 15.168L10.412 15.096C10.424 15.072 10.424 15.044 10.432 15.016C10.416 14.988 10.392 15.028 10.372 15.032C10.356 15.04 10.308 15.044 10.332 15.072C10.356 15.088 10.34 15.116 10.332 15.14C10.332 15.168 10.3 15.18 10.276 15.168C10.252 15.168 10.216 15.148 10.236 15.124L10.256 15.052L10.284 14.972C10.284 14.944 10.296 14.924 10.308 14.9C10.308 14.872 10.328 14.848 10.328 14.82C10.328 14.808 10.32 14.804 10.312 14.804V14.8ZM10.164 15.092C10.1658 15.091 10.1679 15.0904 10.17 15.0904C10.1721 15.0904 10.1741 15.091 10.176 15.092C10.184 15.1 10.184 15.108 10.176 15.116L10.164 15.124C10.144 15.124 10.14 15.12 10.14 15.112C10.14 15.108 10.14 15.104 10.152 15.1C10.1568 15.0965 10.1622 15.0938 10.168 15.092H10.164ZM10.124 15.292C10.104 15.276 10.108 15.264 10.136 15.24C10.152 15.232 10.156 15.232 10.172 15.244C10.196 15.264 10.196 15.276 10.172 15.296C10.164 15.304 10.16 15.304 10.152 15.304C10.14 15.304 10.136 15.304 10.124 15.296V15.292ZM10.244 15.332C10.235 15.3293 10.2275 15.3231 10.2231 15.3149C10.2186 15.3067 10.2175 15.2971 10.22 15.288C10.228 15.272 10.232 15.268 10.256 15.268C10.284 15.268 10.288 15.272 10.292 15.296C10.292 15.312 10.292 15.316 10.28 15.324C10.2755 15.3276 10.2704 15.3301 10.2648 15.3315C10.2593 15.3329 10.2536 15.3331 10.248 15.332H10.244ZM13.812 15.332C13.804 15.328 13.8 15.324 13.8 15.312C13.8 15.296 13.808 15.284 13.832 15.276C13.856 15.264 13.872 15.264 13.88 15.284C13.892 15.308 13.892 15.316 13.876 15.332C13.868 15.344 13.864 15.344 13.844 15.344C13.824 15.344 13.82 15.344 13.812 15.336V15.332ZM10.412 15.38C10.396 15.38 10.388 15.364 10.388 15.348C10.388 15.336 10.388 15.332 10.396 15.324L10.42 15.316L10.444 15.32C10.464 15.336 10.468 15.352 10.456 15.368C10.444 15.384 10.432 15.384 10.408 15.38H10.412ZM11.284 15.42L11.276 15.408C11.276 15.384 11.276 15.364 11.284 15.34C11.288 15.32 11.284 15.3 11.292 15.28L11.308 15.168C11.308 15.148 11.308 15.128 11.316 15.112C11.32 15.08 11.316 15.052 11.324 15.024C11.324 15.012 11.336 14.984 11.348 15C11.364 15.024 11.384 15.04 11.404 15.06C11.42 15.072 11.404 15.088 11.392 15.092C11.376 15.096 11.372 15.116 11.372 15.132L11.364 15.18C11.364 15.208 11.364 15.232 11.356 15.26L11.352 15.332L11.344 15.38C11.344 15.396 11.344 15.416 11.328 15.424C11.316 15.432 11.296 15.432 11.288 15.42H11.284ZM12.472 15.028L12.42 15.076C12.396 15.096 12.44 15.104 12.444 15.12C12.452 15.144 12.452 15.168 12.452 15.192C12.46 15.216 12.464 15.236 12.46 15.26C12.46 15.288 12.428 15.28 12.412 15.296C12.392 15.304 12.384 15.324 12.372 15.336C12.3625 15.3561 12.357 15.3779 12.356 15.4C12.356 15.42 12.344 15.44 12.356 15.456L12.36 15.464H12.38L12.44 15.46C12.488 15.452 12.54 15.452 12.588 15.448L12.676 15.44C12.7 15.444 12.712 15.42 12.712 15.4C12.696 15.372 12.708 15.344 12.696 15.32C12.688 15.288 12.692 15.26 12.688 15.232C12.688 15.208 12.66 15.2 12.648 15.216C12.632 15.232 12.608 15.236 12.6 15.252C12.588 15.276 12.624 15.276 12.632 15.292L12.636 15.352C12.64 15.376 12.616 15.376 12.596 15.38C12.576 15.388 12.548 15.392 12.536 15.368C12.528 15.348 12.528 15.328 12.528 15.308C12.528 15.268 12.516 15.236 12.516 15.2C12.516 15.16 12.504 15.116 12.504 15.072C12.504 15.052 12.5 15.024 12.472 15.028ZM12.448 15.356H12.46V15.388L12.448 15.392C12.4427 15.3937 12.4374 15.395 12.432 15.396C12.4293 15.3962 12.4266 15.3962 12.424 15.396C12.416 15.388 12.416 15.376 12.428 15.364L12.448 15.356ZM11.248 14.988C11.236 14.988 11.216 15.016 11.2 15.012C11.164 15.016 11.168 15.052 11.196 15.064V15.096C11.2 15.128 11.18 15.156 11.184 15.188C11.184 15.22 11.172 15.256 11.172 15.292C11.16 15.328 11.16 15.364 11.156 15.4C11.152 15.432 11.128 15.42 11.108 15.412V15.372C11.112 15.336 11.088 15.328 11.06 15.324C11.032 15.324 11.02 15.304 11.028 15.28C11.04 15.264 11.068 15.268 11.088 15.268C11.128 15.276 11.124 15.224 11.104 15.204C11.088 15.18 11.056 15.164 11.048 15.14C11.048 15.108 11.028 15.072 11 15.056C10.956 15.052 10.92 15.088 10.908 15.128C10.888 15.128 10.868 15.136 10.852 15.144C10.824 15.152 10.784 15.2 10.824 15.22C10.844 15.224 10.912 15.24 10.88 15.268C10.864 15.3 10.832 15.3 10.804 15.292C10.776 15.292 10.744 15.276 10.744 15.244C10.74 15.212 10.74 15.18 10.728 15.152C10.72 15.12 10.684 15.128 10.68 15.16C10.652 15.18 10.656 15.216 10.676 15.24C10.688 15.268 10.676 15.304 10.664 15.328C10.656 15.368 10.616 15.368 10.588 15.376C10.576 15.384 10.524 15.376 10.544 15.404C10.574 15.4179 10.6075 15.422 10.64 15.416C10.672 15.416 10.7 15.388 10.72 15.36C10.74 15.34 10.776 15.352 10.808 15.352C10.836 15.352 10.868 15.372 10.9 15.356C10.908 15.336 10.948 15.296 10.96 15.336C10.96 15.372 10.988 15.388 11.02 15.384C11.056 15.384 11.04 15.408 11.04 15.432C11.04 15.468 11.068 15.488 11.1 15.504H11.132C11.16 15.492 11.192 15.48 11.204 15.448C11.216 15.42 11.216 15.388 11.224 15.36C11.232 15.316 11.24 15.268 11.24 15.224C11.252 15.184 11.248 15.14 11.256 15.096L11.268 15.004C11.268 14.984 11.26 14.984 11.248 14.988ZM10.98 15.152C10.984 15.152 10.988 15.16 10.988 15.172C10.988 15.188 10.996 15.2 11.008 15.204V15.216L10.976 15.224C10.956 15.224 10.94 15.216 10.928 15.204L10.92 15.196L10.932 15.188L10.952 15.168C10.964 15.156 10.972 15.152 10.98 15.152ZM13.62 14.836C13.5969 14.8377 13.5742 14.8417 13.552 14.848C13.512 14.848 13.492 14.888 13.532 14.912C13.556 14.972 13.592 14.896 13.632 14.904C13.688 14.912 13.692 14.976 13.704 15.024C13.704 15.068 13.72 15.112 13.732 15.156C13.772 15.2 13.704 15.228 13.676 15.196C13.652 15.168 13.596 15.136 13.568 15.172C13.532 15.188 13.528 15.236 13.5 15.252C13.452 15.264 13.448 15.204 13.42 15.18C13.396 15.144 13.352 15.14 13.316 15.132C13.3 15.096 13.308 15.036 13.276 15.012C13.244 15.024 13.188 15.08 13.236 15.108C13.276 15.148 13.216 15.164 13.196 15.188C13.164 15.224 13.156 15.268 13.156 15.308C13.104 15.336 13.096 15.276 13.088 15.24C13.088 15.196 13.048 15.208 13.02 15.224C12.98 15.24 12.964 15.276 12.94 15.304V15.384C12.948 15.42 12.988 15.404 13.012 15.4C13.052 15.384 13.068 15.428 13.036 15.452C13.012 15.476 12.948 15.464 12.956 15.508H13.02C13.06 15.496 13.108 15.464 13.112 15.416C13.12 15.376 13.18 15.38 13.212 15.372C13.252 15.36 13.304 15.356 13.316 15.412C13.344 15.44 13.404 15.472 13.436 15.432C13.4512 15.4224 13.4634 15.4086 13.4712 15.3924C13.479 15.3761 13.482 15.358 13.48 15.34C13.476 15.308 13.532 15.308 13.548 15.328C13.568 15.36 13.632 15.352 13.664 15.328C13.696 15.308 13.704 15.264 13.752 15.264L13.968 15.204C14.024 15.192 13.96 15.156 13.944 15.132C13.904 15.112 13.864 15.2 13.816 15.156C13.776 15.128 13.78 15.076 13.768 15.032C13.756 14.976 13.76 14.912 13.72 14.872C13.696 14.844 13.656 14.836 13.62 14.836ZM13.348 15.216C13.352 15.216 13.36 15.216 13.368 15.224C13.384 15.232 13.396 15.248 13.396 15.264C13.396 15.272 13.396 15.272 13.384 15.276L13.364 15.284C13.356 15.284 13.336 15.272 13.336 15.264V15.248C13.328 15.232 13.328 15.232 13.336 15.224L13.348 15.216ZM13.608 15.232C13.624 15.232 13.632 15.232 13.64 15.244C13.644 15.26 13.64 15.268 13.624 15.276L13.604 15.284L13.588 15.272C13.58 15.268 13.576 15.264 13.576 15.256C13.576 15.244 13.592 15.232 13.608 15.228V15.232ZM13.248 15.232C13.256 15.232 13.26 15.232 13.264 15.24C13.272 15.248 13.276 15.252 13.276 15.264V15.288C13.276 15.3 13.276 15.296 13.252 15.296C13.228 15.296 13.224 15.296 13.224 15.272C13.224 15.256 13.224 15.252 13.236 15.244C13.24 15.236 13.248 15.236 13.252 15.236L13.248 15.232ZM13.032 15.292C13.0357 15.2932 13.0392 15.2953 13.042 15.298C13.0448 15.3008 13.0468 15.3043 13.048 15.308C13.048 15.32 13.048 15.328 13.04 15.332C13.028 15.336 13.008 15.34 13 15.332C12.9999 15.3307 12.9999 15.3294 13 15.328C12.992 15.324 12.992 15.32 13 15.316V15.312L13.008 15.3C13.0104 15.2962 13.0142 15.2932 13.0185 15.2918C13.0229 15.2903 13.0277 15.2904 13.032 15.292ZM13.4 15.34L13.42 15.344V15.368H13.372L13.368 15.36C13.368 15.352 13.368 15.348 13.376 15.344L13.4 15.34ZM12.716 15.532C12.712 15.532 12.704 15.528 12.712 15.524C12.716 15.512 12.732 15.508 12.744 15.5C12.7658 15.4917 12.785 15.478 12.8 15.46C12.8 15.444 12.816 15.436 12.816 15.42L12.812 15.364C12.8066 15.3472 12.7952 15.333 12.78 15.324C12.768 15.32 12.752 15.316 12.748 15.3C12.748 15.288 12.76 15.276 12.764 15.264L12.788 15.216C12.8 15.204 12.816 15.216 12.82 15.224L12.84 15.264C12.852 15.276 12.86 15.288 12.864 15.304C12.872 15.32 12.88 15.332 12.88 15.344L12.888 15.396C12.888 15.416 12.888 15.44 12.88 15.46L12.856 15.492C12.844 15.504 12.832 15.516 12.816 15.52C12.804 15.524 12.796 15.536 12.78 15.536H12.72L12.716 15.532ZM12.44 15.548C12.432 15.54 12.428 15.536 12.428 15.524C12.428 15.512 12.428 15.512 12.44 15.5C12.456 15.484 12.464 15.484 12.496 15.5C12.524 15.516 12.536 15.516 12.536 15.504C12.54 15.496 12.556 15.484 12.576 15.484C12.5834 15.4843 12.5904 15.4871 12.596 15.492C12.604 15.5 12.608 15.504 12.608 15.52C12.608 15.54 12.608 15.54 12.596 15.552C12.584 15.56 12.584 15.56 12.568 15.56C12.5609 15.5597 12.554 15.5572 12.5483 15.5529C12.5426 15.5486 12.5383 15.5428 12.536 15.536C12.536 15.528 12.536 15.524 12.528 15.532L12.52 15.536C12.512 15.536 12.496 15.548 12.488 15.556L12.468 15.56C12.452 15.56 12.452 15.56 12.44 15.548ZM11.648 15.192C11.62 15.192 11.592 15.216 11.588 15.244C11.596 15.272 11.62 15.304 11.604 15.332C11.616 15.372 11.572 15.388 11.544 15.368C11.528 15.328 11.52 15.288 11.492 15.248C11.46 15.24 11.448 15.292 11.424 15.312C11.436 15.34 11.468 15.368 11.472 15.404C11.48 15.444 11.456 15.484 11.428 15.5C11.4 15.528 11.36 15.52 11.328 15.524C11.288 15.548 11.356 15.556 11.376 15.556C11.416 15.56 11.46 15.556 11.496 15.524C11.524 15.512 11.52 15.456 11.556 15.452L11.748 15.464C11.78 15.472 11.832 15.46 11.856 15.484C11.856 15.524 11.896 15.556 11.932 15.572C11.952 15.58 11.972 15.552 11.992 15.548C12.032 15.536 12.02 15.488 12.044 15.468H12.244C12.252 15.468 12.256 15.448 12.268 15.44L12.26 15.364C12.248 15.332 12.26 15.292 12.24 15.264C12.204 15.256 12.176 15.284 12.144 15.288C12.104 15.304 12.076 15.34 12.072 15.38C12.052 15.416 12.016 15.372 12.032 15.34L12.028 15.3C12.008 15.28 11.972 15.288 11.944 15.284L11.824 15.276C11.784 15.276 11.748 15.28 11.716 15.272C11.676 15.272 11.676 15.232 11.676 15.2C11.668 15.194 11.658 15.1911 11.648 15.192ZM11.728 15.34L11.768 15.344H11.82C11.86 15.352 11.9 15.352 11.94 15.352C11.948 15.352 11.956 15.36 11.964 15.368V15.448C11.964 15.46 11.964 15.476 11.956 15.48C11.9539 15.4832 11.9511 15.486 11.948 15.488C11.9421 15.487 11.9365 15.4847 11.9317 15.4812C11.9269 15.4778 11.9229 15.4733 11.92 15.468V15.412C11.912 15.4053 11.9023 15.4012 11.892 15.4L11.788 15.396L11.708 15.392C11.696 15.388 11.68 15.392 11.672 15.376C11.664 15.368 11.676 15.352 11.688 15.348C11.7005 15.3424 11.7142 15.3397 11.728 15.34ZM12.18 15.352C12.184 15.352 12.188 15.352 12.188 15.364L12.196 15.384C12.196 15.388 12.196 15.392 12.188 15.392C12.168 15.4 12.148 15.4 12.14 15.392C12.14 15.388 12.14 15.372 12.148 15.368L12.18 15.352Z" fill="#C09300"/>
<path d="M11.9999 13.0881C13.3039 12.0881 13.1919 10.6161 13.1919 10.6161L13.0919 10.6241C12.8159 10.6241 12.1639 10.4641 12.0119 10.2681C11.8519 10.4481 11.1799 10.6281 10.9079 10.6281L10.8079 10.6161C10.8079 10.6161 10.6919 12.0841 11.9999 13.0881Z" fill="white" stroke="#C09300" stroke-width="0.117333"/>
<path d="M13.0879 10.7201H13.0559C12.8079 10.7201 12.2319 10.5961 12.0079 10.4041C11.7759 10.5801 11.1879 10.7241 10.9439 10.7241C10.9331 10.7236 10.9224 10.7223 10.9119 10.7201C10.9141 10.9728 10.949 11.2243 11.0159 11.468C11.1763 12.0554 11.5213 12.5756 11.9999 12.952C12.4787 12.5742 12.8237 12.0526 12.9839 11.464C13.0504 11.2216 13.0853 10.9715 13.0879 10.7201Z" fill="white" stroke="#C09300" stroke-width="0.0959996"/>
<path d="M11.5759 10.5999C11.361 10.6699 11.1376 10.7103 10.9119 10.7199L10.9159 10.8839C10.9295 11.0802 10.963 11.2745 11.0159 11.4639C11.1234 11.8573 11.3144 12.223 11.5759 12.5359V10.5999ZM12.3999 10.5999V12.5679C12.6739 12.2478 12.8734 11.8707 12.9839 11.4639C13.0366 11.2745 13.0701 11.0802 13.0839 10.8839L13.0879 10.7239H13.0559C12.9039 10.7239 12.6399 10.6759 12.3999 10.5959V10.5999Z" fill="#C09300"/>
<path d="M12.4919 10.12C12.5199 10.124 12.4559 9.98002 12.4559 9.98002C12.5279 10.052 12.7919 10.072 12.7919 10.072C12.6319 10 12.4719 9.46802 12.4919 9.04003C12.5079 8.61603 12.4319 8.44803 12.3719 8.38403C12.2919 8.30403 12.0319 8.23203 11.8639 8.22403C11.7639 8.22003 11.7839 8.29603 11.7839 8.29603C11.6039 8.25203 11.4239 8.23203 11.3439 8.28803C11.2719 8.33603 11.2559 8.58803 11.3119 8.54403C11.4439 8.43603 11.5599 8.53603 11.6399 8.65203C11.7119 8.75203 11.7079 9.04003 11.6039 9.38002C11.5118 9.63706 11.3765 9.87649 11.2039 10.088C11.3639 10.088 11.5879 9.94802 11.5879 9.94802L11.5359 10.168C11.7039 10.088 11.8359 9.96402 11.8359 9.96402L11.9959 10.132C12.0479 10.06 12.1559 9.96402 12.1559 9.96402C12.1559 9.96402 12.2879 10.104 12.4919 10.124V10.12Z" fill="white" stroke="#C09300" stroke-width="0.127999"/>
<path d="M11.8439 9.10398C11.8439 9.10398 11.7559 9.75998 11.5879 9.94398M11.9879 9.08398C11.9879 9.08398 11.9479 9.75198 11.8359 9.96398M12.1119 9.11198C12.1119 9.11198 12.1119 9.83998 12.1519 9.96398M12.2719 9.14798C12.2719 9.14798 12.3039 9.75998 12.4559 9.97998" stroke="#C09300" stroke-width="0.138666"/>
<path d="M11.6799 8.78408C11.6763 8.7377 11.6627 8.69265 11.6399 8.65209C11.5599 8.53209 11.4439 8.43609 11.3119 8.54409C11.3119 8.54409 11.3559 8.40409 11.4559 8.40009C11.5279 8.39609 11.6999 8.45609 11.8519 8.71208C11.8519 8.71208 11.7399 8.68808 11.7119 8.71208C11.6639 8.75208 11.6839 8.78408 11.6839 8.78408H11.6799Z" fill="#C09300" stroke="#C09300" stroke-width="0.0319999"/>
<path d="M11.2959 8.37203C11.3079 8.33203 11.3239 8.30003 11.3479 8.28803C11.4279 8.23203 11.6039 8.24803 11.7839 8.29603C11.7839 8.29603 11.7679 8.22003 11.8639 8.22403C12.0319 8.23203 12.2879 8.30403 12.3679 8.38403C12.3935 8.41216 12.4138 8.44468 12.4279 8.48003C12.3879 8.42403 12.2759 8.42803 12.2479 8.43203C12.2079 8.43603 12.1799 8.43203 12.1239 8.44803C12.0959 8.45603 12.0559 8.46403 12.0319 8.48003C12.0159 8.49603 11.9999 8.54403 11.9759 8.54403C11.9359 8.54403 11.9359 8.53603 11.9239 8.52403C11.9119 8.50403 11.9039 8.48003 11.8879 8.48403C11.8479 8.48803 11.7759 8.45603 11.6879 8.38403C11.5959 8.31203 11.5599 8.29603 11.4479 8.30403C11.3279 8.31203 11.2959 8.38003 11.2959 8.38003V8.37203Z" fill="#C09300" stroke="#C09300" stroke-width="0.0319999"/>
<path d="M11.9518 8.47613C11.9783 8.47613 11.9998 8.45464 11.9998 8.42813C11.9998 8.40162 11.9783 8.38013 11.9518 8.38013C11.9253 8.38013 11.9038 8.40162 11.9038 8.42813C11.9038 8.45464 11.9253 8.47613 11.9518 8.47613Z" fill="white"/>
</g>
<defs>
<clipPath id="clip0_990_33568">
<rect width="24" height="24" rx="6" fill="white"/>
</clipPath>
</defs>
</svg>
