<svg width="24" height="24" viewBox="0 0 24 24" fill="none" xmlns="http://www.w3.org/2000/svg">
<g clip-path="url(#clip0_990_33298)">
<path d="M0 0H24V24H0V0Z" fill="white"/>
<path d="M9.60938 0H14.3906V24H9.60938V0Z" fill="#FF0000"/>
<path d="M0 9.60938H24V14.3906H0V9.60938Z" fill="#FF0000"/>
<path fill-rule="evenodd" clip-rule="evenodd" d="M5.34844 18.6516C5.4 17.8078 5.55 17.0859 5.55 17.0859C5.55 17.0859 5.05312 17.1328 4.80469 17.1328C4.55625 17.1328 4.05937 17.0859 4.05937 17.0859C4.05937 17.0859 4.20938 17.8031 4.26094 18.6516C3.41719 18.6 2.69531 18.45 2.69531 18.45C2.69531 18.45 2.74219 18.825 2.74219 19.1953C2.74219 19.5656 2.69531 19.9406 2.69531 19.9406C2.69531 19.9406 3.4125 19.7906 4.26094 19.7391C4.20938 20.5828 4.05937 21.3047 4.05937 21.3047C4.05937 21.3047 4.43438 21.2578 4.80469 21.2578C5.17969 21.2578 5.55 21.3047 5.55 21.3047C5.55 21.3047 5.4 20.5875 5.34844 19.7391C6.19219 19.7906 6.91406 19.9406 6.91406 19.9406C6.91406 19.9406 6.86719 19.4438 6.86719 19.1953C6.86719 18.9469 6.91406 18.45 6.91406 18.45C6.91406 18.45 6.19687 18.6 5.34844 18.6516ZM19.7391 4.26094C19.7906 3.41719 19.9406 2.69531 19.9406 2.69531C19.9406 2.69531 19.4438 2.74219 19.1953 2.74219C18.9469 2.74219 18.45 2.69531 18.45 2.69531C18.45 2.69531 18.6 3.41719 18.6516 4.26094C17.8078 4.20938 17.0859 4.05937 17.0859 4.05937C17.0859 4.05937 17.1328 4.43438 17.1328 4.80469C17.1328 5.17969 17.0859 5.55 17.0859 5.55C17.0859 5.55 17.8031 5.4 18.6516 5.34844C18.6 6.19219 18.45 6.91406 18.45 6.91406C18.45 6.91406 18.825 6.86719 19.1953 6.86719C19.5656 6.86719 19.9406 6.91406 19.9406 6.91406C19.9406 6.91406 19.7906 6.19687 19.7391 5.34844C20.5828 5.4 21.3047 5.55 21.3047 5.55C21.3047 5.55 21.2578 5.05312 21.2578 4.80469C21.2578 4.56094 21.3047 4.05937 21.3047 4.05937C21.3047 4.05937 20.5828 4.20938 19.7391 4.26094ZM5.34844 4.26094C5.4 3.41719 5.55 2.69531 5.55 2.69531C5.55 2.69531 5.05312 2.74219 4.80469 2.74219C4.55625 2.74219 4.05937 2.69531 4.05937 2.69531C4.05937 2.69531 4.20938 3.41719 4.26094 4.26094C3.41719 4.20938 2.69531 4.05937 2.69531 4.05937C2.69531 4.05937 2.74219 4.43438 2.74219 4.80469C2.74219 5.17969 2.69531 5.55 2.69531 5.55C2.69531 5.55 3.4125 5.4 4.26094 5.34844C4.20938 6.19219 4.05937 6.91406 4.05937 6.91406C4.05937 6.91406 4.43438 6.86719 4.80469 6.86719C5.17969 6.86719 5.55 6.91406 5.55 6.91406C5.55 6.91406 5.4 6.19687 5.34844 5.34844C6.19219 5.4 6.91406 5.55 6.91406 5.55C6.91406 5.55 6.86719 5.05312 6.86719 4.80469C6.86719 4.56094 6.91406 4.05937 6.91406 4.05937C6.91406 4.05937 6.19687 4.20938 5.34844 4.26094ZM19.7391 18.6516C19.7906 17.8078 19.9406 17.0859 19.9406 17.0859C19.9406 17.0859 19.4438 17.1328 19.1953 17.1328C18.9469 17.1328 18.45 17.0859 18.45 17.0859C18.45 17.0859 18.6 17.8031 18.6516 18.6516C17.8078 18.6 17.0859 18.45 17.0859 18.45C17.0859 18.45 17.1328 18.825 17.1328 19.1953C17.1328 19.5656 17.0859 19.9406 17.0859 19.9406C17.0859 19.9406 17.8031 19.7906 18.6516 19.7391C18.6 20.5828 18.45 21.3047 18.45 21.3047C18.45 21.3047 18.825 21.2578 19.1953 21.2578C19.5656 21.2578 19.9406 21.3047 19.9406 21.3047C19.9406 21.3047 19.7906 20.5875 19.7391 19.7391C20.5828 19.7906 21.3047 19.9406 21.3047 19.9406C21.3047 19.9406 21.2578 19.4438 21.2578 19.1953C21.2578 18.9469 21.3047 18.45 21.3047 18.45C21.3047 18.45 20.5828 18.6 19.7391 18.6516Z" fill="#FF0000"/>
</g>
<defs>
<clipPath id="clip0_990_33298">
<rect width="24" height="24" rx="6" fill="white"/>
</clipPath>
</defs>
</svg>
