<svg width="24" height="24" viewBox="0 0 24 24" fill="none" xmlns="http://www.w3.org/2000/svg">
<g clip-path="url(#clip0_990_33644)">
<path d="M0 0H24V24H0V0Z" fill="#00ABC2"/>
<path d="M12.9703 13.3085C14.7544 13.3085 16.2007 11.8622 16.2007 10.0781C16.2007 8.29396 14.7544 6.84766 12.9703 6.84766C11.1862 6.84766 9.73987 8.29396 9.73987 10.0781C9.73987 11.8622 11.1862 13.3085 12.9703 13.3085Z" fill="#FFEC2D"/>
<path d="M12.9703 6.40844C13.1623 6.40604 13.2343 6.28604 13.2343 6.14204C13.2343 5.95004 12.9703 5.03564 12.9703 5.03564C12.9703 5.03564 12.7063 5.95004 12.7063 6.14204C12.7063 6.28604 12.7783 6.40844 12.9703 6.40844Z" fill="#FFEC2D"/>
<path d="M16.6399 10.078C16.6423 10.27 16.7623 10.342 16.9063 10.342C17.0983 10.342 18.0127 10.078 18.0127 10.078C18.0127 10.078 17.0983 9.81396 16.9063 9.81396C16.7623 9.81396 16.6399 9.88596 16.6399 10.078Z" fill="#FFEC2D"/>
<path d="M12.9703 13.7476C12.7783 13.75 12.7063 13.87 12.7063 14.014C12.7063 14.206 12.9703 15.1204 12.9703 15.1204C12.9703 15.1204 13.2343 14.206 13.2343 14.014C13.2343 13.87 13.1623 13.7476 12.9703 13.7476Z" fill="#FFEC2D"/>
<path d="M9.30066 10.078C9.29826 9.88604 9.17826 9.81404 9.03426 9.81404C8.84226 9.81404 7.92786 10.078 7.92786 10.078C7.92786 10.078 8.84226 10.342 9.03426 10.342C9.17826 10.342 9.30066 10.27 9.30066 10.078Z" fill="#FFEC2D"/>
<path d="M14.3746 6.68769C14.5529 6.75895 14.6653 6.67564 14.7204 6.5426C14.7939 6.36521 14.8999 5.41939 14.8999 5.41939C14.8999 5.41939 14.3061 6.16315 14.2326 6.34054C14.1775 6.47358 14.1972 6.61421 14.3746 6.68769Z" fill="#FFEC2D"/>
<path d="M16.3605 11.4822C16.2893 11.6605 16.3726 11.773 16.5056 11.8281C16.683 11.9016 17.6288 12.0076 17.6288 12.0076C17.6288 12.0076 16.8851 11.4137 16.7077 11.3403C16.5746 11.2852 16.434 11.3048 16.3605 11.4822Z" fill="#FFEC2D"/>
<path d="M11.566 13.4683C11.3877 13.3971 11.2752 13.4804 11.2201 13.6134C11.1467 13.7908 11.0406 14.7366 11.0406 14.7366C11.0406 14.7366 11.6345 13.9929 11.7079 13.8155C11.7631 13.6824 11.7434 13.5418 11.566 13.4683Z" fill="#FFEC2D"/>
<path d="M9.58002 8.67378C9.65128 8.49547 9.56797 8.38303 9.43493 8.32793C9.25755 8.25445 8.31172 8.14843 8.31172 8.14843C8.31172 8.14843 9.05549 8.74226 9.23287 8.81573C9.36591 8.87084 9.50655 8.85116 9.58002 8.67378Z" fill="#FFEC2D"/>
<path d="M15.565 7.48332C15.7024 7.61739 15.8382 7.58345 15.94 7.48162C16.0758 7.34586 16.5357 6.5126 16.5357 6.5126C16.5357 6.5126 15.7024 6.97251 15.5667 7.10827C15.4648 7.21009 15.4292 7.34756 15.565 7.48332Z" fill="#FFEC2D"/>
<path d="M15.565 12.6727C15.431 12.8102 15.4649 12.946 15.5667 13.0478C15.7025 13.1836 16.5357 13.6435 16.5357 13.6435C16.5357 13.6435 16.0758 12.8102 15.9401 12.6744C15.8382 12.5726 15.7008 12.537 15.565 12.6727Z" fill="#FFEC2D"/>
<path d="M10.3755 12.6729C10.238 12.5389 10.1022 12.5728 10.0004 12.6746C9.86466 12.8104 9.40475 13.6436 9.40475 13.6436C9.40475 13.6436 10.238 13.1837 10.3738 13.048C10.4756 12.9462 10.5112 12.8087 10.3755 12.6729Z" fill="#FFEC2D"/>
<path d="M10.3754 7.48326C10.5095 7.3458 10.4755 7.21003 10.3737 7.10821C10.2379 6.97244 9.40469 6.51254 9.40469 6.51254C9.40469 6.51254 9.8646 7.3458 10.0004 7.48156C10.1022 7.58339 10.2396 7.61902 10.3754 7.48326Z" fill="#FFEC2D"/>
<path d="M16.3606 8.67355C16.4363 8.85002 16.5747 8.87061 16.7077 8.81551C16.8851 8.74203 17.6289 8.1482 17.6289 8.1482C17.6289 8.1482 16.683 8.25422 16.5057 8.3277C16.3726 8.3828 16.2871 8.49616 16.3606 8.67355Z" fill="#FFEC2D"/>
<path d="M14.3745 13.4682C14.1981 13.5439 14.1775 13.6823 14.2326 13.8154C14.3061 13.9928 14.8999 14.7365 14.8999 14.7365C14.8999 14.7365 14.7939 13.7907 14.7204 13.6133C14.6653 13.4803 14.5519 13.3947 14.3745 13.4682Z" fill="#FFEC2D"/>
<path d="M9.57999 11.4822C9.5043 11.3057 9.36588 11.2851 9.23284 11.3403C9.05546 11.4137 8.31169 12.0076 8.31169 12.0076C8.31169 12.0076 9.25752 11.9015 9.4349 11.8281C9.56794 11.773 9.65347 11.6596 9.57999 11.4822Z" fill="#FFEC2D"/>
<path d="M11.566 6.68778C11.7425 6.61209 11.7631 6.47367 11.708 6.34063C11.6345 6.16325 11.0407 5.41948 11.0407 5.41948C11.0407 5.41948 11.1467 6.3653 11.2202 6.54269C11.2753 6.67573 11.3886 6.76126 11.566 6.68778Z" fill="#FFEC2D"/>
<path d="M13.6894 6.4797C13.8781 6.51497 13.9722 6.41141 14.0004 6.2702C14.0381 6.08192 13.9583 5.13352 13.9583 5.13352C13.9583 5.13352 13.5203 5.97846 13.4827 6.16674C13.4545 6.30795 13.5011 6.44208 13.6894 6.4797Z" fill="#FFEC2D"/>
<path d="M16.5688 10.7973C16.5335 10.986 16.6371 11.0801 16.7783 11.1083C16.9665 11.146 17.9149 11.0663 17.9149 11.0663C17.9149 11.0663 17.07 10.6282 16.8817 10.5906C16.7405 10.5624 16.6064 10.609 16.5688 10.7973Z" fill="#FFEC2D"/>
<path d="M12.2512 13.6765C12.0625 13.6413 11.9683 13.7448 11.9401 13.8861C11.9025 14.0743 11.9822 15.0227 11.9822 15.0227C11.9822 15.0227 12.4203 14.1778 12.4579 13.9895C12.4861 13.8483 12.4395 13.7142 12.2512 13.6765Z" fill="#FFEC2D"/>
<path d="M9.37179 9.35923C9.40706 9.17049 9.3035 9.07637 9.16229 9.04815C8.97401 9.01053 8.02561 9.09024 8.02561 9.09024C8.02561 9.09024 8.87055 9.52829 9.05883 9.56592C9.20004 9.59413 9.33417 9.54751 9.37179 9.35923Z" fill="#FFEC2D"/>
<path d="M15.0117 7.0286C15.1726 7.13342 15.2992 7.07375 15.3793 6.95409C15.4861 6.79454 15.7754 5.88783 15.7754 5.88783C15.7754 5.88783 15.0474 6.50082 14.9405 6.66037C14.8604 6.78003 14.8522 6.9218 15.0117 7.0286Z" fill="#FFEC2D"/>
<path d="M16.0197 12.1193C15.9149 12.2802 15.9746 12.4067 16.0942 12.4868C16.2538 12.5937 17.1605 12.883 17.1605 12.883C17.1605 12.883 16.5475 12.1549 16.388 12.0481C16.2683 11.968 16.1265 11.9597 16.0197 12.1193Z" fill="#FFEC2D"/>
<path d="M10.9289 13.1274C10.7681 13.0226 10.6415 13.0823 10.5614 13.2019C10.4546 13.3615 10.1653 14.2682 10.1653 14.2682C10.1653 14.2682 10.8933 13.6552 11.0001 13.4956C11.0802 13.376 11.0885 13.2342 10.9289 13.1274Z" fill="#FFEC2D"/>
<path d="M9.92094 8.03649C10.0258 7.87561 9.96609 7.74902 9.84643 7.66891C9.68688 7.5621 8.78016 7.27281 8.78016 7.27281C8.78016 7.27281 9.39315 8.00086 9.5527 8.10767C9.67236 8.18778 9.81413 8.19604 9.92094 8.03649Z" fill="#FFEC2D"/>
<path d="M16.0232 8.04187C16.1317 8.20028 16.2715 8.1936 16.3913 8.1137C16.551 8.00717 17.1653 7.28018 17.1653 7.28018C17.1653 7.28018 16.2581 7.5679 16.0983 7.67443C15.9785 7.75432 15.9166 7.88214 16.0232 8.04187Z" fill="#FFEC2D"/>
<path d="M15.0063 13.1308C14.8479 13.2394 14.8546 13.3791 14.9345 13.4989C15.041 13.6587 15.768 14.2729 15.768 14.2729C15.768 14.2729 15.4803 13.3657 15.3738 13.206C15.2939 13.0862 15.1661 13.0243 15.0063 13.1308Z" fill="#FFEC2D"/>
<path d="M9.91726 12.1141C9.80873 11.9557 9.66895 11.9624 9.54915 12.0423C9.38941 12.1488 8.77515 12.8758 8.77515 12.8758C8.77515 12.8758 9.68237 12.5881 9.8421 12.4816C9.96191 12.4017 10.0238 12.2739 9.91726 12.1141Z" fill="#FFEC2D"/>
<path d="M10.9342 7.02517C11.0926 6.91664 11.0859 6.77686 11.006 6.65706C10.8995 6.49732 10.1725 5.88306 10.1725 5.88306C10.1725 5.88306 10.4602 6.79028 10.5668 6.95002C10.6467 7.06982 10.7745 7.1317 10.9342 7.02517Z" fill="#FFEC2D"/>
<path d="M16.57 9.36546C16.6096 9.55334 16.7413 9.60066 16.8826 9.57269C17.0709 9.5354 17.9166 9.09882 17.9166 9.09882C17.9166 9.09882 16.9684 9.01745 16.78 9.05474C16.6388 9.08271 16.5327 9.17712 16.57 9.36546Z" fill="#FFEC2D"/>
<path d="M13.683 13.6778C13.4951 13.7174 13.4478 13.8491 13.4758 13.9904C13.5131 14.1787 13.9496 15.0244 13.9496 15.0244C13.9496 15.0244 14.031 14.0762 13.9937 13.8878C13.9657 13.7466 13.8713 13.6405 13.683 13.6778Z" fill="#FFEC2D"/>
<path d="M9.37057 10.7908C9.33093 10.6029 9.19923 10.5556 9.05797 10.5836C8.86963 10.6209 8.02392 11.0574 8.02392 11.0574C8.02392 11.0574 8.97218 11.1388 9.16052 11.1015C9.30178 11.0735 9.40787 10.9791 9.37057 10.7908Z" fill="#FFEC2D"/>
<path d="M12.2576 6.47848C12.4454 6.43884 12.4927 6.30714 12.4648 6.16588C12.4275 5.97754 11.9909 5.13183 11.9909 5.13183C11.9909 5.13183 11.9095 6.08009 11.9468 6.26843C11.9748 6.40969 12.0692 6.51578 12.2576 6.47848Z" fill="#FFEC2D"/>
<path d="M12.8582 15.7201C12.7742 15.8713 12.7238 16.0465 12.6182 16.1833C12.2918 15.8881 11.8214 15.8953 11.4086 15.8785C11.0678 15.8593 10.6982 15.8281 10.4342 15.5857C10.1582 15.3577 9.93023 15.0649 9.62303 14.8801C9.33434 14.8179 9.06302 14.6925 8.82863 14.5129C8.34383 14.1169 8.06543 13.5289 7.59023 13.1209C7.50143 13.0345 7.39343 12.9649 7.29263 12.8905C7.19663 12.9145 7.23983 13.1209 7.12223 13.0153C7.05743 12.9673 6.89663 12.9649 6.88223 13.0297C7.02623 13.2217 7.17263 13.4377 7.19423 13.6825C7.09343 13.6921 6.91823 13.6609 6.87023 13.6969C7.00213 13.8947 7.16786 14.0678 7.35983 14.2081C7.26863 14.2225 7.08863 14.2153 7.05263 14.2513C7.23232 14.4233 7.45416 14.545 7.69583 14.6041C7.74383 14.6713 7.62143 14.8009 7.72703 14.8585C7.78703 14.8825 7.98863 14.9257 7.84943 14.9953C7.75343 15.0577 7.78943 15.2089 7.91183 15.2041C7.98863 15.2449 8.16143 15.2521 8.17583 15.3241C8.10623 15.3913 7.89503 15.4729 8.07503 15.5401C8.24473 15.6363 8.43461 15.6913 8.62943 15.7009C8.53343 15.7825 8.41343 15.8281 8.31503 15.9049C8.75903 16.1665 9.25103 16.3369 9.74063 16.5049C9.93263 16.5673 10.1318 16.6273 10.3334 16.6657C9.74783 16.6321 9.18143 16.4593 8.64863 16.2217C8.37263 16.1017 8.09663 15.9841 7.81343 15.8809C7.93583 15.8161 8.07983 15.7993 8.20943 15.7441C7.94063 15.6913 7.65023 15.6721 7.41743 15.5281C7.45103 15.4609 7.58543 15.4585 7.66223 15.4249C7.80623 15.3913 7.89263 15.3529 7.69343 15.3385C7.49183 15.2833 7.26143 15.3073 7.08143 15.1873C7.09343 15.1153 7.28063 15.1393 7.35503 15.1081C7.45103 15.0913 7.55663 15.0769 7.63343 15.0121C7.32143 14.8849 6.91343 14.9761 6.66863 14.7001C6.61343 14.5945 6.84383 14.6785 6.90863 14.6617C7.07663 14.6617 7.25663 14.7145 7.41743 14.6473C6.96143 14.4481 6.47423 14.2633 6.12863 13.8937C6.09023 13.8337 5.97503 13.6705 6.06863 13.6513C6.33743 13.6873 6.53183 13.9801 6.82223 13.9345C6.86063 13.8841 6.65423 13.8001 6.60143 13.7257C6.16728 13.3768 5.78857 12.9641 5.47823 12.5017C5.45903 12.3409 5.70623 12.3169 5.77103 12.4393C6.09263 12.7513 6.38303 13.1113 6.78383 13.3225C6.92783 13.3921 6.70223 13.2409 6.67343 13.1857C6.29223 12.7631 5.96271 12.2966 5.69183 11.7961C5.64383 11.7049 5.56943 11.5393 5.70863 11.4913C5.84543 11.4217 5.98463 11.5153 6.05423 11.6353C6.32543 11.9785 6.52703 12.3865 6.86543 12.6721C6.57743 12.1129 6.26783 11.5201 6.26063 10.8769C6.26783 10.7521 6.27503 10.5649 6.44543 10.5673C6.58943 10.5457 6.56543 10.7281 6.61343 10.8145C6.75263 11.2897 6.81263 11.8033 7.09343 12.2209C7.03343 11.8705 6.93983 11.5081 7.00223 11.1505C7.01663 11.0305 7.14623 10.9969 7.23503 11.0689C7.30463 11.2369 7.31903 11.4505 7.38143 11.6329C7.75548 12.8752 8.54303 13.9524 9.61343 14.6857C10.4899 15.2854 11.5126 15.6363 12.5726 15.7009C12.6686 15.7105 12.7646 15.7129 12.8582 15.7177M16.1318 17.9041C15.959 18.0097 15.8246 17.8225 15.6806 17.7673C15.575 17.8249 15.5654 18.0121 15.4694 18.1033C15.3542 18.2353 15.2102 18.0649 15.2222 17.9353C15.083 18.0529 15.0134 18.3193 14.7902 18.2809C14.6822 18.1945 14.603 18.0121 14.5214 18.2209C14.4566 18.3217 14.2814 18.4657 14.1878 18.3121C14.159 18.1777 14.0918 18.0193 14.0198 18.2329C13.967 18.3865 13.8038 18.4969 13.6502 18.4297C13.5638 18.3601 13.7174 18.1009 13.6094 18.1177C13.4462 18.2281 13.3502 18.4945 13.1222 18.4729C13.0334 18.3769 13.1774 18.2065 13.079 18.0961C12.9662 18.2425 12.839 18.4585 12.6398 18.4729C12.5438 18.3961 12.6446 18.1729 12.5822 18.1417C12.3806 18.2617 12.1646 18.4801 11.9102 18.4129C12.0086 18.0289 12.4262 17.8969 12.7742 17.8681C13.3766 17.7937 14.0102 17.9305 14.591 17.7121C14.6846 17.6545 14.9102 17.5753 14.831 17.4433C14.759 17.3377 15.0158 17.3785 15.0398 17.2561C15.0254 17.1025 15.1598 17.1241 15.2894 17.1121C15.875 17.0857 16.4534 17.2081 17.0366 17.2297C17.0798 17.5129 16.7654 17.7121 16.5086 17.6257C16.3886 17.6449 16.2086 17.3473 16.2446 17.5633C16.2206 17.6785 16.235 17.8273 16.1318 17.9041ZM11.1542 17.3233C11.2886 17.4457 11.3846 17.2993 11.5118 17.2441C11.9272 17.0814 12.3175 16.8609 12.671 16.5889C12.8918 16.4065 13.0838 16.1689 13.3814 16.1089C13.9622 15.9337 14.579 15.9553 15.1598 15.7921C15.6038 15.1873 16.355 14.9689 16.9862 14.6209C17.1278 14.5777 17.183 14.4601 17.2262 14.3329C17.4662 13.9513 17.795 13.6153 18.1838 13.3849C18.3673 13.2765 18.5836 13.2373 18.7934 13.2745C18.7645 13.5193 18.6477 13.7453 18.4646 13.9105C18.6062 13.9081 18.7286 13.8193 18.8678 13.8241C18.9158 14.0785 18.6422 14.2105 18.4958 14.3689C18.5774 14.3881 18.8894 14.4121 18.719 14.4937C18.503 14.6425 18.2558 14.7457 18.0566 14.9209C18.2414 14.9545 18.263 14.9929 18.0758 15.0601C17.9726 15.1273 17.7782 15.1513 17.759 15.2857C17.8982 15.3721 17.6966 15.4537 17.6174 15.4825C17.4686 15.5185 17.3102 15.5833 17.5094 15.6985C17.435 15.8113 17.2718 15.8353 17.1398 15.8233C17.1806 15.9529 17.2382 16.0969 17.0726 16.1545C16.7012 16.4481 16.2562 16.6341 15.7862 16.6921C16.3742 16.7353 16.9814 16.6273 17.483 16.3081C17.5502 16.2289 17.8982 16.1425 17.7038 16.0777C17.6126 16.0393 17.4158 15.9961 17.4014 15.9265C17.675 15.7585 18.0182 15.8185 18.311 15.7201C18.3182 15.6241 18.0878 15.6505 18.0014 15.6289C17.7974 15.6121 17.8094 15.5593 18.0062 15.5401C18.2558 15.4729 18.539 15.4609 18.7502 15.3001C18.5798 15.2185 18.3638 15.2881 18.1814 15.2233C18.491 15.0889 18.8558 15.0745 19.1342 14.8705C19.2614 14.7289 18.971 14.7745 18.887 14.7769C18.7166 14.8081 18.6374 14.7241 18.8318 14.6545C19.1654 14.4073 19.5854 14.2489 19.8206 13.8937C19.8758 13.8145 19.9502 13.5745 19.7726 13.6585C19.5422 13.7377 19.3382 13.9969 19.0718 13.9177C19.595 13.5121 20.0894 13.0537 20.447 12.4945C20.4662 12.3313 20.2118 12.3145 20.147 12.4417C19.811 12.7633 19.5086 13.1449 19.079 13.3489C19.484 12.944 19.8356 12.4891 20.1254 11.9953C20.1902 11.8513 20.3606 11.6761 20.2694 11.5153C20.1182 11.3905 19.931 11.5057 19.8542 11.6521C19.5926 11.9929 19.3958 12.3889 19.0622 12.6673C19.3526 12.1081 19.6574 11.5105 19.6622 10.8673C19.6622 10.7329 19.6382 10.5361 19.4558 10.5625C19.3118 10.5865 19.3478 10.8025 19.2878 10.9105C19.1582 11.3521 19.0958 11.8297 18.8318 12.2137C18.8918 11.8561 18.995 11.4817 18.9158 11.1217C18.8774 10.9585 18.6158 11.0281 18.6518 11.1889C18.3398 12.7705 17.2766 14.1529 15.8918 14.9521C15.2558 15.3121 14.5478 15.5425 13.823 15.6481C13.631 15.6889 13.4198 15.6649 13.235 15.7321C12.7838 16.0753 12.5126 16.6537 11.9438 16.8337C11.687 16.9609 11.3558 16.9873 11.1734 17.2225C11.1586 17.2539 11.152 17.2886 11.1542 17.3233ZM12.395 17.0761C12.3086 17.0809 12.2246 17.0905 12.1406 17.1169C12.0278 17.1337 11.9198 17.1721 11.8094 17.1889L11.7638 17.1985L11.6894 17.2057C11.6991 17.2459 11.6991 17.2878 11.6894 17.3281C11.6816 17.3462 11.6702 17.3625 11.6558 17.3761C11.6414 17.3953 11.6246 17.4097 11.603 17.4193C11.5835 17.4288 11.5623 17.4346 11.5406 17.4361C11.519 17.4361 11.4974 17.4361 11.4758 17.4265C11.4542 17.4193 11.435 17.4073 11.4158 17.3905L11.3486 17.4025H11.2862L11.219 17.3785C11.1973 17.37 11.1765 17.3595 11.1566 17.3473C11.075 17.3953 10.9838 17.4409 10.9334 17.5249C10.91 17.5633 10.8968 17.6071 10.895 17.6521C10.8902 17.7097 10.9046 17.7673 10.9286 17.8201C10.9382 17.8345 10.9454 17.7649 10.9718 17.7553C11.0174 17.7169 11.075 17.6905 11.1326 17.6761C11.1806 17.6521 11.1734 17.6761 11.1542 17.7145C11.1494 17.7361 11.123 17.8105 11.159 17.7721C11.325 17.7101 11.5003 17.6768 11.6774 17.6737C11.9318 17.6473 12.1862 17.6401 12.4406 17.6377L13.1606 17.6521C13.2758 17.6569 13.391 17.6809 13.5038 17.6617C13.5302 17.6545 13.5734 17.6545 13.5902 17.6377C13.5374 17.6089 13.4774 17.6065 13.4222 17.5993H12.9638C12.8366 17.5873 12.7046 17.5849 12.5846 17.5369C12.551 17.5249 12.5222 17.4937 12.491 17.5273C12.4453 17.5436 12.3978 17.5541 12.3494 17.5585C12.2654 17.5633 12.1814 17.5465 12.1046 17.5153C12.1598 17.4385 12.227 17.3713 12.2894 17.2993L12.1406 17.2681C12.2294 17.2081 12.3086 17.1385 12.395 17.0761Z" fill="#FFEC2D"/>
<path d="M11.519 17.3593C11.5508 17.3593 11.5766 17.3336 11.5766 17.3017C11.5766 17.2699 11.5508 17.2441 11.519 17.2441C11.4872 17.2441 11.4614 17.2699 11.4614 17.3017C11.4614 17.3336 11.4872 17.3593 11.519 17.3593Z" fill="#FFEC2D"/>
<path d="M11.5142 17.3161C11.5275 17.3161 11.5382 17.3053 11.5382 17.2921C11.5382 17.2788 11.5275 17.2681 11.5142 17.2681C11.501 17.2681 11.4902 17.2788 11.4902 17.2921C11.4902 17.3053 11.501 17.3161 11.5142 17.3161Z" fill="#FFEC2D" stroke="#FFEC2D" stroke-width="0.0256"/>
<path d="M2.87994 1.75207C2.87994 1.75207 2.64954 1.55527 2.57034 1.65367C2.44554 1.80967 2.95914 2.58967 2.95914 2.86327C2.95914 3.31447 2.65674 3.43687 2.28714 3.49927C2.03754 3.54247 1.63194 3.48247 1.63194 3.48247C1.70874 3.37927 1.75914 3.34807 1.88634 3.34087C1.74234 3.26887 1.59834 3.10567 1.59834 2.85367C1.59834 2.46727 1.75674 2.30647 1.75674 1.86967C1.75674 1.63207 1.55994 1.32007 1.55994 1.32007C1.91034 1.35607 2.08314 1.68007 1.98474 1.93927C2.01175 1.94464 2.03966 1.94329 2.06603 1.93534C2.09239 1.92739 2.1164 1.91308 2.13594 1.89367C2.15994 1.96567 2.12154 2.04967 2.06634 2.12167C2.10954 2.14567 2.14314 2.13127 2.21034 2.11687C2.20554 2.18887 2.16234 2.27047 2.05194 2.34487C2.36874 2.26327 2.56074 2.48167 2.56074 2.71207C2.56074 2.88727 2.44074 3.01207 2.32074 3.01207C2.28234 3.01207 2.22474 2.99527 2.19354 2.97127C2.16954 3.01927 2.18394 3.08407 2.20554 3.13207C2.11914 3.10807 2.06154 3.05527 2.10234 2.94727C2.03514 2.94247 1.98234 2.91847 1.94634 2.87527C1.98234 2.82727 2.03754 2.80327 2.10234 2.80327C2.05434 2.70247 2.10954 2.64727 2.18874 2.60167C2.18874 2.60167 2.13834 2.80327 2.26554 2.80327C2.32314 2.80327 2.37594 2.78647 2.37594 2.70007C2.37594 2.62567 2.31114 2.52247 2.15994 2.52967C2.01114 2.53687 1.88874 2.63287 1.88874 2.87287C1.88874 3.09367 2.06874 3.20407 2.30394 3.20887C2.51514 3.21847 2.67594 3.10327 2.67594 2.88487C2.67594 2.59207 2.25594 1.92967 2.25594 1.67047C2.25594 1.47607 2.42874 1.36567 2.60154 1.36567C2.82234 1.36567 3.00954 1.58647 3.00954 1.58647L2.87994 1.74967V1.75207Z" fill="#FFEC2D"/>
<path d="M2.92794 7.0104C2.92794 7.4976 2.49114 7.7472 2.14794 7.7472C1.68714 7.7472 1.43994 7.4712 1.43994 7.1088C1.43994 6.9048 1.47834 6.7752 1.57194 6.5808L2.63274 4.38C2.67117 4.28743 2.6876 4.1872 2.68074 4.0872C2.68074 3.8904 2.48874 3.7296 2.28954 3.7272C2.10714 3.72 1.90554 3.8952 1.90554 4.0944C1.90554 4.3368 2.03274 4.4448 2.16234 4.4448C2.32074 4.4448 2.38314 4.38 2.38314 4.2672C2.38314 4.1904 2.34714 4.1568 2.29194 4.1568C2.15514 4.1568 2.19594 4.3392 2.19594 4.3392C2.17788 4.33586 2.16077 4.32857 2.14585 4.31786C2.13093 4.30715 2.11856 4.29327 2.10962 4.27722C2.10068 4.26118 2.09539 4.24335 2.09413 4.22503C2.09287 4.2067 2.09568 4.18832 2.10234 4.1712C2.05097 4.15968 2.00468 4.13191 1.97034 4.092C2.00634 4.056 2.04954 4.0296 2.10234 4.02C2.07114 3.9144 2.11434 3.864 2.20554 3.84C2.18913 3.87608 2.18492 3.91652 2.19354 3.9552C2.33754 3.912 2.56074 3.9792 2.56074 4.2288C2.56074 4.4784 2.38794 4.6872 2.06394 4.6368C2.14074 4.6728 2.17914 4.7472 2.18874 4.8312C2.12874 4.8072 2.06394 4.8072 2.06394 4.8072C2.10234 4.872 2.15514 4.9272 2.15274 5.0616C2.09274 5.0328 2.03514 4.9824 1.96074 5.0136C2.08074 5.2536 1.93194 5.58 1.55274 5.6568C1.69194 5.4936 1.75914 5.3208 1.75914 5.1456C1.75914 4.5816 1.60314 4.488 1.60314 4.0944C1.60561 4.00312 1.62975 3.91373 1.67356 3.83361C1.71738 3.75349 1.77962 3.68493 1.85514 3.6336V3.6408C1.8087 3.63126 1.7648 3.61201 1.72633 3.58429C1.68786 3.55658 1.65569 3.52104 1.63194 3.48C1.8993 3.40631 2.18193 3.40881 2.44794 3.4872C2.53692 3.49979 2.62193 3.53221 2.69671 3.58205C2.77148 3.6319 2.8341 3.69791 2.87994 3.7752C2.92786 3.88454 2.9526 4.00262 2.9526 4.122C2.9526 4.24138 2.92786 4.35946 2.87994 4.4688C2.72874 4.7808 2.02314 6.2832 1.80234 6.7536C1.75434 6.8544 1.72794 6.96 1.72794 7.0752C1.72794 7.3632 1.99194 7.464 2.14074 7.464C2.32074 7.464 2.50554 7.3272 2.50554 7.1568C2.50554 7.0488 2.44554 6.9816 2.36154 6.9816C2.15754 6.9816 2.16954 7.1544 2.21034 7.2648C2.08314 7.2072 2.01114 7.1064 2.03034 7.0008C1.95159 6.98758 1.88012 6.94674 1.82874 6.8856C1.87674 6.8232 1.93914 6.7752 2.03034 6.7728C1.98954 6.6072 2.10234 6.5376 2.21034 6.4992C2.17674 6.6192 2.15274 6.7608 2.36154 6.7608C2.51274 6.7608 2.63034 6.7848 2.69994 6.8856L2.71674 6.2376C2.72634 6.0432 2.45754 6.0456 2.28474 6.1056C2.34954 5.8824 2.48154 5.76 2.78874 5.7912C2.74168 5.7731 2.70151 5.74064 2.67394 5.69842C2.64636 5.6562 2.63279 5.60637 2.63514 5.556C2.63514 5.3736 2.78394 5.172 2.87994 5.112L2.92794 7.008V7.0104Z" fill="#FFEC2D"/>
<path d="M2.92794 8.46958C2.92794 7.98238 2.49114 7.73278 2.14794 7.73278C1.68714 7.73278 1.43994 8.00878 1.43994 8.37118C1.43994 8.57518 1.47834 8.70478 1.57194 8.89918L2.63274 11.1C2.67117 11.1926 2.6876 11.2928 2.68074 11.3928C2.68074 11.5896 2.48874 11.7504 2.28954 11.7528C2.10714 11.76 1.90554 11.5848 1.90554 11.3856C1.90554 11.1432 2.03274 11.0352 2.16234 11.0352C2.32074 11.0352 2.38314 11.1 2.38314 11.2128C2.38314 11.2896 2.34714 11.3232 2.29194 11.3232C2.15514 11.3232 2.19594 11.1408 2.19594 11.1408C2.17788 11.1441 2.16077 11.1514 2.14585 11.1621C2.13093 11.1728 2.11856 11.1867 2.10962 11.2028C2.10068 11.2188 2.09539 11.2366 2.09413 11.255C2.09287 11.2733 2.09568 11.2917 2.10234 11.3088C2.05097 11.3203 2.00468 11.3481 1.97034 11.388C2.00634 11.424 2.04954 11.4504 2.10234 11.46C2.07114 11.5656 2.11434 11.616 2.20554 11.64C2.18913 11.6039 2.18492 11.5635 2.19354 11.5248C2.33754 11.568 2.56074 11.5008 2.56074 11.2512C2.56074 11.0016 2.38794 10.7928 2.06394 10.8432C2.14074 10.8072 2.17914 10.7328 2.18874 10.6488C2.12874 10.6728 2.06394 10.6728 2.06394 10.6728C2.10234 10.608 2.15514 10.5528 2.15274 10.4184C2.09274 10.4472 2.03514 10.4976 1.96074 10.4664C2.08074 10.2264 1.93194 9.89998 1.55274 9.82318C1.69194 9.98638 1.75914 10.1592 1.75914 10.3344C1.75914 10.8984 1.60314 10.992 1.60314 11.3856C1.60561 11.4769 1.62975 11.5663 1.67356 11.6464C1.71738 11.7265 1.77962 11.795 1.85514 11.8464V11.8392C1.8087 11.8487 1.7648 11.868 1.72633 11.8957C1.68786 11.9234 1.65569 11.9589 1.63194 12C1.8993 12.0737 2.18193 12.0712 2.44794 11.9928C2.53692 11.9802 2.62193 11.9478 2.69671 11.8979C2.77148 11.8481 2.8341 11.7821 2.87994 11.7048C2.92786 11.5954 2.9526 11.4774 2.9526 11.358C2.9526 11.2386 2.92786 11.1205 2.87994 11.0112C2.72874 10.6992 2.02314 9.19678 1.80234 8.72638C1.75434 8.62558 1.72794 8.51998 1.72794 8.40478C1.72794 8.11678 1.99194 8.01598 2.14074 8.01598C2.32074 8.01598 2.50554 8.15278 2.50554 8.32318C2.50554 8.43118 2.44554 8.49838 2.36154 8.49838C2.15754 8.49838 2.16954 8.32558 2.21034 8.21518C2.08314 8.27278 2.01114 8.37358 2.03034 8.47918C1.95159 8.4924 1.88012 8.53324 1.82874 8.59438C1.87674 8.65678 1.93914 8.70478 2.03034 8.70718C1.98954 8.87278 2.10234 8.94238 2.21034 8.98078C2.17674 8.86078 2.15274 8.71918 2.36154 8.71918C2.51274 8.71918 2.63034 8.69518 2.69994 8.59438L2.71674 9.24238C2.72634 9.43678 2.45754 9.43438 2.28474 9.37438C2.34954 9.59758 2.48154 9.71998 2.78874 9.68878C2.74168 9.70688 2.70151 9.73934 2.67394 9.78156C2.64636 9.82378 2.63279 9.87361 2.63514 9.92398C2.63514 10.1064 2.78394 10.308 2.87994 10.368L2.92794 8.47198V8.46958Z" fill="#FFEC2D"/>
<path d="M2.87995 1.75207C2.87995 1.75207 3.11035 1.55527 3.18955 1.65367C3.31435 1.80967 2.80075 2.58967 2.80075 2.86327C2.80075 3.31447 3.10315 3.43687 3.47275 3.49927C3.72235 3.54247 4.12795 3.48247 4.12795 3.48247C4.05115 3.37927 4.00075 3.34807 3.87355 3.34087C4.01755 3.26887 4.16155 3.10567 4.16155 2.85367C4.16155 2.46727 4.00315 2.30647 4.00315 1.86967C4.00315 1.63207 4.19995 1.32007 4.19995 1.32007C3.84955 1.35607 3.67675 1.68007 3.77515 1.93927C3.74814 1.94464 3.72023 1.94329 3.69386 1.93534C3.66749 1.92739 3.64349 1.91308 3.62395 1.89367C3.59995 1.96567 3.63835 2.04967 3.69355 2.12167C3.65035 2.14567 3.61675 2.13127 3.54955 2.11687C3.55435 2.18887 3.59755 2.27047 3.70795 2.34487C3.39115 2.26327 3.19915 2.48167 3.19915 2.71207C3.19915 2.88727 3.31915 3.01207 3.43915 3.01207C3.47755 3.01207 3.53515 2.99527 3.56635 2.97127C3.59035 3.01927 3.57595 3.08407 3.55435 3.13207C3.64075 3.10807 3.69835 3.05527 3.65755 2.94727C3.72475 2.94247 3.77755 2.91847 3.81355 2.87527C3.77755 2.82727 3.72235 2.80327 3.65755 2.80327C3.70555 2.70247 3.65035 2.64727 3.57115 2.60167C3.57115 2.60167 3.62155 2.80327 3.49435 2.80327C3.43675 2.80327 3.38395 2.78647 3.38395 2.70007C3.38395 2.62567 3.44875 2.52247 3.59995 2.52967C3.74875 2.53687 3.87115 2.63287 3.87115 2.87287C3.87115 3.09367 3.69115 3.20407 3.45595 3.20887C3.24475 3.21847 3.08395 3.10327 3.08395 2.88487C3.08395 2.59207 3.50395 1.92967 3.50395 1.67047C3.50395 1.47607 3.33115 1.36567 3.15835 1.36567C2.93755 1.36567 2.75035 1.58647 2.75035 1.58647L2.87995 1.74967V1.75207Z" fill="#FFEC2D"/>
<path d="M2.83195 7.0104C2.83195 7.4976 3.26875 7.7472 3.61195 7.7472C4.07275 7.7472 4.31995 7.4712 4.31995 7.1088C4.31995 6.9048 4.28155 6.7752 4.18795 6.5808L3.12715 4.38C3.08872 4.28743 3.07229 4.1872 3.07915 4.0872C3.07915 3.8904 3.27115 3.7296 3.47035 3.7272C3.65275 3.72 3.85435 3.8952 3.85435 4.0944C3.85435 4.3368 3.72715 4.4448 3.59755 4.4448C3.43915 4.4448 3.37675 4.38 3.37675 4.2672C3.37675 4.1904 3.41275 4.1568 3.46795 4.1568C3.60475 4.1568 3.56395 4.3392 3.56395 4.3392C3.58201 4.33586 3.59911 4.32857 3.61404 4.31786C3.62896 4.30715 3.64133 4.29327 3.65027 4.27722C3.65921 4.26118 3.6645 4.24335 3.66576 4.22503C3.66702 4.2067 3.66421 4.18832 3.65755 4.1712C3.70892 4.15968 3.75521 4.13191 3.78955 4.092C3.75355 4.056 3.71035 4.0296 3.65755 4.02C3.68875 3.9144 3.64555 3.864 3.55435 3.84C3.57076 3.87608 3.57497 3.91652 3.56635 3.9552C3.42235 3.912 3.19915 3.9792 3.19915 4.2288C3.19915 4.4784 3.37195 4.6872 3.69595 4.6368C3.61915 4.6728 3.58075 4.7472 3.57115 4.8312C3.63115 4.8072 3.69595 4.8072 3.69595 4.8072C3.65755 4.872 3.60475 4.9272 3.60715 5.0616C3.66715 5.0328 3.72475 4.9824 3.79915 5.0136C3.67915 5.2536 3.82795 5.58 4.20715 5.6568C4.06795 5.4936 4.00075 5.3208 4.00075 5.1456C4.00075 4.5816 4.15675 4.488 4.15675 4.0944C4.15428 4.00312 4.13014 3.91373 4.08632 3.83361C4.04251 3.75349 3.98027 3.68493 3.90475 3.6336V3.6408C3.95119 3.63126 3.99509 3.61201 4.03356 3.58429C4.07203 3.55658 4.10419 3.52104 4.12795 3.48C3.86059 3.40631 3.57796 3.40881 3.31195 3.4872C3.22297 3.49979 3.13795 3.53221 3.06318 3.58205C2.98841 3.6319 2.92579 3.69791 2.87995 3.7752C2.83203 3.88454 2.80729 4.00262 2.80729 4.122C2.80729 4.24138 2.83203 4.35946 2.87995 4.4688C3.03115 4.7808 3.73675 6.2832 3.95755 6.7536C4.00555 6.8544 4.03195 6.96 4.03195 7.0752C4.03195 7.3632 3.76795 7.464 3.61915 7.464C3.43915 7.464 3.25435 7.3272 3.25435 7.1568C3.25435 7.0488 3.31435 6.9816 3.39835 6.9816C3.60235 6.9816 3.59035 7.1544 3.54955 7.2648C3.67675 7.2072 3.74875 7.1064 3.72955 7.0008C3.8083 6.98758 3.87977 6.94674 3.93115 6.8856C3.88315 6.8232 3.82075 6.7752 3.72955 6.7728C3.77035 6.6072 3.65755 6.5376 3.54955 6.4992C3.58315 6.6192 3.60715 6.7608 3.39835 6.7608C3.24715 6.7608 3.12955 6.7848 3.05995 6.8856L3.04315 6.2376C3.03355 6.0432 3.30235 6.0456 3.47515 6.1056C3.41035 5.8824 3.27835 5.76 2.97115 5.7912C3.01821 5.7731 3.05838 5.74064 3.08595 5.69842C3.11352 5.6562 3.1271 5.60637 3.12475 5.556C3.12475 5.3736 2.97595 5.172 2.87995 5.112L2.83195 7.008V7.0104Z" fill="#FFEC2D"/>
<path d="M2.83195 8.46958C2.83195 7.98238 3.26875 7.73278 3.61195 7.73278C4.07275 7.73278 4.31995 8.00878 4.31995 8.37118C4.31995 8.57518 4.28155 8.70478 4.18795 8.89918L3.12715 11.1C3.08872 11.1926 3.07229 11.2928 3.07915 11.3928C3.07915 11.5896 3.27115 11.7504 3.47035 11.7528C3.65275 11.76 3.85435 11.5848 3.85435 11.3856C3.85435 11.1432 3.72715 11.0352 3.59755 11.0352C3.43915 11.0352 3.37675 11.1 3.37675 11.2128C3.37675 11.2896 3.41275 11.3232 3.46795 11.3232C3.60475 11.3232 3.56395 11.1408 3.56395 11.1408C3.58201 11.1441 3.59911 11.1514 3.61404 11.1621C3.62896 11.1728 3.64133 11.1867 3.65027 11.2028C3.65921 11.2188 3.6645 11.2366 3.66576 11.255C3.66702 11.2733 3.66421 11.2917 3.65755 11.3088C3.70892 11.3203 3.75521 11.3481 3.78955 11.388C3.75355 11.424 3.71035 11.4504 3.65755 11.46C3.68875 11.5656 3.64555 11.616 3.55435 11.64C3.57076 11.6039 3.57497 11.5635 3.56635 11.5248C3.42235 11.568 3.19915 11.5008 3.19915 11.2512C3.19915 11.0016 3.37195 10.7928 3.69595 10.8432C3.61915 10.8072 3.58075 10.7328 3.57115 10.6488C3.63115 10.6728 3.69595 10.6728 3.69595 10.6728C3.65755 10.608 3.60475 10.5528 3.60715 10.4184C3.66715 10.4472 3.72475 10.4976 3.79915 10.4664C3.67915 10.2264 3.82795 9.89998 4.20715 9.82318C4.06795 9.98638 4.00075 10.1592 4.00075 10.3344C4.00075 10.8984 4.15675 10.992 4.15675 11.3856C4.15428 11.4769 4.13014 11.5663 4.08632 11.6464C4.04251 11.7265 3.98027 11.795 3.90475 11.8464V11.8392C3.95119 11.8487 3.99509 11.868 4.03356 11.8957C4.07203 11.9234 4.10419 11.9589 4.12795 12C3.86059 12.0737 3.57796 12.0712 3.31195 11.9928C3.22297 11.9802 3.13795 11.9478 3.06318 11.8979C2.98841 11.8481 2.92579 11.7821 2.87995 11.7048C2.83203 11.5954 2.80729 11.4774 2.80729 11.358C2.80729 11.2386 2.83203 11.1205 2.87995 11.0112C3.03115 10.6992 3.73675 9.19678 3.95755 8.72638C4.00555 8.62558 4.03195 8.51998 4.03195 8.40478C4.03195 8.11678 3.76795 8.01598 3.61915 8.01598C3.43915 8.01598 3.25435 8.15278 3.25435 8.32318C3.25435 8.43118 3.31435 8.49838 3.39835 8.49838C3.60235 8.49838 3.59035 8.32558 3.54955 8.21518C3.67675 8.27278 3.74875 8.37358 3.72955 8.47918C3.8083 8.4924 3.87977 8.53324 3.93115 8.59438C3.88315 8.65678 3.82075 8.70478 3.72955 8.70718C3.77035 8.87278 3.65755 8.94238 3.54955 8.98078C3.58315 8.86078 3.60715 8.71918 3.39835 8.71918C3.24715 8.71918 3.12955 8.69518 3.05995 8.59438L3.04315 9.24238C3.03355 9.43678 3.30235 9.43438 3.47515 9.37438C3.41035 9.59758 3.27835 9.71998 2.97115 9.68878C3.01821 9.70688 3.05838 9.73934 3.08595 9.78156C3.11352 9.82378 3.1271 9.87361 3.12475 9.92398C3.12475 10.1064 2.97595 10.308 2.87995 10.368L2.83195 8.47198V8.46958Z" fill="#FFEC2D"/>
<path d="M2.87994 22.2482C2.87994 22.2482 2.64954 22.445 2.57034 22.3466C2.44554 22.1906 2.95914 21.4106 2.95914 21.137C2.95914 20.6858 2.65674 20.5634 2.28714 20.501C2.03754 20.4578 1.63194 20.5178 1.63194 20.5178C1.70874 20.621 1.75914 20.6522 1.88634 20.6594C1.74234 20.7314 1.59834 20.8946 1.59834 21.1466C1.59834 21.533 1.75674 21.6938 1.75674 22.1306C1.75674 22.3682 1.55994 22.6802 1.55994 22.6802C1.91034 22.6442 2.08314 22.3202 1.98474 22.061C2.01175 22.0556 2.03966 22.0569 2.06603 22.0649C2.09239 22.0729 2.1164 22.0872 2.13594 22.1066C2.15994 22.0346 2.12154 21.9506 2.06634 21.8786C2.10954 21.8546 2.14314 21.869 2.21034 21.8834C2.20554 21.8114 2.16234 21.7298 2.05194 21.6554C2.36874 21.737 2.56074 21.5186 2.56074 21.2882C2.56074 21.113 2.44074 20.9882 2.32074 20.9882C2.28234 20.9882 2.22474 21.005 2.19354 21.029C2.16954 20.981 2.18394 20.9162 2.20554 20.8682C2.11914 20.8922 2.06154 20.945 2.10234 21.053C2.03514 21.0578 1.98234 21.0818 1.94634 21.125C1.98234 21.173 2.03754 21.197 2.10234 21.197C2.05434 21.2978 2.10954 21.353 2.18874 21.3986C2.18874 21.3986 2.13834 21.197 2.26554 21.197C2.32314 21.197 2.37594 21.2138 2.37594 21.3002C2.37594 21.3746 2.31114 21.4778 2.15994 21.4706C2.01114 21.4634 1.88874 21.3674 1.88874 21.1274C1.88874 20.9066 2.06874 20.7962 2.30394 20.7914C2.51514 20.7818 2.67594 20.897 2.67594 21.1154C2.67594 21.4082 2.25594 22.0706 2.25594 22.3298C2.25594 22.5242 2.42874 22.6346 2.60154 22.6346C2.82234 22.6346 3.00954 22.4138 3.00954 22.4138L2.87994 22.2506V22.2482Z" fill="#FFEC2D"/>
<path d="M2.92794 16.9898C2.92794 16.5026 2.49114 16.253 2.14794 16.253C1.68714 16.253 1.43994 16.529 1.43994 16.8914C1.43994 17.0954 1.47834 17.225 1.57194 17.4194L2.63274 19.6202C2.67117 19.7128 2.6876 19.813 2.68074 19.913C2.68074 20.1098 2.48874 20.2706 2.28954 20.273C2.10714 20.2802 1.90554 20.105 1.90554 19.9058C1.90554 19.6634 2.03274 19.5554 2.16234 19.5554C2.32074 19.5554 2.38314 19.6202 2.38314 19.733C2.38314 19.8098 2.34714 19.8434 2.29194 19.8434C2.15514 19.8434 2.19594 19.661 2.19594 19.661C2.17788 19.6644 2.16077 19.6717 2.14585 19.6824C2.13093 19.6931 2.11856 19.707 2.10962 19.723C2.10068 19.7391 2.09539 19.7569 2.09413 19.7752C2.09287 19.7935 2.09568 19.8119 2.10234 19.829C2.05097 19.8406 2.00468 19.8683 1.97034 19.9082C2.00634 19.9442 2.04954 19.9706 2.10234 19.9802C2.07114 20.0858 2.11434 20.1362 2.20554 20.1602C2.18913 20.1242 2.18492 20.0837 2.19354 20.045C2.33754 20.0882 2.56074 20.021 2.56074 19.7714C2.56074 19.5218 2.38794 19.313 2.06394 19.3634C2.14074 19.3274 2.17914 19.253 2.18874 19.169C2.12874 19.193 2.06394 19.193 2.06394 19.193C2.10234 19.1282 2.15514 19.073 2.15274 18.9386C2.09274 18.9674 2.03514 19.0178 1.96074 18.9866C2.08074 18.7466 1.93194 18.4202 1.55274 18.3434C1.69194 18.5066 1.75914 18.6794 1.75914 18.8546C1.75914 19.4186 1.60314 19.5122 1.60314 19.9058C1.60561 19.9971 1.62975 20.0865 1.67356 20.1666C1.71738 20.2468 1.77962 20.3153 1.85514 20.3666V20.3594C1.8087 20.369 1.7648 20.3882 1.72633 20.416C1.68786 20.4437 1.65569 20.4792 1.63194 20.5202C1.8993 20.5939 2.18193 20.5914 2.44794 20.513C2.53692 20.5005 2.62193 20.468 2.69671 20.4182C2.77148 20.3683 2.8341 20.3023 2.87994 20.225C2.92786 20.1157 2.9526 19.9976 2.9526 19.8782C2.9526 19.7589 2.92786 19.6408 2.87994 19.5314C2.72874 19.2194 2.02314 17.717 1.80234 17.2466C1.75434 17.1458 1.72794 17.0402 1.72794 16.925C1.72794 16.637 1.99194 16.5362 2.14074 16.5362C2.32074 16.5362 2.50554 16.673 2.50554 16.8434C2.50554 16.9514 2.44554 17.0186 2.36154 17.0186C2.15754 17.0186 2.16954 16.8458 2.21034 16.7354C2.08314 16.793 2.01114 16.8938 2.03034 16.9994C1.95159 17.0127 1.88012 17.0535 1.82874 17.1146C1.87674 17.177 1.93914 17.225 2.03034 17.2274C1.98954 17.393 2.10234 17.4626 2.21034 17.501C2.17674 17.381 2.15274 17.2394 2.36154 17.2394C2.51274 17.2394 2.63034 17.2154 2.69994 17.1146L2.71674 17.7626C2.72634 17.957 2.45754 17.9546 2.28474 17.8946C2.34954 18.1178 2.48154 18.2402 2.78874 18.209C2.74168 18.2271 2.70151 18.2596 2.67394 18.3018C2.64636 18.344 2.63279 18.3939 2.63514 18.4442C2.63514 18.6266 2.78394 18.8282 2.87994 18.8882L2.92794 16.9922V16.9898Z" fill="#FFEC2D"/>
<path d="M2.92794 15.5307C2.92794 16.0179 2.49114 16.2675 2.14794 16.2675C1.68714 16.2675 1.43994 15.9915 1.43994 15.6291C1.43994 15.4251 1.47834 15.2955 1.57194 15.1011L2.63274 12.9003C2.67117 12.8077 2.6876 12.7075 2.68074 12.6075C2.68074 12.4107 2.48874 12.2499 2.28954 12.2475C2.10714 12.2403 1.90554 12.4155 1.90554 12.6147C1.90554 12.8571 2.03274 12.9651 2.16234 12.9651C2.32074 12.9651 2.38314 12.9003 2.38314 12.7875C2.38314 12.7107 2.34714 12.6771 2.29194 12.6771C2.15514 12.6771 2.19594 12.8595 2.19594 12.8595C2.17788 12.8561 2.16077 12.8488 2.14585 12.8381C2.13093 12.8274 2.11856 12.8135 2.10962 12.7975C2.10068 12.7814 2.09539 12.7636 2.09413 12.7453C2.09287 12.727 2.09568 12.7086 2.10234 12.6915C2.05097 12.6799 2.00468 12.6522 1.97034 12.6123C2.00634 12.5763 2.04954 12.5499 2.10234 12.5403C2.07114 12.4347 2.11434 12.3843 2.20554 12.3603C2.18913 12.3963 2.18492 12.4368 2.19354 12.4755C2.33754 12.4323 2.56074 12.4995 2.56074 12.7491C2.56074 12.9987 2.38794 13.2075 2.06394 13.1571C2.14074 13.1931 2.17914 13.2675 2.18874 13.3515C2.12874 13.3275 2.06394 13.3275 2.06394 13.3275C2.10234 13.3923 2.15514 13.4475 2.15274 13.5819C2.09274 13.5531 2.03514 13.5027 1.96074 13.5339C2.08074 13.7739 1.93194 14.1003 1.55274 14.1771C1.69194 14.0139 1.75914 13.8411 1.75914 13.6659C1.75914 13.1019 1.60314 13.0083 1.60314 12.6147C1.60561 12.5234 1.62975 12.434 1.67356 12.3539C1.71738 12.2738 1.77962 12.2052 1.85514 12.1539V12.1611C1.8087 12.1515 1.7648 12.1323 1.72633 12.1046C1.68786 12.0768 1.65569 12.0413 1.63194 12.0003C1.8993 11.9266 2.18193 11.9291 2.44794 12.0075C2.53692 12.0201 2.62193 12.0525 2.69671 12.1023C2.77148 12.1522 2.8341 12.2182 2.87994 12.2955C2.92786 12.4048 2.9526 12.5229 2.9526 12.6423C2.9526 12.7616 2.92786 12.8797 2.87994 12.9891C2.72874 13.3011 2.02314 14.8035 1.80234 15.2739C1.75434 15.3747 1.72794 15.4803 1.72794 15.5955C1.72794 15.8835 1.99194 15.9843 2.14074 15.9843C2.32074 15.9843 2.50554 15.8475 2.50554 15.6771C2.50554 15.5691 2.44554 15.5019 2.36154 15.5019C2.15754 15.5019 2.16954 15.6747 2.21034 15.7851C2.08314 15.7275 2.01114 15.6267 2.03034 15.5211C1.95159 15.5078 1.88012 15.467 1.82874 15.4059C1.87674 15.3435 1.93914 15.2955 2.03034 15.2931C1.98954 15.1275 2.10234 15.0579 2.21034 15.0195C2.17674 15.1395 2.15274 15.2811 2.36154 15.2811C2.51274 15.2811 2.63034 15.3051 2.69994 15.4059L2.71674 14.7579C2.72634 14.5635 2.45754 14.5659 2.28474 14.6259C2.34954 14.4027 2.48154 14.2803 2.78874 14.3115C2.74168 14.2934 2.70151 14.2609 2.67394 14.2187C2.64636 14.1765 2.63279 14.1266 2.63514 14.0763C2.63514 13.8939 2.78394 13.6923 2.87994 13.6323L2.92794 15.5283V15.5307Z" fill="#FFEC2D"/>
<path d="M2.87995 22.2482C2.87995 22.2482 3.11035 22.445 3.18955 22.3466C3.31435 22.1906 2.80075 21.4106 2.80075 21.137C2.80075 20.6858 3.10315 20.5634 3.47275 20.501C3.72235 20.4578 4.12795 20.5178 4.12795 20.5178C4.05115 20.621 4.00075 20.6522 3.87355 20.6594C4.01755 20.7314 4.16155 20.8946 4.16155 21.1466C4.16155 21.533 4.00315 21.6938 4.00315 22.1306C4.00315 22.3682 4.19995 22.6802 4.19995 22.6802C3.84955 22.6442 3.67675 22.3202 3.77515 22.061C3.74814 22.0556 3.72023 22.0569 3.69386 22.0649C3.66749 22.0729 3.64349 22.0872 3.62395 22.1066C3.59995 22.0346 3.63835 21.9506 3.69355 21.8786C3.65035 21.8546 3.61675 21.869 3.54955 21.8834C3.55435 21.8114 3.59755 21.7298 3.70795 21.6554C3.39115 21.737 3.19915 21.5186 3.19915 21.2882C3.19915 21.113 3.31915 20.9882 3.43915 20.9882C3.47755 20.9882 3.53515 21.005 3.56635 21.029C3.59035 20.981 3.57595 20.9162 3.55435 20.8682C3.64075 20.8922 3.69835 20.945 3.65755 21.053C3.72475 21.0578 3.77755 21.0818 3.81355 21.125C3.77755 21.173 3.72235 21.197 3.65755 21.197C3.70555 21.2978 3.65035 21.353 3.57115 21.3986C3.57115 21.3986 3.62155 21.197 3.49435 21.197C3.43675 21.197 3.38395 21.2138 3.38395 21.3002C3.38395 21.3746 3.44875 21.4778 3.59995 21.4706C3.74875 21.4634 3.87115 21.3674 3.87115 21.1274C3.87115 20.9066 3.69115 20.7962 3.45595 20.7914C3.24475 20.7818 3.08395 20.897 3.08395 21.1154C3.08395 21.4082 3.50395 22.0706 3.50395 22.3298C3.50395 22.5242 3.33115 22.6346 3.15835 22.6346C2.93755 22.6346 2.75035 22.4138 2.75035 22.4138L2.87995 22.2506V22.2482Z" fill="#FFEC2D"/>
<path d="M2.83195 16.9898C2.83195 16.5026 3.26875 16.253 3.61195 16.253C4.07275 16.253 4.31995 16.529 4.31995 16.8914C4.31995 17.0954 4.28155 17.225 4.18795 17.4194L3.12715 19.6202C3.08872 19.7128 3.07229 19.813 3.07915 19.913C3.07915 20.1098 3.27115 20.2706 3.47035 20.273C3.65275 20.2802 3.85435 20.105 3.85435 19.9058C3.85435 19.6634 3.72715 19.5554 3.59755 19.5554C3.43915 19.5554 3.37675 19.6202 3.37675 19.733C3.37675 19.8098 3.41275 19.8434 3.46795 19.8434C3.60475 19.8434 3.56395 19.661 3.56395 19.661C3.58201 19.6644 3.59911 19.6717 3.61404 19.6824C3.62896 19.6931 3.64133 19.707 3.65027 19.723C3.65921 19.7391 3.6645 19.7569 3.66576 19.7752C3.66702 19.7935 3.66421 19.8119 3.65755 19.829C3.70892 19.8406 3.75521 19.8683 3.78955 19.9082C3.75355 19.9442 3.71035 19.9706 3.65755 19.9802C3.68875 20.0858 3.64555 20.1362 3.55435 20.1602C3.57076 20.1242 3.57497 20.0837 3.56635 20.045C3.42235 20.0882 3.19915 20.021 3.19915 19.7714C3.19915 19.5218 3.37195 19.313 3.69595 19.3634C3.61915 19.3274 3.58075 19.253 3.57115 19.169C3.63115 19.193 3.69595 19.193 3.69595 19.193C3.65755 19.1282 3.60475 19.073 3.60715 18.9386C3.66715 18.9674 3.72475 19.0178 3.79915 18.9866C3.67915 18.7466 3.82795 18.4202 4.20715 18.3434C4.06795 18.5066 4.00075 18.6794 4.00075 18.8546C4.00075 19.4186 4.15675 19.5122 4.15675 19.9058C4.15428 19.9971 4.13014 20.0865 4.08632 20.1666C4.04251 20.2468 3.98027 20.3153 3.90475 20.3666V20.3594C3.95119 20.369 3.99509 20.3882 4.03356 20.416C4.07203 20.4437 4.10419 20.4792 4.12795 20.5202C3.86059 20.5939 3.57796 20.5914 3.31195 20.513C3.22297 20.5005 3.13795 20.468 3.06318 20.4182C2.98841 20.3683 2.92579 20.3023 2.87995 20.225C2.83203 20.1157 2.80729 19.9976 2.80729 19.8782C2.80729 19.7589 2.83203 19.6408 2.87995 19.5314C3.03115 19.2194 3.73675 17.717 3.95755 17.2466C4.00555 17.1458 4.03195 17.0402 4.03195 16.925C4.03195 16.637 3.76795 16.5362 3.61915 16.5362C3.43915 16.5362 3.25435 16.673 3.25435 16.8434C3.25435 16.9514 3.31435 17.0186 3.39835 17.0186C3.60235 17.0186 3.59035 16.8458 3.54955 16.7354C3.67675 16.793 3.74875 16.8938 3.72955 16.9994C3.8083 17.0127 3.87977 17.0535 3.93115 17.1146C3.88315 17.177 3.82075 17.225 3.72955 17.2274C3.77035 17.393 3.65755 17.4626 3.54955 17.501C3.58315 17.381 3.60715 17.2394 3.39835 17.2394C3.24715 17.2394 3.12955 17.2154 3.05995 17.1146L3.04315 17.7626C3.03355 17.957 3.30235 17.9546 3.47515 17.8946C3.41035 18.1178 3.27835 18.2402 2.97115 18.209C3.01821 18.2271 3.05838 18.2596 3.08595 18.3018C3.11352 18.344 3.1271 18.3939 3.12475 18.4442C3.12475 18.6266 2.97595 18.8282 2.87995 18.8882L2.83195 16.9922V16.9898Z" fill="#FFEC2D"/>
<path d="M2.83195 15.5307C2.83195 16.0179 3.26875 16.2675 3.61195 16.2675C4.07275 16.2675 4.31995 15.9915 4.31995 15.6291C4.31995 15.4251 4.28155 15.2955 4.18795 15.1011L3.12715 12.9003C3.08872 12.8077 3.07229 12.7075 3.07915 12.6075C3.07915 12.4107 3.27115 12.2499 3.47035 12.2475C3.65275 12.2403 3.85435 12.4155 3.85435 12.6147C3.85435 12.8571 3.72715 12.9651 3.59755 12.9651C3.43915 12.9651 3.37675 12.9003 3.37675 12.7875C3.37675 12.7107 3.41275 12.6771 3.46795 12.6771C3.60475 12.6771 3.56395 12.8595 3.56395 12.8595C3.58201 12.8561 3.59911 12.8488 3.61404 12.8381C3.62896 12.8274 3.64133 12.8135 3.65027 12.7975C3.65921 12.7814 3.6645 12.7636 3.66576 12.7453C3.66702 12.727 3.66421 12.7086 3.65755 12.6915C3.70892 12.6799 3.75521 12.6522 3.78955 12.6123C3.75355 12.5763 3.71035 12.5499 3.65755 12.5403C3.68875 12.4347 3.64555 12.3843 3.55435 12.3603C3.57076 12.3963 3.57497 12.4368 3.56635 12.4755C3.42235 12.4323 3.19915 12.4995 3.19915 12.7491C3.19915 12.9987 3.37195 13.2075 3.69595 13.1571C3.61915 13.1931 3.58075 13.2675 3.57115 13.3515C3.63115 13.3275 3.69595 13.3275 3.69595 13.3275C3.65755 13.3923 3.60475 13.4475 3.60715 13.5819C3.66715 13.5531 3.72475 13.5027 3.79915 13.5339C3.67915 13.7739 3.82795 14.1003 4.20715 14.1771C4.06795 14.0139 4.00075 13.8411 4.00075 13.6659C4.00075 13.1019 4.15675 13.0083 4.15675 12.6147C4.15428 12.5234 4.13014 12.434 4.08632 12.3539C4.04251 12.2738 3.98027 12.2052 3.90475 12.1539V12.1611C3.95119 12.1515 3.99509 12.1323 4.03356 12.1046C4.07203 12.0768 4.10419 12.0413 4.12795 12.0003C3.86059 11.9266 3.57796 11.9291 3.31195 12.0075C3.22297 12.0201 3.13795 12.0525 3.06318 12.1023C2.98841 12.1522 2.92579 12.2182 2.87995 12.2955C2.83203 12.4048 2.80729 12.5229 2.80729 12.6423C2.80729 12.7616 2.83203 12.8797 2.87995 12.9891C3.03115 13.3011 3.73675 14.8035 3.95755 15.2739C4.00555 15.3747 4.03195 15.4803 4.03195 15.5955C4.03195 15.8835 3.76795 15.9843 3.61915 15.9843C3.43915 15.9843 3.25435 15.8475 3.25435 15.6771C3.25435 15.5691 3.31435 15.5019 3.39835 15.5019C3.60235 15.5019 3.59035 15.6747 3.54955 15.7851C3.67675 15.7275 3.74875 15.6267 3.72955 15.5211C3.8083 15.5078 3.87977 15.467 3.93115 15.4059C3.88315 15.3435 3.82075 15.2955 3.72955 15.2931C3.77035 15.1275 3.65755 15.0579 3.54955 15.0195C3.58315 15.1395 3.60715 15.2811 3.39835 15.2811C3.24715 15.2811 3.12955 15.3051 3.05995 15.4059L3.04315 14.7579C3.03355 14.5635 3.30235 14.5659 3.47515 14.6259C3.41035 14.4027 3.27835 14.2803 2.97115 14.3115C3.01821 14.2934 3.05838 14.2609 3.08595 14.2187C3.11352 14.1765 3.1271 14.1266 3.12475 14.0763C3.12475 13.8939 2.97595 13.6923 2.87995 13.6323L2.83195 15.5283V15.5307Z" fill="#FFEC2D"/>
</g>
<defs>
<clipPath id="clip0_990_33644">
<rect width="24" height="24" rx="6" fill="white"/>
</clipPath>
</defs>
</svg>
