<svg width="24" height="24" viewBox="0 0 24 24" fill="none" xmlns="http://www.w3.org/2000/svg">
<g clip-path="url(#clip0_916_39606)">
<mask id="mask0_916_39606" style="mask-type:luminance" maskUnits="userSpaceOnUse" x="-1" y="0" width="25" height="25">
<path d="M-0.00378418 0H23.9985V24.0023H0.00198136L-0.00378418 0Z" fill="white"/>
</mask>
<g mask="url(#mask0_916_39606)">
<path fill-rule="evenodd" clip-rule="evenodd" d="M-6 0H30.0352V24.0023H-6V0Z" fill="#FF0000"/>
<path fill-rule="evenodd" clip-rule="evenodd" d="M4.94314 12.2404C5.58313 11.462 6.90922 12.2231 7.99316 11.6638C6.70742 11.733 6.00978 11.0469 4.99503 11.1449C6.04438 10.4992 6.93805 11.3525 8.11424 11.0066C6.55752 10.8797 6.62671 10.1821 5.21413 10.0841C6.47103 9.54786 7.08796 10.6376 8.3218 10.3896C6.86886 10.0552 6.6786 9.20192 5.60042 9.01742C7.17444 8.78103 7.07066 9.7093 8.61585 9.82461C7.0476 9.1558 7.46272 8.5677 6.14816 8.06033C7.61839 8.02573 7.52038 9.04048 9.00214 9.3057C7.73371 8.49852 7.88938 7.76052 6.84003 7.18395C8.08541 7.20702 8.20649 8.48122 9.47492 8.87328C8.34486 7.97961 8.63891 7.21855 7.66452 6.41713C8.89836 6.70541 8.71963 7.80664 10.0054 8.50428C9.05403 7.44917 9.41727 6.68811 8.58702 5.8175C9.77474 6.2038 9.32502 7.24737 10.5589 8.23906C9.84969 7.07441 10.2879 6.33064 9.59024 5.34472C10.6972 5.92128 10.161 6.98216 11.1873 8.04303C10.703 6.84955 11.1873 6.10578 10.6915 5.04491C11.637 5.75408 11.0778 6.88991 11.8388 7.97961C11.5621 6.48055 12.2078 6.23263 12.006 4.92383C12.721 5.80597 11.9195 6.68811 12.4673 7.97961C12.4096 6.50937 13.188 6.16344 13.0496 4.98148C13.7645 6.04236 12.6518 6.96486 13.1188 8.10069C13.2341 6.69964 14.1566 6.34217 14.1739 5.25247C14.7332 6.24992 13.5109 6.97062 13.7127 8.29672C14.1105 6.83225 15.0906 6.65352 15.2117 5.66759C15.5461 6.82072 14.2085 7.36269 14.2892 8.64266C14.687 7.34539 15.9094 7.18972 16.163 6.23262C16.313 7.45494 15.1079 7.67403 14.7735 9.02319C15.4078 7.92772 16.5148 7.8297 17.0106 6.95909C16.9702 8.16987 15.6095 8.32555 15.1944 9.46138C15.9785 8.49852 16.9587 8.66572 17.7428 7.81241C17.6621 8.90788 16.2784 8.84445 15.5404 9.97452C16.3937 9.19039 17.6736 9.42678 18.3252 8.7522C18.2906 9.71506 16.5955 9.64587 15.7883 10.505C16.78 9.96875 18.0311 10.2859 18.7576 9.77848C18.6192 10.626 16.8319 10.4358 15.967 11.093C17.149 10.7644 18.0599 11.266 19.0228 10.9028C18.5558 11.7273 16.9299 11.2084 16.065 11.7446C17.0913 11.5716 18.181 12.1885 19.115 11.9925C18.8095 12.7017 17.0279 11.9464 16.0593 12.3961C17.2124 12.3788 17.9619 13.1168 19.0228 13.0649C18.4462 13.7106 16.878 12.8227 15.967 12.9726C17.0798 13.2033 17.9273 14.1258 18.7749 14.1719C18.083 14.7023 16.7857 13.4915 15.7306 13.6472C16.8146 13.9355 17.7255 15.1693 18.3482 15.1982C17.6794 15.6594 16.3533 14.1431 15.4481 14.195C16.5436 14.6966 17.051 15.9535 17.7774 16.1322C16.8838 16.4205 16.0016 14.7658 15.0388 14.7081C16.1515 15.4115 16.2149 16.4839 17.074 16.9567C16.1746 17.1873 15.5288 15.3135 14.5775 15.1578C15.4942 15.8266 15.6268 17.2623 16.238 17.7177C15.3155 17.7639 14.9869 15.8093 14.0471 15.5268C14.8543 16.2014 14.6582 17.6601 15.2809 18.2885C14.3296 18.0925 14.4507 16.3859 13.4532 15.8093C14.1681 16.7203 13.7991 18.006 14.2719 18.7325C13.3379 18.3577 13.7473 16.8298 12.8536 15.965C13.3379 16.9336 12.819 18.0579 13.1995 18.992C12.352 18.5768 12.9228 16.7722 12.2713 16.0515C12.5711 17.17 12.0176 18.0925 12.2424 19.09C11.3718 18.081 12.375 17.072 11.6197 16.0342C11.8158 17.2219 10.9913 18.0406 11.1239 19.0323C10.432 18.2251 11.4929 16.9279 10.9567 15.9131C11.072 17.072 10.0054 18.0868 10.0803 18.819C9.52105 17.885 10.703 16.778 10.3859 15.7113C10.3167 16.8183 9.2443 17.4179 9.0425 18.4212C8.67927 17.3142 9.95924 16.5127 9.84969 15.423C9.48069 16.4608 8.44288 16.876 8.07388 17.8792C7.77407 16.7722 9.29042 16.1841 9.33078 15.0194C8.86377 16.1149 7.61839 16.3513 7.20903 17.1873C7.05336 16.0918 8.79458 15.596 8.858 14.5524C8.29874 15.5556 6.93805 15.5902 6.46527 16.3917C6.39608 15.2962 8.22955 15.1578 8.51783 14.0105C7.95857 14.8638 6.46527 14.76 5.84835 15.4519C5.94636 14.4313 7.92397 14.3679 8.24108 13.457C7.50308 14.1661 6.13663 13.8721 5.35827 14.4371C5.79069 13.4339 7.65299 13.6472 8.06811 12.9208C7.24939 13.3532 5.79069 12.938 5.06999 13.3647C5.72727 12.4191 7.17444 12.9842 7.99316 12.3269C6.6613 12.5229 5.85988 11.9925 4.93738 12.2404H4.94314Z" fill="#FFFF00"/>
<path fill-rule="evenodd" clip-rule="evenodd" d="M16.682 12.004C16.704 12.6284 16.6 13.2509 16.3762 13.8342C16.1524 14.4176 15.8134 14.9499 15.3795 15.3994C14.9455 15.8489 14.4255 16.2064 13.8503 16.4506C13.2752 16.6948 12.6568 16.8206 12.032 16.8206C11.4072 16.8206 10.7888 16.6948 10.2137 16.4506C9.63856 16.2064 9.1185 15.8489 8.68454 15.3994C8.25058 14.9499 7.9116 14.4176 7.68782 13.8342C7.46404 13.2509 7.36004 12.6284 7.38203 12.004C7.42447 10.7991 7.93295 9.65768 8.80036 8.82029C9.66776 7.98289 10.8263 7.51489 12.032 7.51489C13.2377 7.51489 14.3963 7.98289 15.2637 8.82029C16.1311 9.65768 16.6396 10.7991 16.682 12.004Z" fill="#FFFF00"/>
<path fill-rule="evenodd" clip-rule="evenodd" d="M16.0823 12.0155C16.0823 12.5463 15.9778 13.0719 15.7747 13.5622C15.5715 14.0526 15.2738 14.4981 14.8985 14.8734C14.5232 15.2488 14.0777 15.5465 13.5873 15.7496C13.0969 15.9527 12.5714 16.0572 12.0406 16.0572C11.5098 16.0572 10.9843 15.9527 10.4939 15.7496C10.0035 15.5465 9.558 15.2488 9.18269 14.8734C8.80738 14.4981 8.50967 14.0526 8.30656 13.5622C8.10344 13.0719 7.9989 12.5463 7.9989 12.0155C7.9989 10.9428 8.42503 9.91409 9.18353 9.15558C9.94204 8.39707 10.9708 7.97095 12.0435 7.97095C13.1162 7.97095 14.1449 8.39707 14.9034 9.15558C15.6619 9.91409 16.0881 10.9428 16.0881 12.0155H16.0823Z" fill="#FF0000"/>
<path fill-rule="evenodd" clip-rule="evenodd" d="M15.523 12.0214C15.523 12.9427 15.157 13.8263 14.5056 14.4777C13.8541 15.1292 12.9705 15.4952 12.0492 15.4952C11.1279 15.4952 10.2443 15.1292 9.59289 14.4777C8.94143 13.8263 8.57544 12.9427 8.57544 12.0214C8.57544 11.1001 8.94143 10.2165 9.59289 9.56506C10.2443 8.9136 11.1279 8.54761 12.0492 8.54761C12.9705 8.54761 13.8541 8.9136 14.5056 9.56506C15.157 10.2165 15.523 11.1001 15.523 12.0214Z" fill="#FFFF00"/>
<path fill-rule="evenodd" clip-rule="evenodd" d="M9.09441 9.7439C10.0573 9.7266 11.2508 9.81309 12.0406 10.4473C12.8867 9.91769 13.8834 9.68068 14.8773 9.77273L15.3962 10.7183C14.6467 10.6433 13.9145 10.7471 13.0496 11.0988C13.5753 11.4866 13.9979 11.9974 14.2803 12.5865C14.5628 13.1755 14.6965 13.8248 14.6698 14.4775C14.5429 14.6389 14.3469 14.8119 14.2201 14.9676C14.4046 13.6357 13.7011 12.1424 12.6749 11.3583C13.5051 12.5633 14.001 13.6415 13.8626 15.1348L13.3898 15.4288C13.6089 14.1142 13.3033 12.5748 12.3289 11.6811C12.7012 12.2315 12.9611 12.8499 13.0936 13.501C13.2262 14.152 13.2289 14.8228 13.1015 15.4749C12.9516 15.5211 12.721 15.6479 12.5653 15.694C12.7492 15.0784 12.7991 14.4305 12.7116 13.794C12.6241 13.1575 12.4012 12.5471 12.0579 12.004C11.7212 12.5435 11.5032 13.1486 11.4187 13.7789C11.3342 14.4092 11.3851 15.0503 11.5679 15.6594L11.072 15.5153C10.8068 14.1027 11.1758 12.5172 11.8158 11.6869C11.1643 12.0674 10.5473 13.6876 10.7203 15.3423L10.2821 15.1405C10.0688 13.9067 10.6281 12.2981 11.4353 11.3698C10.5243 11.9464 9.78052 13.3532 9.91313 14.8695C9.77475 14.7485 9.64214 14.685 9.50377 14.564C9.34233 13.2379 10.1092 11.906 11.0028 11.1046C10.2643 10.7918 9.46187 10.6594 8.66199 10.7183C8.80613 10.4127 8.95027 10.0552 9.09441 9.74967V9.7439Z" fill="#FF0000"/>
</g>
</g>
<defs>
<clipPath id="clip0_916_39606">
<rect width="24" height="24" rx="6" fill="white"/>
</clipPath>
</defs>
</svg>
