<svg width="24" height="24" viewBox="0 0 24 24" fill="none" xmlns="http://www.w3.org/2000/svg">
<g clip-path="url(#clip0_916_39110)">
<path d="M0 0H24V24H0V0Z" fill="#DA2032"/>
<path d="M8.00159 0H15.9985V24H8.00159V0Z" fill="#0066B3"/>
<path d="M3.99841 10.8562C4.90451 10.8562 5.63904 10.1217 5.63904 9.21558C5.63904 8.30948 4.90451 7.57495 3.99841 7.57495C3.09232 7.57495 2.35779 8.30948 2.35779 9.21558C2.35779 10.1217 3.09232 10.8562 3.99841 10.8562Z" fill="#FFD900"/>
<path d="M3.99839 10.2609C4.98732 10.2609 5.78901 9.45925 5.78901 8.47031C5.78901 7.48138 4.98732 6.67969 3.99839 6.67969C3.00945 6.67969 2.20776 7.48138 2.20776 8.47031C2.20776 9.45925 3.00945 10.2609 3.99839 10.2609Z" fill="#DA2032"/>
<path d="M3.99841 9.96094C4.65857 9.96094 5.19373 9.42578 5.19373 8.76562C5.19373 8.10547 4.65857 7.57031 3.99841 7.57031C3.33826 7.57031 2.8031 8.10547 2.8031 8.76562C2.8031 9.42578 3.33826 9.96094 3.99841 9.96094Z" fill="#FFD900"/>
<path d="M4.12498 4.88916C4.06369 4.91539 4.01099 4.95829 3.97287 5.01298C3.93475 5.06767 3.91275 5.13196 3.90935 5.19854C3.89998 5.30166 3.94685 5.41416 3.95154 5.5126C3.95154 5.68603 3.77341 5.74228 3.77341 5.98603C3.77341 6.07041 3.8531 6.16416 3.8531 6.37979C3.83904 6.49697 3.77341 6.52041 3.7031 6.52979C3.66332 6.52979 3.62516 6.51398 3.59703 6.48585C3.5689 6.45772 3.5531 6.41957 3.5531 6.37979C3.5534 6.34127 3.56851 6.30434 3.59529 6.27666C3.59966 6.27167 3.60436 6.26697 3.60935 6.2626C3.64216 6.22979 3.68904 6.21572 3.68904 6.12197C3.68904 6.0751 3.66091 6.0376 3.63279 5.95322C3.61981 5.90366 3.61812 5.85181 3.62786 5.80151C3.6376 5.75121 3.6585 5.70374 3.68904 5.6626C3.58591 5.7001 3.52029 5.80322 3.48748 5.89228C3.45466 6.0001 3.48279 6.06572 3.43591 6.15947C3.40779 6.21572 3.37029 6.23916 3.34216 6.29072C3.29998 6.34697 3.25779 6.46885 3.25779 6.52979C3.27837 6.71305 3.36576 6.8823 3.50325 7.00521C3.64073 7.12812 3.81868 7.19606 4.0031 7.19606C4.18752 7.19606 4.36547 7.12812 4.50295 7.00521C4.64044 6.8823 4.72783 6.71305 4.74841 6.52979C4.74841 6.46885 4.70154 6.34228 4.66404 6.29072C4.63123 6.24385 4.59373 6.21572 4.57029 6.15947C4.52341 6.06572 4.55154 6.0001 4.51404 5.89228C4.48123 5.79853 4.42029 5.70478 4.31248 5.65791C4.34451 5.69921 4.36666 5.7473 4.37723 5.79849C4.38779 5.84968 4.38649 5.90261 4.37341 5.95322C4.3406 6.0376 4.31248 6.07978 4.31248 6.12666C4.31248 6.21572 4.35935 6.22978 4.39216 6.26728C4.39702 6.27014 4.40172 6.27327 4.40623 6.27666C4.43473 6.30359 4.45155 6.3406 4.4531 6.37979C4.45311 6.39988 4.44908 6.41978 4.44125 6.43829C4.43342 6.4568 4.42195 6.47355 4.40752 6.48754C4.39309 6.50154 4.376 6.51248 4.35726 6.51974C4.33851 6.527 4.3185 6.53041 4.29841 6.52979C4.21873 6.52041 4.15779 6.48291 4.14841 6.37979C4.14841 6.09385 4.27498 6.0751 4.27498 5.86416C4.27498 5.55947 4.0031 5.41416 4.0031 5.19385C4.0031 5.11885 4.01716 4.99229 4.12498 4.88916ZM0.717163 11.1517H2.21248V18.3142H0.717163V11.1517ZM5.78904 11.1517H7.27966V18.3142H5.78904V11.1517ZM2.50779 11.1517H5.49373L3.99841 12.047L2.50779 11.1517ZM2.50779 12.347H5.49373V12.9376H2.50779V12.347ZM2.50779 16.5188H5.49373V17.1188H2.50779V16.5188ZM2.50779 17.4188H5.49373L3.99841 18.3095L2.50779 17.4188Z" fill="#FFD900"/>
<path d="M3.99844 16.2234C4.82169 16.2234 5.48906 15.5561 5.48906 14.7328C5.48906 13.9096 4.82169 13.2422 3.99844 13.2422C3.17519 13.2422 2.50781 13.9096 2.50781 14.7328C2.50781 15.5561 3.17519 16.2234 3.99844 16.2234Z" fill="#FFD900"/>
<path d="M3.99715 14.2399C4.16189 14.2399 4.29544 14.1063 4.29544 13.9416C4.29544 13.7769 4.16189 13.6433 3.99715 13.6433C3.8324 13.6433 3.69885 13.7769 3.69885 13.9416C3.69885 14.1063 3.8324 14.2399 3.99715 14.2399Z" fill="#DA2032"/>
<path d="M3.99715 15.8207C4.16189 15.8207 4.29544 15.6872 4.29544 15.5224C4.29544 15.3577 4.16189 15.2241 3.99715 15.2241C3.8324 15.2241 3.69885 15.3577 3.69885 15.5224C3.69885 15.6872 3.8324 15.8207 3.99715 15.8207Z" fill="#DA2032"/>
<path d="M3.99715 13.0615C4.23054 13.0615 4.45436 13.1542 4.61938 13.3193C4.78441 13.4843 4.87712 13.7081 4.87712 13.9415C4.87712 14.1749 4.78441 14.3987 4.61938 14.5637C4.45436 14.7287 4.23054 14.8215 3.99715 14.8215C3.81124 14.8215 3.63294 14.8953 3.50148 15.0268C3.37002 15.1582 3.29616 15.3365 3.29616 15.5224C3.29616 15.7084 3.37002 15.8867 3.50148 16.0181C3.63294 16.1496 3.81124 16.2234 3.99715 16.2234V16.4024C3.76377 16.4024 3.53995 16.3097 3.37492 16.1447C3.2099 15.9797 3.11719 15.7558 3.11719 15.5224C3.11719 15.2891 3.2099 15.0652 3.37492 14.9002C3.53995 14.7352 3.76377 14.6425 3.99715 14.6425C4.18307 14.6425 4.36137 14.5686 4.49283 14.4372C4.62429 14.3057 4.69814 14.1274 4.69814 13.9415C4.69814 13.7556 4.62429 13.5773 4.49283 13.4458C4.36137 13.3144 4.18307 13.2405 3.99715 13.2405V13.0615Z" fill="#DA2032"/>
</g>
<defs>
<clipPath id="clip0_916_39110">
<rect width="24" height="24" rx="6" fill="white"/>
</clipPath>
</defs>
</svg>
