<svg width="24" height="24" viewBox="0 0 24 24" fill="none" xmlns="http://www.w3.org/2000/svg">
<g clip-path="url(#clip0_990_33567)">
<path d="M0 0H24V24H0V0Z" fill="#006600"/>
<path d="M0 0H24V17.1422H0V0Z" fill="white"/>
<path d="M0 0H24V6.85781H0V0Z" fill="#CC0000"/>
<path d="M11.0401 11.6812C11.0869 11.6007 11.1586 11.5376 11.2444 11.5015C11.3303 11.4654 11.4255 11.4583 11.5158 11.4811C11.606 11.504 11.6864 11.5556 11.7447 11.6282C11.803 11.7008 11.8361 11.7904 11.8389 11.8835V13.5977H12.1612V11.8835C12.1641 11.7904 12.1972 11.7008 12.2555 11.6282C12.3138 11.5556 12.3941 11.504 12.4844 11.4811C12.5746 11.4583 12.6699 11.4654 12.7557 11.5015C12.8415 11.5376 12.9133 11.6007 12.9601 11.6812C13.0105 11.5292 13.0241 11.3674 12.9998 11.2091C12.9754 11.0508 12.9139 10.9006 12.8202 10.7707C12.7264 10.6409 12.6032 10.5352 12.4606 10.4623C12.3181 10.3893 12.1602 10.3513 12.0001 10.3513C11.8399 10.3513 11.6821 10.3893 11.5395 10.4623C11.397 10.5352 11.2737 10.6409 11.18 10.7707C11.0863 10.9006 11.0247 11.0508 11.0004 11.2091C10.9761 11.3674 10.9897 11.5292 11.0401 11.6812Z" fill="#F8C300"/>
<path d="M11.2698 11.2318C11.4106 11.2032 11.5569 11.2196 11.688 11.2787C11.819 11.3377 11.9282 11.4365 12.0001 11.5609C12.0719 11.4365 12.1811 11.3377 12.3121 11.2787C12.4432 11.2196 12.5895 11.2032 12.7303 11.2318C12.7061 11.0553 12.6188 10.8936 12.4845 10.7765C12.3503 10.6595 12.1782 10.595 12.0001 10.595C11.8219 10.595 11.6498 10.6595 11.5156 10.7765C11.3813 10.8936 11.294 11.0553 11.2698 11.2318Z" fill="white"/>
<path d="M11.8389 12.9119C11.8168 13.1547 11.7269 13.3865 11.5795 13.5808C11.4321 13.7752 11.2331 13.9242 11.0052 14.011C10.7773 14.0978 10.5296 14.1189 10.2902 14.0719C10.0509 14.0249 9.82961 13.9116 9.65149 13.745C9.57558 13.9365 9.45698 14.1082 9.30473 14.2469C9.15248 14.3857 8.97058 14.4879 8.77287 14.5457C8.57517 14.6036 8.36687 14.6156 8.16383 14.5808C7.9608 14.546 7.76837 14.4654 7.6012 14.345C7.72805 15.593 9.60006 15.3393 9.7372 14.1256C10.3269 15.1576 11.6229 14.8627 12.0001 13.5976L11.8389 12.9119Z" fill="#F8C300"/>
<path d="M12.1612 12.9119C12.1834 13.1547 12.2733 13.3865 12.4207 13.5808C12.568 13.7752 12.767 13.9242 12.9949 14.011C13.2229 14.0978 13.4706 14.1189 13.7099 14.0719C13.9492 14.0249 14.1705 13.9116 14.3486 13.745C14.4245 13.9365 14.5431 14.1082 14.6954 14.2469C14.8476 14.3857 15.0295 14.4879 15.2272 14.5457C15.425 14.6036 15.6333 14.6156 15.8363 14.5808C16.0393 14.546 16.2318 14.4654 16.3989 14.345C16.2721 15.593 14.4001 15.3393 14.2629 14.1256C13.6732 15.1576 12.3772 14.8627 12.0001 13.5976L12.1612 12.9119Z" fill="#F8C300"/>
<path d="M10.5874 15.1303C10.3269 15.696 9.80573 15.792 9.34973 15.336C9.34973 15.336 9.53145 15.2057 9.72688 15.1714C9.71493 15.0839 9.72192 14.9949 9.74735 14.9103C9.77278 14.8257 9.81608 14.7476 9.8743 14.6812C10.0209 14.7762 10.13 14.9192 10.1829 15.0857C10.4572 15.0514 10.5874 15.1303 10.5874 15.1303Z" fill="#F8C300"/>
<path d="M12.6375 15.0664C12.288 15.582 11.7582 15.5916 11.3828 15.0672C11.3828 15.0672 11.5833 14.9683 11.7817 14.9664C11.7843 14.8782 11.8057 14.7914 11.8446 14.7121C11.8835 14.6328 11.939 14.5628 12.0073 14.5068C12.1364 14.6245 12.2206 14.7834 12.2456 14.9564C12.5218 14.9673 12.6375 15.0664 12.6375 15.0664Z" fill="#F8C300"/>
<path d="M14.649 15.3337C14.2208 15.786 13.6964 15.7099 13.4106 15.1318C13.4106 15.1318 13.6245 15.0666 13.8206 15.0968C13.8374 15.0101 13.8726 14.928 13.9238 14.856C13.975 14.784 14.041 14.7239 14.1175 14.6797C14.2259 14.8167 14.2833 14.9871 14.2801 15.1618C14.5509 15.2173 14.649 15.3337 14.649 15.3337Z" fill="#F8C300"/>
<path d="M8.67432 16.3885C10.8444 15.7426 13.1557 15.7426 15.3258 16.3885" stroke="#F8C300" stroke-width="1.46286"/>
<path d="M12.8376 7.95637L11.4825 8.94089L12.0001 7.3479L12.5177 8.94089L11.1626 7.95637H12.8376Z" fill="#F8C300"/>
<path d="M10.4375 8.6009L9.08246 9.58543L9.60006 7.99243L10.1177 9.58543L8.76257 8.6009H10.4375Z" fill="#F8C300"/>
<path d="M8.68205 10.3563L7.32697 11.3408L7.84457 9.7478L8.36216 11.3408L7.00708 10.3563H8.68205Z" fill="#F8C300"/>
<path d="M8.03752 12.7564L6.68244 13.7409L7.20004 12.1479L7.71763 13.7409L6.36255 12.7564H8.03752Z" fill="#F8C300"/>
<path d="M13.5626 8.6009L14.9177 9.58543L14.4001 7.99243L13.8825 9.58543L15.2375 8.6009H13.5626Z" fill="#F8C300"/>
<path d="M15.3181 10.3563L16.6732 11.3408L16.1556 9.7478L15.638 11.3408L16.993 10.3563H15.3181Z" fill="#F8C300"/>
<path d="M15.9626 12.7564L17.3177 13.7409L16.8001 12.1479L16.2825 13.7409L17.6376 12.7564H15.9626Z" fill="#F8C300"/>
</g>
<defs>
<clipPath id="clip0_990_33567">
<rect width="24" height="24" rx="6" fill="white"/>
</clipPath>
</defs>
</svg>
