<svg width="24" height="24" viewBox="0 0 24 24" fill="none" xmlns="http://www.w3.org/2000/svg">
<g clip-path="url(#clip0_916_39111)">
<path fill-rule="evenodd" clip-rule="evenodd" d="M0 0H24V24H0V0Z" fill="#E30A17"/>
<path fill-rule="evenodd" clip-rule="evenodd" d="M16.35 12.375C16.35 15.6843 13.6171 18.3703 10.2515 18.3703C6.88589 18.3703 4.15308 15.6843 4.15308 12.3703C4.15308 9.0562 6.8812 6.37964 10.2468 6.37964C13.6125 6.37964 16.3546 9.06089 16.3546 12.375H16.35Z" fill="white"/>
<path fill-rule="evenodd" clip-rule="evenodd" d="M16.6547 12.3749C16.6547 15.0233 14.4703 17.1702 11.775 17.1702C9.07971 17.1702 6.90002 15.0233 6.90002 12.3749C6.90002 9.72646 9.07971 7.57959 11.775 7.57959C14.4703 7.57959 16.65 9.72646 16.65 12.3749H16.6547Z" fill="#E30A17"/>
<path fill-rule="evenodd" clip-rule="evenodd" d="M17.536 9.57178L17.4891 11.789L15.4172 12.3515L17.4563 13.078L17.4094 15.1077L18.736 13.5233L20.7469 14.2171L19.5844 12.5155L21 10.8233L18.825 11.4233L17.536 9.57178Z" fill="white"/>
</g>
<defs>
<clipPath id="clip0_916_39111">
<rect width="24" height="24" rx="6" fill="white"/>
</clipPath>
</defs>
</svg>
