<svg width="24" height="24" viewBox="0 0 24 24" fill="none" xmlns="http://www.w3.org/2000/svg">
<g clip-path="url(#clip0_916_39364)">
<path d="M0 15.9985H24V24.0001H0V15.9985Z" fill="#1EB53A"/>
<path d="M0 0H24V8.00156H0V0Z" fill="#0099B5"/>
<path d="M0 7.67822H24V16.322H0V7.67822Z" fill="#CE1126"/>
<path d="M0 8.15625H24V15.8438H0V8.15625Z" fill="white"/>
<path d="M6.72187 6.71719C8.31142 6.71719 9.6 5.42861 9.6 3.83906C9.6 2.24952 8.31142 0.960938 6.72187 0.960938C5.13233 0.960938 3.84375 2.24952 3.84375 3.83906C3.84375 5.42861 5.13233 6.71719 6.72187 6.71719Z" fill="white"/>
<path d="M7.67817 6.71719C9.26772 6.71719 10.5563 5.42861 10.5563 3.83906C10.5563 2.24952 9.26772 0.960938 7.67817 0.960938C6.08863 0.960938 4.80005 2.24952 4.80005 3.83906C4.80005 5.42861 6.08863 6.71719 7.67817 6.71719Z" fill="#0099B5"/>
<path d="M13.0547 5.56445L12.8723 6.11165L13.1507 6.20765" fill="white"/>
<path d="M13.0547 5.56445L13.2371 6.11165L12.9587 6.20765" fill="white"/>
<path d="M13.6025 5.96254L13.0257 5.95816L13.0205 6.2526" fill="white"/>
<path d="M13.6024 5.96251L13.1384 6.30508L12.9611 6.06997" fill="white"/>
<path d="M12.5069 5.96251L12.971 6.30508L13.1483 6.06997" fill="white"/>
<path d="M12.5069 5.96254L13.0837 5.95816L13.0889 6.2526" fill="white"/>
<path d="M13.3933 6.60648L13.2193 6.05657L12.9376 6.14255" fill="white"/>
<path d="M13.3933 6.60641L12.9241 6.27093L13.0929 6.02962" fill="white"/>
<path d="M12.7162 6.60641L13.1854 6.27093L13.0166 6.02962" fill="white"/>
<path d="M12.7162 6.60648L12.8902 6.05657L13.1719 6.14255" fill="white"/>
<path d="M13.0547 3.2605L12.8723 3.8077L13.1507 3.9037" fill="white"/>
<path d="M13.0547 3.2605L13.2371 3.8077L12.9587 3.9037" fill="white"/>
<path d="M13.6025 3.65858L13.0257 3.6542L13.0205 3.94864" fill="white"/>
<path d="M13.6024 3.65856L13.1384 4.00113L12.9611 3.76602" fill="white"/>
<path d="M12.5069 3.65856L12.971 4.00113L13.1483 3.76602" fill="white"/>
<path d="M12.5069 3.65858L13.0837 3.6542L13.0889 3.94864" fill="white"/>
<path d="M13.3933 4.30252L13.2193 3.75262L12.9376 3.83859" fill="white"/>
<path d="M13.3933 4.30246L12.9241 3.96697L13.0929 3.72567" fill="white"/>
<path d="M12.7162 4.30246L13.1854 3.96697L13.0166 3.72567" fill="white"/>
<path d="M12.7162 4.30252L12.8902 3.75262L13.1719 3.83859" fill="white"/>
<path d="M13.0547 0.956543L12.8723 1.50374L13.1507 1.59974" fill="white"/>
<path d="M13.0547 0.956543L13.2371 1.50374L12.9587 1.59974" fill="white"/>
<path d="M13.6025 1.35463L13.0257 1.35025L13.0205 1.64469" fill="white"/>
<path d="M13.6024 1.3546L13.1384 1.69717L12.9611 1.46206" fill="white"/>
<path d="M12.5069 1.3546L12.971 1.69717L13.1483 1.46206" fill="white"/>
<path d="M12.5069 1.35463L13.0837 1.35025L13.0889 1.64469" fill="white"/>
<path d="M13.3933 1.99857L13.2193 1.44866L12.9376 1.53464" fill="white"/>
<path d="M13.3933 1.9985L12.9241 1.66302L13.0929 1.42171" fill="white"/>
<path d="M12.7162 1.9985L13.1854 1.66302L13.0166 1.42171" fill="white"/>
<path d="M12.7162 1.99857L12.8902 1.44866L13.1719 1.53464" fill="white"/>
<path d="M15.3587 5.56445L15.1763 6.11165L15.4547 6.20765" fill="white"/>
<path d="M15.3586 5.56445L15.541 6.11165L15.2626 6.20765" fill="white"/>
<path d="M15.9065 5.96254L15.3297 5.95816L15.3244 6.2526" fill="white"/>
<path d="M15.9064 5.96251L15.4424 6.30508L15.265 6.06997" fill="white"/>
<path d="M14.8109 5.96251L15.2749 6.30508L15.4523 6.06997" fill="white"/>
<path d="M14.8108 5.96254L15.3876 5.95816L15.3929 6.2526" fill="white"/>
<path d="M15.6973 6.60648L15.5232 6.05657L15.2416 6.14255" fill="white"/>
<path d="M15.6972 6.60641L15.228 6.27093L15.3968 6.02962" fill="white"/>
<path d="M15.0202 6.60641L15.4894 6.27093L15.3206 6.02962" fill="white"/>
<path d="M15.0201 6.60648L15.1942 6.05657L15.4759 6.14255" fill="white"/>
<path d="M15.3587 3.2605L15.1763 3.8077L15.4547 3.9037" fill="white"/>
<path d="M15.3586 3.2605L15.541 3.8077L15.2626 3.9037" fill="white"/>
<path d="M15.9065 3.65858L15.3297 3.6542L15.3244 3.94864" fill="white"/>
<path d="M15.9064 3.65856L15.4424 4.00113L15.265 3.76602" fill="white"/>
<path d="M14.8109 3.65856L15.2749 4.00113L15.4523 3.76602" fill="white"/>
<path d="M14.8108 3.65858L15.3876 3.6542L15.3929 3.94864" fill="white"/>
<path d="M15.6973 4.30252L15.5232 3.75262L15.2416 3.83859" fill="white"/>
<path d="M15.6972 4.30246L15.228 3.96697L15.3968 3.72567" fill="white"/>
<path d="M15.0202 4.30246L15.4894 3.96697L15.3206 3.72567" fill="white"/>
<path d="M15.0201 4.30252L15.1942 3.75262L15.4759 3.83859" fill="white"/>
<path d="M15.3587 0.956543L15.1763 1.50374L15.4547 1.59974" fill="white"/>
<path d="M15.3586 0.956543L15.541 1.50374L15.2626 1.59974" fill="white"/>
<path d="M15.9065 1.35463L15.3297 1.35025L15.3244 1.64469" fill="white"/>
<path d="M15.9064 1.3546L15.4424 1.69717L15.265 1.46206" fill="white"/>
<path d="M14.8109 1.3546L15.2749 1.69717L15.4523 1.46206" fill="white"/>
<path d="M14.8108 1.35463L15.3876 1.35025L15.3929 1.64469" fill="white"/>
<path d="M15.6973 1.99857L15.5232 1.44866L15.2416 1.53464" fill="white"/>
<path d="M15.6972 1.9985L15.228 1.66302L15.3968 1.42171" fill="white"/>
<path d="M15.0202 1.9985L15.4894 1.66302L15.3206 1.42171" fill="white"/>
<path d="M15.0201 1.99857L15.1942 1.44866L15.4759 1.53464" fill="white"/>
<path d="M17.6626 5.56445L17.4802 6.11165L17.7586 6.20765" fill="white"/>
<path d="M17.6626 5.56445L17.845 6.11165L17.5666 6.20765" fill="white"/>
<path d="M18.2104 5.96254L17.6336 5.95816L17.6284 6.2526" fill="white"/>
<path d="M18.2104 5.96251L17.7463 6.30508L17.569 6.06997" fill="white"/>
<path d="M17.1148 5.96251L17.5789 6.30508L17.7562 6.06997" fill="white"/>
<path d="M17.1148 5.96254L17.6916 5.95816L17.6968 6.2526" fill="white"/>
<path d="M18.0012 6.60648L17.8272 6.05657L17.5455 6.14255" fill="white"/>
<path d="M18.0012 6.60641L17.532 6.27093L17.7008 6.02962" fill="white"/>
<path d="M17.3241 6.60641L17.7933 6.27093L17.6245 6.02962" fill="white"/>
<path d="M17.3241 6.60648L17.4981 6.05657L17.7798 6.14255" fill="white"/>
<path d="M17.6626 3.2605L17.4802 3.8077L17.7586 3.9037" fill="white"/>
<path d="M17.6626 3.2605L17.845 3.8077L17.5666 3.9037" fill="white"/>
<path d="M18.2104 3.65858L17.6336 3.6542L17.6284 3.94864" fill="white"/>
<path d="M18.2104 3.65856L17.7463 4.00113L17.569 3.76602" fill="white"/>
<path d="M17.1148 3.65856L17.5789 4.00113L17.7562 3.76602" fill="white"/>
<path d="M17.1148 3.65858L17.6916 3.6542L17.6968 3.94864" fill="white"/>
<path d="M18.0012 4.30252L17.8272 3.75262L17.5455 3.83859" fill="white"/>
<path d="M18.0012 4.30246L17.532 3.96697L17.7008 3.72567" fill="white"/>
<path d="M17.3241 4.30246L17.7933 3.96697L17.6245 3.72567" fill="white"/>
<path d="M17.3241 4.30252L17.4981 3.75262L17.7798 3.83859" fill="white"/>
<path d="M17.6626 0.956543L17.4802 1.50374L17.7586 1.59974" fill="white"/>
<path d="M17.6626 0.956543L17.845 1.50374L17.5666 1.59974" fill="white"/>
<path d="M18.2104 1.35463L17.6336 1.35025L17.6284 1.64469" fill="white"/>
<path d="M18.2104 1.3546L17.7463 1.69717L17.569 1.46206" fill="white"/>
<path d="M17.1148 1.3546L17.5789 1.69717L17.7562 1.46206" fill="white"/>
<path d="M17.1148 1.35463L17.6916 1.35025L17.6968 1.64469" fill="white"/>
<path d="M18.0012 1.99857L17.8272 1.44866L17.5455 1.53464" fill="white"/>
<path d="M18.0012 1.9985L17.532 1.66302L17.7008 1.42171" fill="white"/>
<path d="M17.3241 1.9985L17.7933 1.66302L17.6245 1.42171" fill="white"/>
<path d="M17.3241 1.99857L17.4981 1.44866L17.7798 1.53464" fill="white"/>
<path d="M8.44668 5.56445L8.26428 6.11165L8.54268 6.20765" fill="white"/>
<path d="M8.44663 5.56445L8.62903 6.11165L8.35063 6.20765" fill="white"/>
<path d="M8.99448 5.96254L8.41769 5.95816L8.41242 6.2526" fill="white"/>
<path d="M8.99442 5.96251L8.53036 6.30508L8.35303 6.06997" fill="white"/>
<path d="M7.89889 5.96251L8.36295 6.30508L8.54028 6.06997" fill="white"/>
<path d="M7.89884 5.96254L8.47562 5.95816L8.48089 6.2526" fill="white"/>
<path d="M8.7853 6.60648L8.61123 6.05657L8.32957 6.14255" fill="white"/>
<path d="M8.78526 6.60641L8.31606 6.27093L8.48486 6.02962" fill="white"/>
<path d="M8.10817 6.60641L8.57737 6.27093L8.40857 6.02962" fill="white"/>
<path d="M8.10814 6.60648L8.28221 6.05657L8.56387 6.14255" fill="white"/>
<path d="M10.7506 5.56445L10.5682 6.11165L10.8466 6.20765" fill="white"/>
<path d="M10.7506 5.56445L10.933 6.11165L10.6546 6.20765" fill="white"/>
<path d="M11.2984 5.96254L10.7216 5.95816L10.7164 6.2526" fill="white"/>
<path d="M11.2984 5.96251L10.8343 6.30508L10.657 6.06997" fill="white"/>
<path d="M10.2028 5.96251L10.6669 6.30508L10.8442 6.06997" fill="white"/>
<path d="M10.2028 5.96254L10.7796 5.95816L10.7848 6.2526" fill="white"/>
<path d="M11.0893 6.60648L10.9152 6.05657L10.6335 6.14255" fill="white"/>
<path d="M11.0892 6.60641L10.62 6.27093L10.7888 6.02962" fill="white"/>
<path d="M10.4121 6.60641L10.8813 6.27093L10.7125 6.02962" fill="white"/>
<path d="M10.4121 6.60648L10.5862 6.05657L10.8678 6.14255" fill="white"/>
<path d="M10.7506 3.2605L10.5682 3.8077L10.8466 3.9037" fill="white"/>
<path d="M10.7506 3.2605L10.933 3.8077L10.6546 3.9037" fill="white"/>
<path d="M11.2984 3.65858L10.7216 3.6542L10.7164 3.94864" fill="white"/>
<path d="M11.2984 3.65856L10.8343 4.00113L10.657 3.76602" fill="white"/>
<path d="M10.2028 3.65856L10.6669 4.00113L10.8442 3.76602" fill="white"/>
<path d="M10.2028 3.65858L10.7796 3.6542L10.7848 3.94864" fill="white"/>
<path d="M11.0893 4.30252L10.9152 3.75262L10.6335 3.83859" fill="white"/>
<path d="M11.0892 4.30246L10.62 3.96697L10.7888 3.72567" fill="white"/>
<path d="M10.4121 4.30246L10.8813 3.96697L10.7125 3.72567" fill="white"/>
<path d="M10.4121 4.30252L10.5862 3.75262L10.8678 3.83859" fill="white"/>
</g>
<defs>
<clipPath id="clip0_916_39364">
<rect width="24" height="24" rx="6" fill="white"/>
</clipPath>
</defs>
</svg>
