<svg width="112" height="28" viewBox="0 0 112 28" fill="none" xmlns="http://www.w3.org/2000/svg">
<path d="M14.8319 0.167378C14.9407 1.58799 14.4905 2.99498 13.5768 4.08947C13.1396 4.63256 12.5846 5.06953 11.9537 5.36747C11.3229 5.66541 10.6325 5.81655 9.93461 5.8095C9.89003 5.12637 9.98077 4.44116 10.2016 3.79306C10.4225 3.14496 10.7692 2.54668 11.2218 2.03242C12.1474 0.979668 13.4364 0.313755 14.8319 0.167378ZM17.3792 10.5066C16.9151 11.3222 16.6653 12.2418 16.653 13.1797C16.6543 14.2344 16.9665 15.2655 17.5507 16.1444C18.135 17.0232 18.9654 17.7109 19.9385 18.1218C19.5559 19.3628 18.9792 20.5357 18.2296 21.5969C17.2239 23.0999 16.1681 24.5689 14.4933 24.5959C13.696 24.6139 13.1591 24.3859 12.5981 24.1469C12.0141 23.8989 11.4041 23.6399 10.4515 23.6399C9.43978 23.6399 8.8047 23.9069 8.19067 24.1649C7.65977 24.3879 7.1469 24.6039 6.42268 24.6329C4.82799 24.6929 3.60793 23.0289 2.56617 21.5399C0.480644 18.4988 -1.1431 12.9697 1.03358 9.20758C1.536 8.3062 2.26371 7.55011 3.14582 7.01297C4.02793 6.47582 5.03437 6.17593 6.06708 6.14251C6.97261 6.12351 7.84008 6.47252 8.60136 6.77753C9.18334 7.01053 9.70322 7.21854 10.1289 7.21854C10.5026 7.21854 11.0074 7.01853 11.5964 6.78553C12.523 6.41852 13.6579 5.96851 14.8139 6.08951C15.6998 6.11735 16.5671 6.35102 17.3468 6.77199C18.1265 7.19295 18.7971 7.7896 19.3054 8.51456C18.5053 9.00576 17.8427 9.69103 17.3792 10.5066ZM72.8228 23.0389C70.9837 23.0389 69.6375 22.1299 69.4822 20.7468H67.3416C67.4768 23.2699 69.5693 24.8669 72.6686 24.8669C75.9812 24.8669 78.0637 23.2319 78.0637 20.6218C78.0637 18.5808 76.8717 17.4308 74.0048 16.7537L72.4652 16.3767C70.6642 15.9317 69.9269 15.3517 69.9269 14.3657C69.9269 13.1277 71.0799 12.2766 72.7657 12.2766C74.4506 12.2766 75.6025 13.1167 75.7297 14.5097H77.8413C77.7722 12.1026 75.7478 10.4496 72.7948 10.4496C69.8107 10.4496 67.7092 12.1026 67.7092 14.5097C67.7092 16.4547 68.9012 17.6528 71.4675 18.2718L73.2786 18.7068C75.0897 19.1508 75.855 19.7998 75.855 20.8828C75.855 22.1309 74.5858 23.0389 72.8228 23.0389Z" fill="black"/>
<path fill-rule="evenodd" clip-rule="evenodd" d="M31.0563 20.8658H36.3833L37.6614 24.6369H39.9563L34.9108 10.6846H32.5668L27.5203 24.6369H29.7771L31.0563 20.8668V20.8658ZM35.8304 19.1258H31.6082L33.6907 13.0057H33.7488L35.8304 19.1258ZM46.6035 24.7399C49.1609 24.7399 50.8557 22.7099 50.8557 19.5478C50.8557 16.3957 49.1509 14.3547 46.5645 14.3547C45.9114 14.3339 45.265 14.4902 44.6938 14.807C44.1227 15.1237 43.6483 15.5892 43.321 16.1537H43.2819V14.4617H41.2575V27.999H43.3491V22.9609H43.3971C43.71 23.5282 44.1766 23.9961 44.7435 24.311C45.3104 24.6258 45.9547 24.7748 46.6025 24.7409L46.6035 24.7399ZM46.0126 16.1347C47.6393 16.1347 48.7061 17.4888 48.7061 19.5478C48.7061 21.6259 47.6403 22.9699 46.0136 22.9699C44.4149 22.9699 43.34 21.5979 43.34 19.5478C43.34 17.5178 44.4139 16.1347 46.0126 16.1347ZM62.0687 19.5478C62.0687 22.7089 60.3738 24.7399 57.8165 24.7399C57.1687 24.7737 56.5244 24.6246 55.9575 24.3098C55.3906 23.995 54.924 23.5272 54.6111 22.9599H54.562V28H52.4705V14.4617H54.4949V16.1527H54.5339C54.8613 15.5881 55.336 15.1227 55.9073 14.8061C56.4786 14.4895 57.1253 14.3335 57.7784 14.3547C60.3638 14.3547 62.0687 16.3947 62.0687 19.5478ZM59.919 19.5478C59.919 17.4878 58.8532 16.1347 57.2265 16.1347C55.6278 16.1347 54.553 17.5168 54.553 19.5478C54.553 21.5979 55.6278 22.9699 57.2265 22.9699C58.8532 22.9699 59.919 21.6259 59.919 19.5478Z" fill="black"/>
<path d="M82.5793 12.0556V14.4637H84.5176V16.1167H82.5793V21.7249C82.5793 22.5959 82.968 23.0019 83.8194 23.0019C84.0498 22.9979 84.2792 22.9819 84.5076 22.9539V24.5979C84.1245 24.6691 83.7352 24.7013 83.3456 24.6939C81.2821 24.6939 80.4788 23.9209 80.4788 21.9479V16.1177H78.9963V14.4637H80.4788V12.0556H82.5793Z" fill="black"/>
<path fill-rule="evenodd" clip-rule="evenodd" d="M90.4746 14.3357C87.5297 14.3357 85.6425 16.3477 85.6425 19.5478C85.6425 22.7579 87.5116 24.7599 90.4746 24.7599C93.4397 24.7599 95.3088 22.7569 95.3088 19.5478C95.3088 16.3477 93.4286 14.3357 90.4746 14.3357ZM90.4746 16.0557C92.1695 16.0557 93.1772 17.3528 93.1772 19.5478C93.1772 21.7529 92.1695 23.0379 90.4746 23.0379C88.7798 23.0379 87.7731 21.7529 87.7731 19.5478C87.7731 17.3628 88.7798 16.0557 90.4746 16.0557Z" fill="black"/>
<path d="M97.0277 14.4607H99.0231V16.1927H99.0712C99.2061 15.6519 99.5234 15.1739 99.9698 14.8392C100.416 14.5044 100.964 14.3334 101.522 14.3547C101.763 14.3547 102.003 14.3797 102.239 14.4327V16.3857C101.934 16.293 101.617 16.2504 101.299 16.2597C100.995 16.2472 100.692 16.3007 100.411 16.4163C100.13 16.532 99.877 16.7072 99.6702 16.9298C99.463 17.1519 99.3065 17.4162 99.2114 17.7045C99.1163 17.9928 99.0849 18.2982 99.1193 18.5998V24.6339H97.0277V14.4597V14.4607Z" fill="black"/>
<path fill-rule="evenodd" clip-rule="evenodd" d="M107.495 24.7599C109.8 24.7599 111.601 23.4929 111.883 21.6459H109.897C109.711 22.1051 109.381 22.4921 108.957 22.7497C108.533 23.0072 108.038 23.1216 107.543 23.0759C107.167 23.0893 106.793 23.023 106.444 22.8813C106.096 22.7396 105.782 22.5257 105.522 22.2539C105.263 21.9812 105.065 21.6566 104.941 21.3016C104.817 20.9466 104.77 20.5693 104.803 20.1948V20.0688H112V19.3538C112 16.2697 110.227 14.3357 107.407 14.3357C104.541 14.3357 102.691 16.4057 102.691 19.5958C102.691 22.7769 104.531 24.7599 107.495 24.7599ZM109.906 18.6098H104.813C104.812 18.2697 104.878 17.9326 105.008 17.6183C105.138 17.3039 105.329 17.0183 105.57 16.7782C105.812 16.5381 106.098 16.3481 106.413 16.2193C106.729 16.0905 107.067 16.0254 107.407 16.0277C107.745 16.0208 108.08 16.0834 108.392 16.2119C108.705 16.3403 108.987 16.5317 109.221 16.7741C109.456 17.0165 109.638 17.3047 109.756 17.6206C109.874 17.9364 109.925 18.2732 109.906 18.6098Z" fill="black"/>
<path d="M31.0192 3.01444H30.1207V3.92446H31.0473C31.9829 3.92446 32.5178 4.33347 32.5178 4.99749C32.5178 5.6525 31.9498 6.11751 31.0793 6.11751C30.2089 6.11751 29.6189 5.7035 29.5588 5.06249H28.5571C28.5871 5.36016 28.6769 5.64873 28.8211 5.911C28.9653 6.17326 29.161 6.40386 29.3963 6.58902C29.6317 6.77417 29.9021 6.91011 30.1912 6.98872C30.4804 7.06732 30.7824 7.08698 31.0793 7.04653C31.3756 7.08323 31.6762 7.06054 31.9636 6.97978C32.251 6.89901 32.5194 6.76181 32.7529 6.57619C32.9865 6.39058 33.1807 6.16029 33.324 5.89883C33.4673 5.63736 33.5569 5.34997 33.5876 5.05349C33.6039 4.64106 33.4559 4.23897 33.176 3.93518C32.8961 3.6314 32.5071 3.45064 32.094 3.43245V3.35245C32.4424 3.27488 32.7536 3.08035 32.9757 2.80135C33.1977 2.52234 33.3172 2.17575 33.3141 1.81941C33.3141 0.755391 32.3825 0.0173741 31.0603 0.0173741C30.7739 -0.019618 30.4829 0.00260552 30.2055 0.082663C29.928 0.16272 29.6701 0.2989 29.4476 0.482735C29.2251 0.666569 29.0429 0.894129 28.9123 1.15126C28.7817 1.4084 28.7054 1.68961 28.6883 1.97742H29.674C29.6916 1.81866 29.7409 1.66505 29.8191 1.52569C29.8973 1.38633 30.0027 1.26406 30.1291 1.16614C30.2555 1.06821 30.4003 0.996618 30.5549 0.955608C30.7095 0.914598 30.8708 0.905004 31.0292 0.927395C31.8186 0.927395 32.2854 1.3274 32.2854 1.94542C32.2785 2.10076 32.2396 2.253 32.1709 2.39258C32.1023 2.53215 32.0055 2.65604 31.8865 2.75644C31.7676 2.85685 31.6292 2.93161 31.4799 2.97601C31.3307 3.02041 31.1738 3.03349 31.0192 3.01444Z" fill="black"/>
<path fill-rule="evenodd" clip-rule="evenodd" d="M36.6157 3.93946C35.4106 4.01446 34.7305 4.53948 34.7305 5.4505C34.7315 5.66395 34.7772 5.87484 34.8647 6.06958C34.9523 6.26433 35.0797 6.43862 35.2388 6.58124C35.3978 6.72386 35.5851 6.83164 35.7884 6.89766C35.9917 6.96367 36.2067 6.98645 36.4193 6.96453C36.7208 6.97846 37.0206 6.9123 37.288 6.77281C37.5555 6.63332 37.7812 6.42548 37.9419 6.17051H38.0211V6.88053H38.9847V3.42545C38.9847 2.35643 38.2685 1.72541 36.9983 1.72541C35.8484 1.72541 35.028 2.28242 34.9258 3.15144H35.8945C36.0066 2.79444 36.3923 2.58943 36.9502 2.58943C37.6354 2.58943 37.988 2.89144 37.988 3.42545V3.86246L36.6157 3.94146V3.93946ZM37.988 5.01849C37.9769 5.17797 37.9338 5.33359 37.8613 5.47615C37.7888 5.6187 37.6884 5.7453 37.5661 5.84843C37.4437 5.95156 37.3019 6.02913 37.149 6.07655C36.996 6.12398 36.8351 6.14028 36.6758 6.12451C36.1319 6.12451 35.7362 5.85951 35.7362 5.4045C35.7362 4.95749 36.0527 4.72048 36.7499 4.67448L37.988 4.59448V5.01849Z" fill="black"/>
<path d="M41.6342 2.66543V6.88453H40.6335V1.82441H43.9711V2.66543H41.6342Z" fill="black"/>
<path fill-rule="evenodd" clip-rule="evenodd" d="M47.9408 6.96853C49.221 6.96853 50.0353 5.96051 50.0353 4.35347C50.0353 2.74544 49.221 1.74141 47.9318 1.74141C47.6073 1.73343 47.287 1.81513 47.0061 1.97749C46.7252 2.13984 46.4947 2.37654 46.3401 2.66143H46.266V1.82541H45.3034V8.56657H46.303V6.11951H46.3822C46.5341 6.39476 46.7615 6.62098 47.0378 6.77156C47.3141 6.92214 47.6278 6.99083 47.9418 6.96953L47.9408 6.96853ZM47.6523 2.63843C48.4998 2.63843 49.0066 3.28445 49.0066 4.35347C49.0066 5.4265 48.4998 6.07151 47.6483 6.07151C46.8109 6.07151 46.284 5.4115 46.284 4.35747C46.284 3.29745 46.8109 2.63843 47.6523 2.63843Z" fill="black"/>
<path d="M51.3696 8.69657V7.83655C51.4778 7.85055 51.586 7.85655 51.6952 7.85555C51.9084 7.87166 52.1201 7.80847 52.2895 7.67813C52.4589 7.54779 52.574 7.35952 52.6127 7.14953L52.6868 6.90353L50.8527 1.82541H51.9416L53.2127 5.8435H53.2918L54.558 1.82541H55.6188L53.7286 7.09353C53.2959 8.32456 52.817 8.71957 51.7833 8.71957C51.7002 8.71957 51.4628 8.70957 51.3696 8.69657ZM57.3938 5.4495H56.3981C56.4902 6.47152 57.3898 6.97753 58.4956 6.97753C59.7477 6.97753 60.5681 6.34152 60.5681 5.37949C60.5709 5.10153 60.4715 4.83218 60.2888 4.62246C60.106 4.41273 59.8526 4.27718 59.5765 4.24147V4.16247C59.8085 4.10735 60.0146 3.9744 60.1603 3.78584C60.3059 3.59727 60.3824 3.36451 60.3768 3.12644C60.3768 2.27142 59.6876 1.72841 58.4836 1.72841C58.0226 1.6646 57.5548 1.78403 57.1811 2.06101C56.8074 2.338 56.5575 2.75039 56.4852 3.20945H57.4489C57.514 2.80944 57.9227 2.57243 58.4816 2.57243C59.0966 2.57243 59.3932 2.85644 59.3932 3.22745C59.3932 3.65046 59.0866 3.88246 58.4816 3.88246H57.7364V4.65848H58.4946C59.2028 4.65848 59.5705 4.89148 59.5705 5.37849C59.5705 5.83451 59.1608 6.12751 58.4946 6.12751C57.9096 6.12751 57.4909 5.89451 57.3928 5.4475L57.3938 5.4495ZM62.0026 6.88453V1.82441H62.9942V5.30449H63.0734L65.4083 1.82441H66.4V6.88453H65.4083V3.38645H65.3342L62.9942 6.88453H62.0026ZM70.2675 2.66543H71.8632V1.82541H67.6701V2.66543H69.2658V6.88453H70.2675V2.66543Z" fill="black"/>
<path fill-rule="evenodd" clip-rule="evenodd" d="M77.2483 5.5155C77.1121 5.97787 76.8175 6.37777 76.416 6.64536C76.0145 6.91295 75.5316 7.03123 75.0516 6.97953C74.7177 6.98833 74.3858 6.92447 74.0791 6.79238C73.7724 6.66029 73.4981 6.46313 73.2754 6.21459C73.0526 5.96605 72.8867 5.6721 72.7892 5.35313C72.6917 5.03416 72.6649 4.69782 72.7106 4.36747C72.6667 4.03629 72.6943 3.69954 72.7918 3.37995C72.8893 3.06036 73.0543 2.76536 73.2757 2.51485C73.4971 2.26434 73.7697 2.06415 74.0752 1.9278C74.3807 1.79144 74.712 1.72209 75.0466 1.72441C76.457 1.72441 77.3084 2.68643 77.3084 4.27447V4.62348H73.7304V4.67948C73.7149 4.8651 73.7384 5.05191 73.7993 5.22796C73.8603 5.40401 73.9573 5.56542 74.0843 5.70189C74.2113 5.83836 74.3654 5.94688 74.5368 6.02051C74.7082 6.09414 74.8931 6.13127 75.0797 6.12951C75.3189 6.15808 75.5612 6.11495 75.7758 6.00561C75.9904 5.89627 76.1675 5.72566 76.2847 5.5155H77.2483ZM73.7304 3.88546H76.2887C76.3015 3.71572 76.2785 3.54519 76.2213 3.38483C76.1641 3.22448 76.0739 3.07785 75.9565 2.95437C75.8392 2.83089 75.6972 2.7333 75.5398 2.66787C75.3824 2.60243 75.213 2.57061 75.0426 2.57443C74.8696 2.57215 74.698 2.60447 74.5377 2.6695C74.3775 2.73452 74.2319 2.83093 74.1096 2.95304C73.9873 3.07514 73.8907 3.22047 73.8256 3.38044C73.7605 3.54042 73.7281 3.71279 73.7304 3.88546ZM83.7763 1.82541H81.4915V6.88453H83.7994C84.9113 6.88453 85.5764 6.30852 85.5764 5.4255C85.5798 5.12951 85.4692 4.84351 85.2676 4.62653C85.0659 4.40955 84.7885 4.27816 84.4925 4.25947V4.17947C84.7362 4.12632 84.9543 3.99124 85.1102 3.79684C85.2661 3.60243 85.3504 3.36047 85.349 3.11144C85.349 2.32643 84.768 1.82541 83.7763 1.82541ZM82.4832 3.90146V2.59143H83.585C84.1159 2.59143 84.3673 2.84744 84.3673 3.24145C84.3673 3.66946 84.0788 3.90146 83.4738 3.90146H82.4832ZM82.4832 6.11851V4.63548H83.5439C84.2181 4.63548 84.5757 4.87248 84.5757 5.37949C84.5757 5.85751 84.2602 6.11851 83.6692 6.11851H82.4832Z" fill="black"/>
</svg>
