<svg width="72" height="72" viewBox="0 0 72 72" fill="none" xmlns="http://www.w3.org/2000/svg">
<path opacity="0.2" d="M54 22.5V49.5H29.25C31.03 49.5 32.7701 48.9722 34.2501 47.9832C35.7302 46.9943 36.8837 45.5887 37.5649 43.9441C38.2461 42.2996 38.4243 40.49 38.0771 38.7442C37.7298 36.9984 36.8726 35.3947 35.614 34.136C34.3553 32.8774 32.7516 32.0202 31.0058 31.6729C29.26 31.3257 27.4504 31.5039 25.8058 32.1851C24.1613 32.8663 22.7557 34.0198 21.7668 35.4999C20.7778 36.9799 20.25 38.72 20.25 40.5H18V22.5H54Z" fill="#2490A8"/>
<path d="M60.75 11.25H11.25C10.0565 11.25 8.91193 11.7241 8.06802 12.568C7.22411 13.4119 6.75 14.5565 6.75 15.75V56.25C6.75 57.4435 7.22411 58.5881 8.06802 59.432C8.91193 60.2759 10.0565 60.75 11.25 60.75H15.0159C15.4418 60.7501 15.8589 60.6294 16.2189 60.4019C16.5788 60.1744 16.8668 59.8494 17.0494 59.4647C18.1435 57.1547 19.8709 55.2028 22.0307 53.836C24.1905 52.4691 26.694 51.7435 29.25 51.7435C31.806 51.7435 34.3095 52.4691 36.4693 53.836C38.6291 55.2028 40.3565 57.1547 41.4506 59.4647C41.6332 59.8494 41.9212 60.1744 42.2812 60.4019C42.6411 60.6294 43.0582 60.7501 43.4841 60.75H60.75C61.9435 60.75 63.0881 60.2759 63.932 59.432C64.7759 58.5881 65.25 57.4435 65.25 56.25V15.75C65.25 14.5565 64.7759 13.4119 63.932 12.568C63.0881 11.7241 61.9435 11.25 60.75 11.25ZM22.5 40.5C22.5 39.165 22.8959 37.8599 23.6376 36.7499C24.3793 35.6399 25.4335 34.7747 26.6669 34.2638C27.9003 33.7529 29.2575 33.6192 30.5669 33.8797C31.8762 34.1401 33.079 34.783 34.023 35.727C34.967 36.671 35.6099 37.8738 35.8703 39.1831C36.1308 40.4925 35.9971 41.8497 35.4862 43.0831C34.9753 44.3165 34.1101 45.3707 33.0001 46.1124C31.8901 46.8541 30.585 47.25 29.25 47.25C27.4598 47.25 25.7429 46.5388 24.477 45.273C23.2112 44.0071 22.5 42.2902 22.5 40.5ZM60.75 56.25H44.8397C42.9608 53.0196 40.1285 50.4496 36.7313 48.8925C38.4345 47.3759 39.6365 45.3775 40.1781 43.1622C40.7197 40.9469 40.5753 38.6193 39.7639 36.488C38.9525 34.3567 37.5126 32.5223 35.6349 31.2279C33.7572 29.9336 31.5306 29.2405 29.25 29.2405C26.9694 29.2405 24.7428 29.9336 22.8651 31.2279C20.9874 32.5223 19.5475 34.3567 18.7361 36.488C17.9247 38.6193 17.7803 40.9469 18.3219 43.1622C18.8635 45.3775 20.0655 47.3759 21.7688 48.8925C18.3715 50.4496 15.5392 53.0196 13.6603 56.25H11.25V15.75H60.75V56.25ZM15.75 27V22.5C15.75 21.9033 15.9871 21.331 16.409 20.909C16.831 20.4871 17.4033 20.25 18 20.25H54C54.5967 20.25 55.169 20.4871 55.591 20.909C56.0129 21.331 56.25 21.9033 56.25 22.5V49.5C56.25 50.0967 56.0129 50.669 55.591 51.091C55.169 51.5129 54.5967 51.75 54 51.75H49.5C48.9033 51.75 48.331 51.5129 47.909 51.091C47.4871 50.669 47.25 50.0967 47.25 49.5C47.25 48.9033 47.4871 48.331 47.909 47.909C48.331 47.4871 48.9033 47.25 49.5 47.25H51.75V24.75H20.25V27C20.25 27.5967 20.0129 28.169 19.591 28.591C19.169 29.0129 18.5967 29.25 18 29.25C17.4033 29.25 16.831 29.0129 16.409 28.591C15.9871 28.169 15.75 27.5967 15.75 27Z" fill="#2490A8"/>
</svg>
