<svg width="72" height="72" viewBox="0 0 72 72" fill="none" xmlns="http://www.w3.org/2000/svg">
<path opacity="0.2" d="M63 15.75V58.5H9V13.5H60.75C61.3467 13.5 61.919 13.7371 62.341 14.159C62.7629 14.581 63 15.1533 63 15.75Z" fill="#2490A8"/>
<path d="M65.25 58.5C65.25 59.0967 65.0129 59.669 64.591 60.091C64.169 60.5129 63.5967 60.75 63 60.75H9C8.40326 60.75 7.83097 60.5129 7.40901 60.091C6.98705 59.669 6.75 59.0967 6.75 58.5V13.5C6.75 12.9033 6.98705 12.331 7.40901 11.909C7.83097 11.4871 8.40326 11.25 9 11.25C9.59674 11.25 10.169 11.4871 10.591 11.909C11.0129 12.331 11.25 12.9033 11.25 13.5V44.0691L25.4081 29.9081C25.6171 29.6989 25.8652 29.533 26.1384 29.4197C26.4115 29.3065 26.7043 29.2482 27 29.2482C27.2957 29.2482 27.5885 29.3065 27.8616 29.4197C28.1348 29.533 28.3829 29.6989 28.5919 29.9081L36 37.3191L50.8191 22.5H45C44.4033 22.5 43.831 22.2629 43.409 21.841C42.9871 21.419 42.75 20.8467 42.75 20.25C42.75 19.6533 42.9871 19.081 43.409 18.659C43.831 18.2371 44.4033 18 45 18H56.25C56.8467 18 57.419 18.2371 57.841 18.659C58.2629 19.081 58.5 19.6533 58.5 20.25V31.5C58.5 32.0967 58.2629 32.669 57.841 33.091C57.419 33.5129 56.8467 33.75 56.25 33.75C55.6533 33.75 55.081 33.5129 54.659 33.091C54.2371 32.669 54 32.0967 54 31.5V25.6809L37.5919 42.0919C37.3829 42.3011 37.1348 42.467 36.8616 42.5803C36.5885 42.6935 36.2957 42.7518 36 42.7518C35.7043 42.7518 35.4115 42.6935 35.1384 42.5803C34.8652 42.467 34.6171 42.3011 34.4081 42.0919L27 34.6809L11.25 50.4309V56.25H63C63.5967 56.25 64.169 56.4871 64.591 56.909C65.0129 57.331 65.25 57.9033 65.25 58.5Z" fill="#2490A8"/>
</svg>
