<svg  viewBox="0 0 156 156" fill="none" xmlns="http://www.w3.org/2000/svg">
<g clip-path="url(#clip0_3195_30977)">
<path d="M0 24C0 10.7452 10.7452 0 24 0H132C145.255 0 156 10.7452 156 24V132C156 145.255 145.255 156 132 156H24C10.7452 156 0 145.255 0 132V24Z" fill="#F5FBFF"/>
<path opacity="0.2" d="M100 70V100H70V86H86V70H100Z" fill="#54B1EC"/>
<path d="M100 68H88V56C88 55.4696 87.7893 54.9609 87.4142 54.5858C87.0391 54.2107 86.5304 54 86 54H56C55.4696 54 54.9609 54.2107 54.5858 54.5858C54.2107 54.9609 54 55.4696 54 56V86C54 86.5304 54.2107 87.0391 54.5858 87.4142C54.9609 87.7893 55.4696 88 56 88H68V100C68 100.53 68.2107 101.039 68.5858 101.414C68.9609 101.789 69.4696 102 70 102H100C100.53 102 101.039 101.789 101.414 101.414C101.789 101.039 102 100.53 102 100V70C102 69.4696 101.789 68.9609 101.414 68.5858C101.039 68.2107 100.53 68 100 68ZM58 58H84V84H58V58ZM98 98H72V88H86C86.5304 88 87.0391 87.7893 87.4142 87.4142C87.7893 87.0391 88 86.5304 88 86V72H98V98Z" fill="#54B1EC"/>
<circle cx="78" cy="78" r="88.5" stroke="#D1E6F3" stroke-width="25"/>
<circle cx="78.0004" cy="78.0004" r="69.9691" stroke="#D9ECF8" stroke-width="15"/>
<circle cx="77.5379" cy="77.5379" r="59.9442" stroke="#E8F6FF" stroke-width="10"/>
</g>
<defs>
<clipPath id="clip0_3195_30977">
<path d="M0 24C0 10.7452 10.7452 0 24 0H132C145.255 0 156 10.7452 156 24V132C156 145.255 145.255 156 132 156H24C10.7452 156 0 145.255 0 132V24Z" fill="white"/>
</clipPath>
</defs>
</svg>
