<svg width="119" height="28" viewBox="0 0 119 28" fill="none" xmlns="http://www.w3.org/2000/svg">
<path d="M59.737 15.39C58.873 15.393 58.0293 15.6511 57.3124 16.1318C56.5955 16.6125 56.0375 17.2941 55.7089 18.0907C55.3803 18.8873 55.2959 19.7631 55.4663 20.6075C55.6366 21.452 56.0542 22.2271 56.6661 22.8351C57.2781 23.4431 58.0571 23.8567 58.9047 24.0236C59.7522 24.1906 60.6305 24.1034 61.4284 23.7731C62.2263 23.4428 62.9082 22.8842 63.3878 22.1679C63.8675 21.4515 64.1236 20.6095 64.1236 19.7482C64.1325 19.1722 64.0251 18.6003 63.8077 18.0666C63.5903 17.5329 63.2674 17.0483 62.8582 16.6416C62.4489 16.2349 61.9618 15.9145 61.4257 15.6995C60.8897 15.4845 60.3147 15.3792 59.737 15.39ZM59.737 22.3862C58.4154 22.3862 57.2711 21.2974 57.2711 19.7482C57.2711 18.1979 58.4234 17.1071 59.738 17.1071C61.0505 17.1071 62.2038 18.1769 62.2038 19.7482C62.2038 21.3184 61.0606 22.3862 59.737 22.3862ZM50.1702 15.39C49.3066 15.3934 48.4633 15.6518 47.7468 16.1325C47.0304 16.6133 46.4728 17.2949 46.1446 18.0913C45.8164 18.8877 45.7322 19.7631 45.9027 20.6072C46.0732 21.4513 46.4907 22.226 47.1025 22.8337C47.7143 23.4414 48.493 23.8548 49.3403 24.0217C50.1875 24.1885 51.0654 24.1014 51.863 23.7713C52.6607 23.4412 53.3423 22.8828 53.8219 22.1668C54.3016 21.4508 54.5576 20.6092 54.5578 19.7482C54.5667 19.172 54.4591 18.5999 54.2414 18.066C54.0238 17.5322 53.7006 17.0475 53.2911 16.6408C52.8816 16.2341 52.3941 15.9138 51.8578 15.6989C51.3214 15.484 50.7482 15.379 50.1702 15.39ZM50.1702 22.3862C48.8476 22.3862 47.7054 21.2974 47.7054 19.7482C47.7054 18.1979 48.8476 17.1071 50.1702 17.1071C51.4928 17.1071 52.6361 18.1769 52.6361 19.7482C52.6361 21.3184 51.4938 22.3862 50.1702 22.3862ZM38.793 16.7285V18.5835H43.2276C43.0944 19.6223 42.7487 20.3815 42.2187 20.9079C41.5744 21.5502 40.5634 22.2604 38.7839 22.2604C37.52 22.1956 36.3292 21.6494 35.4575 20.7346C34.5858 19.8197 34.0998 18.6061 34.0998 17.3444C34.0998 16.0826 34.5858 14.869 35.4575 13.9541C36.3292 13.0393 37.52 12.4931 38.7839 12.4283C40.0312 12.4074 41.2361 12.8792 42.1355 13.7409L43.4441 12.4393C42.8325 11.8353 42.106 11.359 41.3073 11.0386C40.5086 10.7182 39.6538 10.56 38.793 10.5734C35.0526 10.5734 31.9085 13.61 31.9085 17.3379C31.9085 21.0657 35.0526 24.1033 38.792 24.1033C40.8129 24.1033 42.3349 23.4421 43.5152 22.2054C44.7386 20.9848 45.1214 19.2707 45.1214 17.8843C45.1263 17.4966 45.0924 17.1094 45.0202 16.7285H38.793ZM85.3411 18.1559C84.9764 17.182 83.8682 15.373 81.6018 15.373C79.3343 15.373 77.4797 17.1391 77.4797 19.7312C77.4676 20.3037 77.5712 20.8729 77.7844 21.4046C77.9976 21.9364 78.316 22.4199 78.7207 22.8264C79.1254 23.2328 79.6081 23.5538 80.1399 23.7703C80.6717 23.9868 81.2418 24.0942 81.8162 24.0863C82.537 24.0922 83.248 23.9191 83.8851 23.5828C84.5221 23.2464 85.0652 22.7573 85.4653 22.1595L83.9754 21.1686C83.4794 21.8968 82.8011 22.3732 81.8292 22.3732C81.3842 22.3902 80.9443 22.2736 80.5665 22.0385C80.1886 21.8035 79.8903 21.4607 79.7101 21.0547L85.5515 18.6454L85.3411 18.1559ZM79.3844 19.6063C79.3666 19.2911 79.4116 18.9755 79.5169 18.6777C79.6222 18.3799 79.7856 18.1059 79.9978 17.8714C80.2099 17.637 80.4666 17.4468 80.7529 17.3118C81.0392 17.1769 81.3495 17.0998 81.6659 17.0851C82.4304 17.0851 83.0747 17.4647 83.2891 18.0101L79.3844 19.6063ZM74.6331 23.8316H76.5529V11.0359H74.6331V23.8316ZM71.49 16.356H71.4249C71.1326 16.0403 70.7763 15.7902 70.3797 15.6223C69.9831 15.4544 69.5551 15.3725 69.1244 15.382C66.9391 15.382 64.9381 17.3079 64.9381 19.7572C64.9381 22.2044 66.9391 24.0943 69.1244 24.0943C69.557 24.1056 69.9869 24.0228 70.3842 23.8517C70.7815 23.6806 71.1366 23.4252 71.4249 23.1034H71.49V23.7307C71.49 25.3979 70.5962 26.2879 69.1584 26.2879C67.9821 26.2879 67.2547 25.4468 66.9561 24.7386L65.2858 25.4318C65.601 26.1941 66.1368 26.8456 66.825 27.303C67.5131 27.7604 68.3223 28.003 69.1494 28C71.3998 28 73.3035 26.6794 73.3035 23.463V15.6557H71.48L71.489 16.355L71.49 16.356ZM69.2897 22.3782C67.9651 22.3782 66.8569 21.2735 66.8569 19.7562C66.8569 18.2389 67.9651 17.0991 69.2897 17.0991C70.6143 17.0991 71.6222 18.2219 71.6222 19.7562C71.6222 21.2905 70.5962 22.3782 69.2897 22.3782ZM94.3347 11.0359H89.7427V23.8376H91.6575V18.988H94.3347C96.4589 18.988 98.546 17.4557 98.546 15.0125C98.546 12.5682 96.4599 11.0369 94.3347 11.0369M94.3848 17.208H91.6575V12.8179H94.3838C94.9678 12.8179 95.5278 13.0492 95.9407 13.4608C96.3536 13.8725 96.5856 14.4308 96.5856 15.013C96.5856 15.5951 96.3536 16.1534 95.9407 16.5651C95.5278 16.9767 94.9688 17.208 94.3848 17.208ZM106.229 15.373C104.842 15.373 103.404 15.9834 102.809 17.3309L104.512 18.0401C104.874 17.3309 105.551 17.1031 106.264 17.1031C107.253 17.1031 108.262 17.6955 108.277 18.7483V18.8811C107.662 18.5544 106.976 18.3845 106.279 18.3867C104.446 18.3867 102.578 19.3926 102.578 21.2695C102.578 22.9816 104.081 24.0863 105.766 24.0863C107.054 24.0863 107.766 23.51 108.213 22.8337H108.277V23.8226H110.128V18.9081C110.128 16.6356 108.427 15.3691 106.229 15.3691M106 22.3842C105.37 22.3842 104.497 22.0716 104.497 21.2974C104.497 20.3085 105.588 19.932 106.53 19.932C107.141 19.9147 107.745 20.0624 108.279 20.3595C108.209 20.9145 107.94 21.4255 107.521 21.7978C107.103 22.1701 106.563 22.3784 106.002 22.3842M116.871 15.6477L114.673 21.1986H114.605L112.332 15.6477H110.267L113.687 23.4051L111.731 27.7223H113.73L119 15.6477H116.871ZM99.607 23.8396H101.524V11.0379H99.607V23.8396Z" fill="black"/>
<path d="M11.0386 13.0197L0.100208 24.5768C0.218126 25.0149 0.435979 25.42 0.736775 25.7603C1.03757 26.1007 1.41318 26.3672 1.83429 26.539C2.25541 26.7108 2.71064 26.7833 3.16449 26.7508C3.61834 26.7184 4.05853 26.5818 4.45073 26.3518L4.4858 26.3328L16.8029 19.2627L11.0366 13.0197H11.0386Z" fill="#CF5A4C"/>
<path d="M22.1023 11.0379H22.0923L16.7769 7.96031L10.7941 13.2714L16.8039 19.2647L22.0842 16.2291C22.5526 15.9774 22.9441 15.6043 23.2176 15.1494C23.4911 14.6944 23.6365 14.1743 23.6383 13.6438C23.6402 13.1134 23.4985 12.5923 23.2281 12.1354C22.9578 11.6786 22.5689 11.3028 22.1023 11.0479" fill="#E9B545"/>
<path d="M0.100208 2.61627C0.0329628 2.86339 -0.000736305 3.11838 1.21992e-05 3.37443V23.8226C1.21992e-05 24.0783 0.0330769 24.3331 0.100208 24.5798L11.4144 13.3044L0.100208 2.61627Z" fill="#6B80BE"/>
<path d="M11.1178 13.599L16.7789 7.95832L4.48179 0.851238C4.08925 0.616 3.64727 0.474855 3.19069 0.438925C2.7341 0.402996 2.27539 0.473263 1.85069 0.644191C1.42599 0.815119 1.0469 1.08204 0.743311 1.42391C0.439719 1.76579 0.219912 2.17328 0.10121 2.61427L11.1178 13.599Z" fill="#6DA963"/>
<path d="M33.9759 6.24001C33.4728 5.95537 33.0573 5.53833 32.7744 5.03414C32.4873 4.5144 32.3368 3.93031 32.3368 3.33651C32.3368 2.74272 32.4873 2.15863 32.7744 1.63889C33.0588 1.13511 33.4743 0.71746 33.9759 0.43302C34.4917 0.142711 35.0754 -0.00522959 35.6671 0.00435662C36.1129 -0.00555797 36.5554 0.0829052 36.9631 0.263454C37.3708 0.444003 37.7337 0.712201 38.0261 1.04897L37.3382 1.72001C37.138 1.47363 36.8866 1.27232 36.6023 1.1301C36.312 0.992468 35.9943 0.922279 35.6731 0.924781C35.2576 0.919968 34.8479 1.02352 34.4846 1.22525C34.1251 1.42155 33.8278 1.71601 33.6265 2.07256C33.4139 2.45932 33.3069 2.89524 33.3161 3.33651C33.3061 3.7772 33.4132 4.21387 33.6265 4.60047C33.8268 4.96103 34.1241 5.25849 34.4846 5.4588C34.8491 5.6561 35.2586 5.75626 35.6731 5.74825C36.0272 5.75027 36.3769 5.66988 36.6945 5.51344C37.0122 5.357 37.2891 5.12879 37.5034 4.84685L38.2083 5.5249C37.9034 5.88883 37.5227 6.18176 37.0929 6.38323C36.5976 6.60343 36.058 6.70582 35.5165 6.68236C34.975 6.65891 34.4463 6.51023 33.9719 6.24802L33.9759 6.24001ZM39.3197 0.130552H40.303V3.23736H40.356L42.8923 0.130552H44.1248V0.183634L41.4284 3.38158L44.267 6.48138V6.53546H42.9794L40.348 3.60393H40.294V6.53546H39.3197V0.130552ZM47.2959 0.130552H48.4113L50.8313 6.52645H49.758L49.1682 4.88391H46.5539L45.9702 6.53546H44.8978L47.2959 0.130552ZM48.8408 3.9715L48.1259 2.01046L47.8856 1.27833H47.8325L47.5892 2.00946L46.8753 3.9715H48.8408ZM54.529 3.68605C54.1185 4.0396 53.5908 4.22589 53.0492 4.20686C52.6861 4.21207 52.3269 4.13142 52.0008 3.9715C51.694 3.81866 51.4375 3.58087 51.2619 3.28644C51.0777 2.96647 50.9852 2.60192 50.9946 2.23281V0.12955H51.9878V2.06154C51.9768 2.22662 52.0014 2.39214 52.0598 2.54694C52.1181 2.70174 52.209 2.84222 52.3262 2.95893C52.5766 3.17927 52.903 3.29345 53.2364 3.27642C53.4832 3.28085 53.7276 3.22831 53.9507 3.12287C54.1739 3.01743 54.3697 2.86194 54.523 2.66848V0.130552H55.4973V6.53546H54.529V3.68605ZM58.7794 0.130552H59.8969L62.3159 6.53546H61.2446L60.6558 4.89192H58.0385L57.4487 6.53546H56.3764L58.7794 0.130552ZM60.3254 3.9715L59.6115 2.01046L59.3692 1.27833H59.3151L59.0748 2.00946L58.3609 3.9715H60.3254ZM63.977 1.068H62.1838V0.130552H66.7466V1.05899H64.9593V6.53546H63.977V1.068ZM67.7628 0.130552H68.7481V2.41609H70.1038C70.4873 2.41308 70.8668 2.49722 71.2122 2.66247C71.4641 2.79168 71.6865 2.97159 71.8655 3.1909C72.0445 3.41021 72.1762 3.66418 72.2524 3.93685C72.3285 4.20953 72.3475 4.49501 72.3081 4.77536C72.2686 5.05572 72.1717 5.32489 72.0233 5.56596C71.8244 5.87565 71.5437 6.12421 71.2122 6.28408C70.8672 6.45249 70.4877 6.53855 70.1038 6.53546H67.7628V0.130552ZM70.1759 5.60603C70.392 5.61046 70.6051 5.555 70.7917 5.44578C70.9659 5.34262 71.1071 5.19439 71.2022 5.01611C71.2994 4.83935 71.3485 4.64018 71.3447 4.43849C71.341 4.23679 71.2844 4.03962 71.1806 3.86663C71.0769 3.69364 70.9296 3.55088 70.7535 3.45259C70.5774 3.3543 70.3786 3.30392 70.1769 3.30647H68.7481V5.60202L70.1759 5.60603ZM75.4897 0.130552H76.4619V3.67604L76.4088 4.90895H76.4619L79.3305 0.130552H80.446V6.53546H79.4717V2.90685L79.5248 1.67494H79.4717L76.561 6.53546H75.4877L75.4897 0.130552ZM82.3694 6.26705C81.9562 5.9758 81.6627 5.54449 81.5433 5.05317L82.4385 4.69462C82.4986 4.99909 82.6568 5.27551 82.889 5.47983C83.1073 5.67013 83.3897 5.77228 83.6781 5.76728C83.9884 5.77429 84.2888 5.66412 84.5191 5.4588C84.63 5.36509 84.7187 5.24794 84.7787 5.11578C84.8388 4.98363 84.8688 4.83978 84.8666 4.69462C84.8665 4.50115 84.8071 4.31236 84.6963 4.15378C84.5777 3.98626 84.4176 3.85237 84.2318 3.76518C84.0315 3.66903 83.8112 3.61995 83.5879 3.62196H83.0823V2.76363H83.5559C83.8463 2.77364 84.1306 2.6805 84.3579 2.49922C84.4632 2.41415 84.5472 2.30565 84.6032 2.18236C84.6592 2.05908 84.6856 1.92442 84.6803 1.78912C84.6814 1.66637 84.6552 1.54491 84.6036 1.43353C84.552 1.32215 84.4763 1.22364 84.3819 1.14512C84.1735 0.96941 83.9075 0.877016 83.635 0.885721C83.3867 0.879081 83.1449 0.965533 82.9571 1.1281C82.7789 1.27933 82.6468 1.47664 82.5737 1.69898L81.7156 1.34243C81.8517 0.973857 82.088 0.651358 82.3974 0.408983C82.7539 0.128549 83.1984 -0.0156743 83.653 0.00135207C84.0095 -0.00465723 84.3639 0.0734637 84.6843 0.228704C84.9727 0.368921 85.216 0.586257 85.3902 0.855674C85.5604 1.12309 85.6495 1.43557 85.6455 1.75306C85.6573 2.03634 85.5868 2.31698 85.4425 2.56102C85.2983 2.80506 85.0864 3.00206 84.8325 3.12819V3.18127C85.1199 3.31548 85.3682 3.5208 85.5534 3.7782C85.7497 4.05863 85.8508 4.39315 85.8408 4.73568C85.8438 5.08622 85.7457 5.43076 85.5574 5.72721C85.3682 6.02646 85.1014 6.26876 84.7855 6.4283C84.445 6.60057 84.0686 6.6877 83.6871 6.68169C83.2165 6.68169 82.7559 6.53747 82.3694 6.26705Z" fill="black"/>
</svg>
