<svg width="175" height="93" viewBox="0 0 175 93" fill="none" xmlns="http://www.w3.org/2000/svg">
<path d="M148.114 58.6139V52.855H150.105C150.559 52.8427 151.007 52.9646 151.392 53.2054C151.568 53.3279 151.71 53.4943 151.803 53.688C151.896 53.8817 151.936 54.096 151.92 54.3099C151.928 54.6009 151.83 54.8848 151.644 55.1098C151.446 55.3407 151.177 55.5011 150.878 55.5669C151.23 55.5944 151.56 55.7488 151.805 56.0011C152.045 56.2622 152.172 56.6072 152.157 56.9609C152.17 57.1986 152.121 57.4356 152.015 57.6491C151.909 57.8626 151.75 58.0453 151.552 58.1797C151.085 58.4776 150.537 58.624 149.982 58.5987L148.114 58.6139ZM148.88 55.285H149.937C150.226 55.299 150.513 55.2217 150.756 55.0641C150.861 54.9881 150.945 54.8867 151 54.7694C151.055 54.6521 151.079 54.5228 151.07 54.3937C151.07 53.8148 150.649 53.533 149.806 53.533H148.88V55.285ZM148.88 57.9283H149.898C150.128 57.9324 150.357 57.9068 150.58 57.8522C150.782 57.8 150.965 57.6917 151.108 57.5398C151.185 57.4598 151.245 57.3653 151.284 57.262C151.324 57.1586 151.342 57.0485 151.338 56.938C151.338 56.2905 150.878 55.9706 149.967 55.9706H148.88V57.9283Z" fill="#1B6C7E"/>
<path d="M156.124 58.7587C155.72 58.7722 155.317 58.7035 154.94 58.5568C154.564 58.4101 154.221 58.1885 153.934 57.9055C153.381 57.3135 153.073 56.5352 153.073 55.7268C153.073 54.9185 153.381 54.1401 153.934 53.5482C154.227 53.2713 154.571 53.0547 154.949 52.9108C155.326 52.767 155.728 52.6989 156.132 52.7102C156.537 52.6978 156.94 52.7655 157.319 52.9094C157.697 53.0532 158.043 53.2703 158.337 53.5482C158.894 54.1384 159.204 54.9175 159.204 55.7268C159.204 56.5362 158.894 57.3152 158.337 57.9055C158.046 58.1895 157.699 58.4116 157.319 58.5583C156.938 58.7049 156.532 58.7731 156.124 58.7587ZM156.124 58.035C156.422 58.0468 156.719 57.9935 156.994 57.8791C157.269 57.7646 157.516 57.5916 157.717 57.3722C158.124 56.9221 158.341 56.3324 158.322 55.7268C158.339 55.1216 158.122 54.5328 157.717 54.0814C157.51 53.8718 157.263 53.7053 156.991 53.5917C156.719 53.478 156.427 53.4195 156.132 53.4195C155.836 53.4195 155.544 53.478 155.272 53.5917C155 53.7053 154.753 53.8718 154.546 54.0814C154.141 54.5328 153.924 55.1216 153.941 55.7268C153.922 56.3324 154.139 56.9221 154.546 57.3722C154.745 57.5904 154.989 57.7628 155.261 57.8772C155.534 57.9917 155.828 58.0456 156.124 58.035Z" fill="#1B6C7E"/>
<path d="M160.129 58.6749C159.92 58.6777 159.711 58.6521 159.509 58.5987L159.616 57.8826C159.73 57.9194 159.849 57.9374 159.968 57.936C160.106 57.9414 160.244 57.9138 160.369 57.8554C160.494 57.7971 160.604 57.7098 160.688 57.6008C160.911 57.26 161.048 56.8706 161.086 56.4657C161.191 55.7572 161.24 55.0414 161.232 54.3252V52.8778H164.961V58.6368H164.149V53.5634H161.997V54.5156C162.052 55.5867 161.907 56.6587 161.569 57.6769C161.467 57.9744 161.273 58.2319 161.014 58.4114C160.755 58.591 160.445 58.6833 160.129 58.6749Z" fill="#1B6C7E"/>
<path d="M166.355 58.6139V52.855H169.732V53.5634H167.166V58.6139H166.355Z" fill="#1B6C7E"/>
<path d="M169.18 58.6139L171.692 52.855H172.458L174.946 58.6139H174.027L173.438 57.197H170.696L170.114 58.6139H169.18ZM170.949 56.4886H173.116L172.036 53.792L170.949 56.4886Z" fill="#1B6C7E"/>
<path d="M36.6495 20.5866L35.3017 19.2459L32.2846 22.2929L32.9049 22.9176L33.0657 23.0776L33.5558 23.5575C39.3449 29.2199 45.1469 34.9052 50.9616 40.6134C56.0105 45.6106 61.0416 50.6154 66.0548 55.6278C66.407 55.9782 66.9124 56.5648 67.5174 57.1513V0.0189324H65.3273C59.048 -0.0267735 52.7688 0.0189305 46.4895 0.0646365C39.1025 0.0646365 31.7128 0.0646365 24.3207 0.0646365H0.0536032V4.42955C4.07386 4.42955 11.3027 4.42955 15.3689 4.42955H20.959C19.7815 5.53503 18.6861 6.72396 17.6815 7.987C16.3851 9.75611 15.2838 11.6588 14.3964 13.6622C13.2258 16.7034 12.8645 19.9938 13.3473 23.2147C13.6214 26.486 14.8215 29.6132 16.8085 32.234C19.1052 34.9519 21.5437 37.548 24.1139 40.0116C30.9139 46.8116 37.7419 53.5837 44.5981 60.3279C48.8098 64.4567 50.5787 69.3853 49.6598 75.1671C48.9757 79.143 46.7584 82.6961 43.4801 85.07C39.3373 88.2999 34.7044 88.9322 29.6963 87.8733C26.4035 87.1725 23.8229 85.2148 21.4797 82.8838C16.0428 77.46 10.5752 72.0667 5.15359 66.6201L4.57161 65.9802V46.5171L32.3229 74.1311C33.4562 73.1332 34.467 72.1505 35.2251 71.4878C23.4247 59.7185 11.6779 47.9187 0 36.2942V37.5359C0 42.8149 0 78.6103 0 91.1794V92.8324H1.53153C13.018 92.7791 24.4508 92.7867 35.9067 92.7943C45.4174 92.7943 57.9683 92.7943 67.4791 92.8553V88.3608C62.0345 88.4066 53.1517 88.3608 47.7071 88.3608H46.4742C46.9873 87.9266 47.3012 87.6753 47.5999 87.401C49.9695 85.3368 51.808 82.7383 52.9617 79.8228C54.1154 76.9073 54.5507 73.7593 54.2314 70.6422C53.8868 66.4677 52.5773 62.6589 49.6904 59.5585C46.8035 56.4581 43.8783 53.5634 40.9224 50.5849C34.7963 44.4908 28.6702 38.45 22.6053 32.3559C20.1609 30.0554 18.4922 27.0586 17.8286 23.7769C17.165 20.4952 17.5389 17.0896 18.899 14.0278C20.4031 10.7783 22.9298 8.10427 26.0972 6.41014C29.8571 4.33814 33.8008 4.12485 37.867 5.08467C40.999 5.80073 43.5184 7.63659 45.7544 9.83809L48.3656 12.4281L62.9152 26.9016V46.7913M4.47972 88.3075V72.3105C9.97024 77.7647 15.3 83.0437 20.6373 88.3075H4.47972ZM62.8539 20.6475H62.808L47.485 5.45032L46.4359 4.42194H61.9656C62.0982 4.41416 62.2312 4.41416 62.3638 4.42194H62.9075L62.8539 20.6475Z" fill="#1B6C7E"/>
<path d="M175 60.7621V63.5273H169.839V74.0016H167.059V63.5273H161.928V60.7621H175Z" fill="#1B6C7E"/>
<path d="M102.038 79.7377V82.5029H96.8768V92.9771H94.1047V82.5029H88.9664V79.7377H102.038Z" fill="#1B6C7E"/>
<path d="M106.878 82.5029V84.9481H114.581V87.7057H106.878V90.2119H116.756V92.9771H104.144V79.7377H116.756V82.5029H106.878Z" fill="#1B6C7E"/>
<path d="M162.105 82.381C161.982 81.9193 161.777 81.4832 161.5 81.0936C161.205 80.6968 160.829 80.367 160.397 80.1262C159.885 79.852 159.309 79.7179 158.728 79.7377H152.724C152.145 79.7196 151.572 79.8536 151.062 80.1262C150.63 80.367 150.254 80.6968 149.96 81.0936C149.678 81.4812 149.473 81.9179 149.355 82.381C149.236 82.8079 149.174 83.2484 149.171 83.6912V89.0236C149.174 89.464 149.236 89.9019 149.355 90.3262C149.474 90.7853 149.677 91.2189 149.952 91.606C150.234 92.0065 150.6 92.3417 151.024 92.5887C151.51 92.8598 152.06 92.9941 152.617 92.9772H158.842C159.394 92.9913 159.939 92.8571 160.42 92.5887C160.84 92.3395 161.203 92.0046 161.484 91.606C161.755 91.2143 161.962 90.7823 162.097 90.3262C162.221 89.903 162.286 89.4646 162.288 89.0236V83.6912C162.285 83.2484 162.223 82.8079 162.105 82.381ZM158.728 90.2119H152.724C152.603 90.2118 152.486 90.1686 152.395 90.0901C152.288 89.9997 152.202 89.8881 152.142 89.7625C152.069 89.6382 152.012 89.5051 151.973 89.3664C151.938 89.2399 151.92 89.1092 151.92 88.9779V83.7293C151.921 83.6031 151.94 83.4777 151.973 83.3561C152.014 83.2154 152.07 83.0799 152.142 82.9523C152.203 82.8251 152.292 82.7131 152.402 82.6248C152.518 82.5368 152.663 82.496 152.808 82.5105H158.728C158.858 82.5074 158.986 82.5506 159.087 82.6324C159.189 82.7256 159.272 82.8366 159.332 82.9599C159.402 83.0878 159.456 83.2233 159.493 83.3637C159.529 83.4851 159.55 83.6105 159.555 83.7369V88.9855C159.552 89.1172 159.531 89.2478 159.493 89.374C159.457 89.5124 159.403 89.6455 159.332 89.7701C159.27 89.8922 159.187 90.0029 159.087 90.0977C158.987 90.1814 158.858 90.2224 158.728 90.2119Z" fill="#1B6C7E"/>
<path d="M76.7908 64.7538V70.0023C76.793 70.134 76.8136 70.2648 76.8521 70.3908C76.8896 70.5312 76.9436 70.6667 77.0129 70.7945C77.0758 70.9184 77.1645 71.0275 77.2732 71.1145C77.3609 71.1944 77.476 71.2379 77.5948 71.2364H86.6845V74.0016H77.4953C76.9435 74.0192 76.3976 73.8848 75.9178 73.6131C75.4998 73.3666 75.1396 73.0341 74.8611 72.638C74.5959 72.2424 74.3943 71.8081 74.2638 71.3506C74.1476 70.9261 74.0884 70.4881 74.0876 70.048V64.7157C74.0884 64.2731 74.1476 63.8326 74.2638 63.4054C74.3902 62.9489 74.5921 62.5164 74.8611 62.1257C75.1666 61.6863 75.5788 61.3309 76.0595 61.0925C76.5401 60.8541 77.0735 60.7404 77.6102 60.7621H86.6998V63.5273H77.6255C77.561 63.5235 77.4963 63.533 77.4357 63.5553C77.3751 63.5776 77.3197 63.6122 77.2732 63.6568C77.1645 63.7438 77.0758 63.8529 77.0129 63.9768C76.9423 64.1067 76.8882 64.2449 76.8521 64.3881C76.816 64.5069 76.7955 64.6298 76.7908 64.7538Z" fill="#1B6C7E"/>
<path d="M117.361 74.0092L111.449 60.7621H109.221L103.309 74.0092H106.311L110.347 65.0128L114.359 74.0092H117.361Z" fill="#1B6C7E"/>
<path d="M147.302 67.199C147.592 66.8132 147.805 66.3764 147.93 65.9116C148.056 65.4858 148.122 65.0451 148.129 64.6014C148.126 64.1605 148.061 63.7222 147.938 63.2988C147.821 62.8434 147.619 62.4142 147.341 62.0342C147.047 61.6419 146.674 61.315 146.246 61.0744C145.741 60.8037 145.172 60.6722 144.599 60.6935H135.196V73.8035H144.63C145.203 73.8212 145.77 73.6899 146.276 73.4226C146.709 73.1785 147.083 72.8431 147.371 72.44C147.647 72.0474 147.849 71.6088 147.969 71.145C148.092 70.7241 148.156 70.2883 148.16 69.85C148.152 69.4089 148.085 68.9708 147.961 68.5473C147.82 68.0639 147.597 67.6079 147.302 67.199ZM145.319 70.208C145.283 70.3537 145.229 70.4944 145.158 70.6269C145.093 70.7497 145.008 70.8605 144.905 70.9545C144.811 71.0445 144.684 71.0938 144.553 71.0916H137.891V68.5778H144.645C144.772 68.5847 144.893 68.63 144.993 68.7076C145.093 68.7852 145.167 68.8915 145.204 69.012C145.31 69.2526 145.367 69.5114 145.373 69.7738C145.374 69.9202 145.356 70.0662 145.319 70.208ZM137.891 63.4283H144.553C144.682 63.4242 144.807 63.4677 144.905 63.5502C145.01 63.6368 145.095 63.7429 145.158 63.8625C145.228 63.993 145.281 64.131 145.319 64.2738C145.353 64.3954 145.371 64.5209 145.373 64.6471C145.371 64.91 145.313 65.1695 145.204 65.4089C145.165 65.5195 145.097 65.6176 145.007 65.6927C144.917 65.7678 144.807 65.8172 144.691 65.8354H137.891V63.4283Z" fill="#1B6C7E"/>
<path d="M76.8827 83.6379V88.8865C76.8827 89.0178 76.9007 89.1485 76.9363 89.275C76.9759 89.4122 77.0298 89.545 77.0971 89.6711C77.158 89.7984 77.247 89.9103 77.3575 89.9986C77.4452 90.0785 77.5602 90.1221 77.6791 90.1205H86.7687V92.8857H77.5795C77.0302 92.9036 76.4866 92.7691 76.0097 92.4972C75.5875 92.2503 75.2243 91.915 74.9453 91.5146C74.6784 91.1237 74.4791 90.6911 74.3557 90.2348C74.2334 89.8113 74.1716 89.3728 74.1719 88.9322V83.5998C74.1715 83.1567 74.2334 82.7157 74.3557 82.2896C74.4776 81.8304 74.6769 81.3951 74.9453 81.0022C75.2337 80.6057 75.6046 80.2758 76.0327 80.0348C76.5433 79.7639 77.116 79.63 77.6944 79.6463H86.784V82.4115H77.7097C77.5808 82.4051 77.4546 82.4488 77.3575 82.5333C77.2486 82.6232 77.1599 82.7348 77.0971 82.8609C77.0311 82.9903 76.9772 83.1254 76.9363 83.2646C76.9023 83.3863 76.8843 83.5117 76.8827 83.6379Z" fill="#1B6C7E"/>
<path d="M148.214 92.8857L142.294 79.6463H140.074L134.154 92.8857H137.156L141.199 83.8969L145.212 92.8857H148.214Z" fill="#1B6C7E"/>
<path d="M127.339 86.7688L133.051 93H129.368L124.82 88.1019H121.741V93H119.015V79.4482H121.741V85.3824H124.835L129.383 79.4482H133.051L127.339 86.7688Z" fill="#1B6C7E"/>
<path d="M95.2304 64.9366L95.1308 65.1575H95.3299L95.2304 64.9366Z" fill="#1B6C7E"/>
<path d="M101.586 72.8132L97.5047 63.672L96.1416 60.6707H93.9133L88.0016 73.9025H91.0034L91.2484 73.3541L92.0142 71.6249H98.0254L98.7912 73.3389L99.0439 73.9025H102.038L101.586 72.8132ZM93.293 68.8749L95.0696 64.9061L95.7434 66.4296L96.8308 68.8749H93.293Z" fill="#1B6C7E"/>
<path d="M132.278 72.8132L126.856 60.6783H124.628L118.716 73.9102H121.718L121.963 73.3617L122.729 71.6325H128.74L129.506 73.3465L129.759 73.9102H132.753L132.278 72.8132ZM123.985 68.8749L125.761 64.9061L126.435 66.4296L127.538 68.8749H123.985Z" fill="#1B6C7E"/>
<path d="M162.587 72.8132L157.165 60.6783H154.937L153.574 63.6644L149.002 73.9025H152.042L152.287 73.3541L153.053 71.6249H159.064L159.83 73.3389L160.083 73.9025H163.077L162.587 72.8132ZM154.294 68.8749L156.07 64.9061L156.744 66.4296L157.832 68.8749H154.294Z" fill="#1B6C7E"/>
</svg>
