<svg width="72" height="72" viewBox="0 0 72 72" fill="none" xmlns="http://www.w3.org/2000/svg">
<path opacity="0.2" d="M38.9652 39.7852C29.9877 24.8199 41.9577 9.85737 67.3968 11.3536C68.9071 36.7927 53.9306 48.7655 38.9652 39.7852ZM4.574 22.5727C3.50525 40.7442 14.1956 49.2914 24.8831 42.8817C31.2956 32.1942 22.7456 21.5039 4.574 22.5727Z" fill="#2490A8"/>
<path d="M69.6459 11.217C69.6138 10.6666 69.3806 10.1471 68.9907 9.75722C68.6009 9.36733 68.0814 9.13418 67.5309 9.10204C52.9734 8.25829 41.2847 12.6852 36.2615 20.9764C32.9428 26.4552 32.9484 33.1152 36.2165 39.4658C34.3584 41.6763 32.999 44.2617 32.2312 47.0455L27.6553 42.4667C29.8547 37.8739 29.7703 33.0842 27.374 29.1102C23.6503 22.9845 15.0806 19.6855 4.44092 20.3239C3.89047 20.3561 3.37099 20.5892 2.9811 20.9791C2.59121 21.369 2.35806 21.8885 2.32592 22.4389C1.69873 33.0786 4.98654 41.6483 11.115 45.3608C13.1409 46.5974 15.469 47.2505 17.8425 47.248C20.1428 47.2196 22.4074 46.6747 24.4687 45.6533L31.5 52.6845V60.748C31.5 61.3447 31.737 61.917 32.159 62.339C32.5809 62.7609 33.1532 62.998 33.75 62.998C34.3467 62.998 34.919 62.7609 35.341 62.339C35.7629 61.917 36 61.3447 36 60.748V52.4539C35.99 48.8744 37.2081 45.3998 39.4509 42.6102C42.3448 44.1225 45.5543 44.9319 48.8194 44.9727C51.976 44.9828 55.0741 44.1205 57.7715 42.4808C66.0628 37.4633 70.5009 25.7745 69.6459 11.217ZM24.2044 39.0186L17.339 32.1561C16.9137 31.752 16.3472 31.53 15.7605 31.5375C15.1738 31.545 14.6132 31.7814 14.1983 32.1963C13.7834 32.6112 13.547 33.1718 13.5395 33.7585C13.532 34.3452 13.754 34.9116 14.1581 35.337L21.0234 42.2023C18.3206 43.0967 15.6994 42.8745 13.4465 41.5105C9.13217 38.8977 6.69092 32.713 6.74998 24.748C14.7122 24.6777 20.8997 27.1302 23.5125 31.4445C24.8765 33.6973 25.0987 36.3186 24.2044 39.0186ZM55.44 38.6361C51.6712 40.917 47.2415 41.0914 42.7415 39.1986L57.8419 24.0955C58.264 23.6737 58.5014 23.1014 58.5016 22.5046C58.5019 21.9078 58.2651 21.3353 57.8433 20.9131C57.4214 20.4909 56.8492 20.2536 56.2524 20.2533C55.6556 20.2531 55.0831 20.4899 54.6609 20.9117L39.5578 35.998C37.6565 31.498 37.8281 27.0655 40.1203 23.2995C44.0409 16.8308 53.339 13.2308 65.2444 13.5036C65.5144 25.4061 61.9144 34.7155 55.44 38.6361Z" fill="#2490A8"/>
</svg>
