<svg  viewBox="0 0 156 156" fill="none" xmlns="http://www.w3.org/2000/svg">
<g clip-path="url(#clip0_3195_5692)">
<path d="M0 24C0 10.7452 10.7452 0 24 0H132C145.255 0 156 10.7452 156 24V132C156 145.255 145.255 156 132 156H24C10.7452 156 0 145.255 0 132V24Z" fill="#EAF7FA"/>
<path opacity="0.2" d="M64.2 100L68 84L54 77.715L77.8 52L74 68L88 74.285L64.2 100Z" fill="#57C3DB"/>
<path d="M89.9597 73.8821C89.8963 73.5711 89.7599 73.2797 89.5617 73.032C89.3634 72.7842 89.1091 72.5871 88.8197 72.4571L76.3197 66.8496L79.7497 52.4596C79.8511 52.0298 79.8075 51.5786 79.6257 51.1763C79.4438 50.7739 79.1339 50.4431 78.7444 50.2353C78.3548 50.0275 77.9074 49.9545 77.4719 50.0276C77.0365 50.1008 76.6375 50.3159 76.3372 50.6396L52.5322 76.3521C52.3166 76.5849 52.1596 76.8657 52.0741 77.1713C51.9885 77.4768 51.9769 77.7984 52.0402 78.1093C52.1034 78.4202 52.2397 78.7116 52.4379 78.9595C52.636 79.2073 52.8903 79.4044 53.1797 79.5346L65.6797 85.1446L62.2497 99.5346C62.1482 99.9643 62.1918 100.416 62.3737 100.818C62.5555 101.22 62.8654 101.551 63.255 101.759C63.6446 101.967 64.092 102.04 64.5274 101.967C64.9628 101.893 65.3618 101.678 65.6622 101.355L89.4622 75.6421C89.6791 75.4094 89.8374 75.1284 89.9239 74.8223C90.0104 74.5162 90.0227 74.1938 89.9597 73.8821ZM67.9047 93.0496L69.9447 84.4596C70.0525 84.0069 69.9992 83.5309 69.7938 83.1134C69.5885 82.6958 69.244 82.363 68.8197 82.1721L57.3572 77.0271L74.0947 58.9446L72.0547 67.5346C71.9468 67.9872 72.0002 68.4632 72.2055 68.8808C72.4108 69.2983 72.7553 69.6312 73.1797 69.8221L84.6397 74.9671L67.9047 93.0496ZM105.787 99.1021L96.7872 81.1021C96.621 80.7699 96.3657 80.4906 96.0498 80.2953C95.7338 80.1001 95.3698 79.9967 94.9984 79.9967C94.627 79.9967 94.263 80.1001 93.9471 80.2953C93.6311 80.4906 93.3758 80.7699 93.2097 81.1021L84.2097 99.1021C83.9723 99.5765 83.9331 100.126 84.1007 100.629C84.2683 101.132 84.629 101.548 85.1034 101.786C85.5778 102.023 86.1271 102.062 86.6304 101.895C87.1337 101.727 87.5498 101.366 87.7872 100.892L90.2347 95.9971H99.7622L102.21 100.892C102.376 101.224 102.631 101.504 102.948 101.699C103.264 101.894 103.628 101.997 104 101.997C104.341 101.997 104.676 101.91 104.973 101.743C105.271 101.577 105.521 101.338 105.7 101.048C105.879 100.758 105.981 100.427 105.997 100.086C106.012 99.7457 105.94 99.4069 105.787 99.1021ZM92.2347 91.9971L94.9997 86.4696L97.7622 91.9971H92.2347Z" fill="#57C3DB"/>
<circle cx="78" cy="78" r="88.5" stroke="#B3E3EE" stroke-width="25"/>
<circle cx="78.0004" cy="78.0004" r="69.9691" stroke="#C6EAF2" stroke-width="15"/>
<circle cx="77.5379" cy="77.5379" r="59.9442" stroke="#D1EEF4" stroke-width="10"/>
</g>
<defs>
<clipPath id="clip0_3195_5692">
<path d="M0 24C0 10.7452 10.7452 0 24 0H132C145.255 0 156 10.7452 156 24V132C156 145.255 145.255 156 132 156H24C10.7452 156 0 145.255 0 132V24Z" fill="white"/>
</clipPath>
</defs>
</svg>
