<svg width="72" height="72" viewBox="0 0 72 72" fill="none" xmlns="http://www.w3.org/2000/svg">
<path opacity="0.2" d="M58.5 20.25V51.75H13.5V20.25H58.5Z" fill="#2490A8"/>
<path d="M24.75 40.5V36C24.75 35.4033 24.9871 34.831 25.409 34.409C25.831 33.9871 26.4033 33.75 27 33.75C27.5967 33.75 28.169 33.9871 28.591 34.409C29.0129 34.831 29.25 35.4033 29.25 36V40.5C29.25 41.0967 29.0129 41.669 28.591 42.091C28.169 42.5129 27.5967 42.75 27 42.75C26.4033 42.75 25.831 42.5129 25.409 42.091C24.9871 41.669 24.75 41.0967 24.75 40.5ZM36 42.75C36.5967 42.75 37.169 42.5129 37.591 42.091C38.0129 41.669 38.25 41.0967 38.25 40.5V33.75C38.25 33.1533 38.0129 32.581 37.591 32.159C37.169 31.7371 36.5967 31.5 36 31.5C35.4033 31.5 34.831 31.7371 34.409 32.159C33.9871 32.581 33.75 33.1533 33.75 33.75V40.5C33.75 41.0967 33.9871 41.669 34.409 42.091C34.831 42.5129 35.4033 42.75 36 42.75ZM45 42.75C45.5967 42.75 46.169 42.5129 46.591 42.091C47.0129 41.669 47.25 41.0967 47.25 40.5V31.5C47.25 30.9033 47.0129 30.331 46.591 29.909C46.169 29.4871 45.5967 29.25 45 29.25C44.4033 29.25 43.831 29.4871 43.409 29.909C42.9871 30.331 42.75 30.9033 42.75 31.5V40.5C42.75 41.0967 42.9871 41.669 43.409 42.091C43.831 42.5129 44.4033 42.75 45 42.75ZM60.75 22.5V49.5H63C63.5967 49.5 64.169 49.7371 64.591 50.159C65.0129 50.581 65.25 51.1533 65.25 51.75C65.25 52.3467 65.0129 52.919 64.591 53.341C64.169 53.7629 63.5967 54 63 54H38.25V58.8881C39.7512 59.4189 41.0165 60.4633 41.8222 61.8367C42.6278 63.2101 42.9221 64.8242 42.6528 66.3935C42.3835 67.9629 41.5681 69.3865 40.3507 70.4129C39.1333 71.4392 37.5923 72.0021 36 72.0021C34.4077 72.0021 32.8667 71.4392 31.6493 70.4129C30.4319 69.3865 29.6165 67.9629 29.3472 66.3935C29.0779 64.8242 29.3722 63.2101 30.1778 61.8367C30.9835 60.4633 32.2488 59.4189 33.75 58.8881V54H9C8.40326 54 7.83097 53.7629 7.40901 53.341C6.98705 52.919 6.75 52.3467 6.75 51.75C6.75 51.1533 6.98705 50.581 7.40901 50.159C7.83097 49.7371 8.40326 49.5 9 49.5H11.25V22.5C10.0565 22.5 8.91193 22.0259 8.06802 21.182C7.22411 20.3381 6.75 19.1935 6.75 18V13.5C6.75 12.3065 7.22411 11.1619 8.06802 10.318C8.91193 9.47411 10.0565 9 11.25 9H60.75C61.9435 9 63.0881 9.47411 63.932 10.318C64.7759 11.1619 65.25 12.3065 65.25 13.5V18C65.25 19.1935 64.7759 20.3381 63.932 21.182C63.0881 22.0259 61.9435 22.5 60.75 22.5ZM38.25 65.25C38.25 64.805 38.118 64.37 37.8708 64C37.6236 63.63 37.2722 63.3416 36.861 63.1713C36.4499 63.001 35.9975 62.9564 35.561 63.0432C35.1246 63.1301 34.7237 63.3443 34.409 63.659C34.0943 63.9737 33.88 64.3746 33.7932 64.811C33.7064 65.2475 33.751 65.6999 33.9213 66.111C34.0916 66.5222 34.38 66.8736 34.75 67.1208C35.12 67.368 35.555 67.5 36 67.5C36.5967 67.5 37.169 67.2629 37.591 66.841C38.0129 66.419 38.25 65.8467 38.25 65.25ZM11.25 18H60.75V13.5H11.25V18ZM56.25 22.5H15.75V49.5H56.25V22.5Z" fill="#2490A8"/>
</svg>
